G04 EAGLE Gerber RS-274X export*
G75*
%MOMM*%
%FSLAX34Y34*%
%LPD*%
%INSilkscreen Top*%
%IPPOS*%
%AMOC8*
5,1,8,0,0,1.08239X$1,22.5*%
G01*
%ADD10C,0.203200*%
%ADD11C,0.152400*%
%ADD12C,0.127000*%
%ADD13R,0.609600X0.863600*%
%ADD14C,0.101600*%
%ADD15C,0.050800*%
%ADD16C,0.076200*%
%ADD17R,0.863600X0.609600*%


D10*
X622400Y217700D02*
X622400Y247500D01*
X698400Y247500D01*
X698400Y217700D01*
X698400Y8900D02*
X622400Y8900D01*
X619863Y9862D01*
X617350Y10886D01*
X614864Y11971D01*
X612404Y13116D01*
X609973Y14321D01*
X607572Y15584D01*
X605203Y16906D01*
X602867Y18286D01*
X600565Y19722D01*
X598299Y21214D01*
X596070Y22761D01*
X593879Y24361D01*
X591729Y26015D01*
X589619Y27720D01*
X587551Y29477D01*
X585527Y31284D01*
X583547Y33139D01*
X581614Y35042D01*
X579727Y36992D01*
X577889Y38987D01*
X576100Y41027D01*
X574361Y43110D01*
X572674Y45234D01*
X571038Y47399D01*
X569457Y49603D01*
X567929Y51846D01*
X566457Y54124D01*
X565040Y56438D01*
X563681Y58786D01*
X562379Y61167D01*
X561136Y63578D01*
X559952Y66019D01*
X558828Y68489D01*
X557765Y70985D01*
X556763Y73506D01*
X555822Y76051D01*
X554944Y78618D01*
X554129Y81206D01*
X553378Y83813D01*
X552690Y86437D01*
X552066Y89078D01*
X551508Y91732D01*
X551014Y94400D01*
X550585Y97079D01*
X550222Y99768D01*
X549924Y102465D01*
X549693Y105168D01*
X549527Y107876D01*
X549428Y110587D01*
X549395Y113300D01*
X549428Y116013D01*
X549527Y118724D01*
X549693Y121432D01*
X549924Y124135D01*
X550222Y126832D01*
X550585Y129521D01*
X551014Y132200D01*
X551508Y134868D01*
X552066Y137522D01*
X552690Y140163D01*
X553378Y142787D01*
X554129Y145394D01*
X554944Y147982D01*
X555822Y150549D01*
X556763Y153094D01*
X557765Y155615D01*
X558828Y158111D01*
X559952Y160581D01*
X561136Y163022D01*
X562379Y165433D01*
X563681Y167814D01*
X565040Y170162D01*
X566457Y172476D01*
X567929Y174754D01*
X569457Y176997D01*
X571038Y179201D01*
X572674Y181366D01*
X574361Y183490D01*
X576100Y185573D01*
X577889Y187613D01*
X579727Y189608D01*
X581614Y191558D01*
X583547Y193461D01*
X585527Y195316D01*
X587551Y197123D01*
X589619Y198880D01*
X591729Y200585D01*
X593879Y202239D01*
X596070Y203839D01*
X598299Y205386D01*
X600565Y206878D01*
X602867Y208314D01*
X605203Y209694D01*
X607572Y211016D01*
X609973Y212279D01*
X612404Y213484D01*
X614864Y214629D01*
X617350Y215714D01*
X619863Y216738D01*
X622400Y217700D01*
X698400Y217700D02*
X700937Y216738D01*
X703450Y215714D01*
X705936Y214629D01*
X708396Y213484D01*
X710827Y212279D01*
X713228Y211016D01*
X715597Y209694D01*
X717933Y208314D01*
X720235Y206878D01*
X722501Y205386D01*
X724730Y203839D01*
X726921Y202239D01*
X729071Y200585D01*
X731181Y198880D01*
X733249Y197123D01*
X735273Y195316D01*
X737253Y193461D01*
X739186Y191558D01*
X741073Y189608D01*
X742911Y187613D01*
X744700Y185573D01*
X746439Y183490D01*
X748126Y181366D01*
X749762Y179201D01*
X751343Y176997D01*
X752871Y174754D01*
X754343Y172476D01*
X755760Y170162D01*
X757119Y167814D01*
X758421Y165433D01*
X759664Y163022D01*
X760848Y160581D01*
X761972Y158111D01*
X763035Y155615D01*
X764037Y153094D01*
X764978Y150549D01*
X765856Y147982D01*
X766671Y145394D01*
X767422Y142787D01*
X768110Y140163D01*
X768734Y137522D01*
X769292Y134868D01*
X769786Y132200D01*
X770215Y129521D01*
X770578Y126832D01*
X770876Y124135D01*
X771107Y121432D01*
X771273Y118724D01*
X771372Y116013D01*
X771405Y113300D01*
X771372Y110587D01*
X771273Y107876D01*
X771107Y105168D01*
X770876Y102465D01*
X770578Y99768D01*
X770215Y97079D01*
X769786Y94400D01*
X769292Y91732D01*
X768734Y89078D01*
X768110Y86437D01*
X767422Y83813D01*
X766671Y81206D01*
X765856Y78618D01*
X764978Y76051D01*
X764037Y73506D01*
X763035Y70985D01*
X761972Y68489D01*
X760848Y66019D01*
X759664Y63578D01*
X758421Y61167D01*
X757119Y58786D01*
X755760Y56438D01*
X754343Y54124D01*
X752871Y51846D01*
X751343Y49603D01*
X749762Y47399D01*
X748126Y45234D01*
X746439Y43110D01*
X744700Y41027D01*
X742911Y38987D01*
X741073Y36992D01*
X739186Y35042D01*
X737253Y33139D01*
X735273Y31284D01*
X733249Y29477D01*
X731181Y27720D01*
X729071Y26015D01*
X726921Y24361D01*
X724730Y22761D01*
X722501Y21214D01*
X720235Y19722D01*
X717933Y18286D01*
X715597Y16906D01*
X713228Y15584D01*
X710827Y14321D01*
X708396Y13116D01*
X705936Y11971D01*
X703450Y10886D01*
X700937Y9862D01*
X698400Y8900D01*
X596590Y126182D02*
X594332Y126182D01*
X596590Y126182D02*
X596683Y126180D01*
X596776Y126174D01*
X596869Y126165D01*
X596962Y126151D01*
X597053Y126134D01*
X597144Y126113D01*
X597234Y126088D01*
X597323Y126060D01*
X597411Y126028D01*
X597497Y125992D01*
X597582Y125953D01*
X597665Y125910D01*
X597746Y125864D01*
X597825Y125814D01*
X597902Y125762D01*
X597977Y125706D01*
X598049Y125647D01*
X598119Y125585D01*
X598187Y125521D01*
X598251Y125453D01*
X598313Y125383D01*
X598372Y125311D01*
X598428Y125236D01*
X598480Y125159D01*
X598530Y125080D01*
X598576Y124999D01*
X598619Y124916D01*
X598658Y124831D01*
X598694Y124745D01*
X598726Y124657D01*
X598754Y124568D01*
X598779Y124478D01*
X598800Y124387D01*
X598817Y124296D01*
X598831Y124203D01*
X598840Y124110D01*
X598846Y124017D01*
X598848Y123924D01*
X598846Y123831D01*
X598840Y123738D01*
X598831Y123645D01*
X598817Y123552D01*
X598800Y123461D01*
X598779Y123370D01*
X598754Y123280D01*
X598726Y123191D01*
X598694Y123103D01*
X598658Y123017D01*
X598619Y122932D01*
X598576Y122849D01*
X598530Y122768D01*
X598480Y122689D01*
X598428Y122612D01*
X598372Y122537D01*
X598313Y122465D01*
X598251Y122395D01*
X598187Y122327D01*
X598119Y122263D01*
X598049Y122201D01*
X597977Y122142D01*
X597902Y122086D01*
X597825Y122034D01*
X597746Y121984D01*
X597665Y121938D01*
X597582Y121895D01*
X597497Y121856D01*
X597411Y121820D01*
X597323Y121788D01*
X597234Y121760D01*
X597144Y121735D01*
X597053Y121714D01*
X596962Y121697D01*
X596869Y121683D01*
X596776Y121674D01*
X596683Y121668D01*
X596590Y121666D01*
X594332Y121666D01*
X594332Y129794D01*
X596590Y129794D01*
X596673Y129792D01*
X596757Y129786D01*
X596840Y129777D01*
X596922Y129763D01*
X597003Y129746D01*
X597084Y129725D01*
X597164Y129700D01*
X597242Y129672D01*
X597319Y129640D01*
X597395Y129605D01*
X597469Y129566D01*
X597541Y129523D01*
X597611Y129478D01*
X597678Y129429D01*
X597744Y129377D01*
X597807Y129323D01*
X597867Y129265D01*
X597925Y129205D01*
X597979Y129142D01*
X598031Y129076D01*
X598080Y129009D01*
X598125Y128939D01*
X598168Y128867D01*
X598207Y128793D01*
X598242Y128717D01*
X598274Y128640D01*
X598302Y128562D01*
X598327Y128482D01*
X598348Y128401D01*
X598365Y128320D01*
X598379Y128238D01*
X598388Y128155D01*
X598394Y128071D01*
X598396Y127988D01*
X598394Y127905D01*
X598388Y127821D01*
X598379Y127738D01*
X598365Y127656D01*
X598348Y127575D01*
X598327Y127494D01*
X598302Y127414D01*
X598274Y127336D01*
X598242Y127259D01*
X598207Y127183D01*
X598168Y127109D01*
X598125Y127037D01*
X598080Y126967D01*
X598031Y126900D01*
X597979Y126834D01*
X597925Y126771D01*
X597867Y126711D01*
X597807Y126653D01*
X597744Y126599D01*
X597678Y126547D01*
X597611Y126498D01*
X597541Y126453D01*
X597469Y126410D01*
X597395Y126371D01*
X597319Y126336D01*
X597242Y126304D01*
X597164Y126276D01*
X597084Y126251D01*
X597003Y126230D01*
X596922Y126213D01*
X596840Y126199D01*
X596757Y126190D01*
X596673Y126184D01*
X596590Y126182D01*
X602482Y121666D02*
X605192Y129794D01*
X607901Y121666D01*
X607224Y123698D02*
X603160Y123698D01*
X613726Y121666D02*
X613726Y129794D01*
X611468Y129794D02*
X615984Y129794D01*
X621651Y129794D02*
X621651Y121666D01*
X619393Y129794D02*
X623909Y129794D01*
X628264Y121666D02*
X631876Y121666D01*
X628264Y121666D02*
X628264Y129794D01*
X631876Y129794D01*
X630973Y126182D02*
X628264Y126182D01*
X636260Y129794D02*
X636260Y121666D01*
X636260Y129794D02*
X638518Y129794D01*
X638611Y129792D01*
X638704Y129786D01*
X638797Y129777D01*
X638890Y129763D01*
X638981Y129746D01*
X639072Y129725D01*
X639162Y129700D01*
X639251Y129672D01*
X639339Y129640D01*
X639425Y129604D01*
X639510Y129565D01*
X639593Y129522D01*
X639674Y129476D01*
X639753Y129426D01*
X639830Y129374D01*
X639905Y129318D01*
X639977Y129259D01*
X640047Y129197D01*
X640115Y129133D01*
X640179Y129065D01*
X640241Y128995D01*
X640300Y128923D01*
X640356Y128848D01*
X640408Y128771D01*
X640458Y128692D01*
X640504Y128611D01*
X640547Y128528D01*
X640586Y128443D01*
X640622Y128357D01*
X640654Y128269D01*
X640682Y128180D01*
X640707Y128090D01*
X640728Y127999D01*
X640745Y127908D01*
X640759Y127815D01*
X640768Y127722D01*
X640774Y127629D01*
X640776Y127536D01*
X640774Y127443D01*
X640768Y127350D01*
X640759Y127257D01*
X640745Y127164D01*
X640728Y127073D01*
X640707Y126982D01*
X640682Y126892D01*
X640654Y126803D01*
X640622Y126715D01*
X640586Y126629D01*
X640547Y126544D01*
X640504Y126461D01*
X640458Y126380D01*
X640408Y126301D01*
X640356Y126224D01*
X640300Y126149D01*
X640241Y126077D01*
X640179Y126007D01*
X640115Y125939D01*
X640047Y125875D01*
X639977Y125813D01*
X639905Y125754D01*
X639830Y125698D01*
X639753Y125646D01*
X639674Y125596D01*
X639593Y125550D01*
X639510Y125507D01*
X639425Y125468D01*
X639339Y125432D01*
X639251Y125400D01*
X639162Y125372D01*
X639072Y125347D01*
X638981Y125326D01*
X638890Y125309D01*
X638797Y125295D01*
X638704Y125286D01*
X638611Y125280D01*
X638518Y125278D01*
X636260Y125278D01*
X638969Y125278D02*
X640776Y121666D01*
X647559Y125956D02*
X644849Y129794D01*
X647559Y125956D02*
X650268Y129794D01*
X647559Y125956D02*
X647559Y121666D01*
D11*
X439420Y72390D02*
X439420Y64770D01*
X443230Y68580D02*
X435610Y68580D01*
X410210Y99060D02*
X410222Y100057D01*
X410259Y101054D01*
X410320Y102050D01*
X410406Y103043D01*
X410516Y104035D01*
X410650Y105023D01*
X410808Y106008D01*
X410991Y106988D01*
X411197Y107964D01*
X411428Y108935D01*
X411682Y109899D01*
X411960Y110857D01*
X412261Y111808D01*
X412586Y112751D01*
X412933Y113686D01*
X413304Y114612D01*
X413697Y115529D01*
X414112Y116436D01*
X414549Y117332D01*
X415009Y118218D01*
X415490Y119091D01*
X415992Y119953D01*
X416515Y120802D01*
X417059Y121638D01*
X417623Y122461D01*
X418208Y123269D01*
X418812Y124063D01*
X419435Y124842D01*
X420077Y125605D01*
X420738Y126352D01*
X421417Y127083D01*
X422113Y127797D01*
X422827Y128493D01*
X423558Y129172D01*
X424305Y129833D01*
X425068Y130475D01*
X425847Y131098D01*
X426641Y131702D01*
X427449Y132287D01*
X428272Y132851D01*
X429108Y133395D01*
X429957Y133918D01*
X430819Y134420D01*
X431692Y134901D01*
X432578Y135361D01*
X433474Y135798D01*
X434381Y136213D01*
X435298Y136606D01*
X436224Y136977D01*
X437159Y137324D01*
X438102Y137649D01*
X439053Y137950D01*
X440011Y138228D01*
X440975Y138482D01*
X441946Y138713D01*
X442922Y138919D01*
X443902Y139102D01*
X444887Y139260D01*
X445875Y139394D01*
X446867Y139504D01*
X447860Y139590D01*
X448856Y139651D01*
X449853Y139688D01*
X450850Y139700D01*
X451847Y139688D01*
X452844Y139651D01*
X453840Y139590D01*
X454833Y139504D01*
X455825Y139394D01*
X456813Y139260D01*
X457798Y139102D01*
X458778Y138919D01*
X459754Y138713D01*
X460725Y138482D01*
X461689Y138228D01*
X462647Y137950D01*
X463598Y137649D01*
X464541Y137324D01*
X465476Y136977D01*
X466402Y136606D01*
X467319Y136213D01*
X468226Y135798D01*
X469122Y135361D01*
X470008Y134901D01*
X470881Y134420D01*
X471743Y133918D01*
X472592Y133395D01*
X473428Y132851D01*
X474251Y132287D01*
X475059Y131702D01*
X475853Y131098D01*
X476632Y130475D01*
X477395Y129833D01*
X478142Y129172D01*
X478873Y128493D01*
X479587Y127797D01*
X480283Y127083D01*
X480962Y126352D01*
X481623Y125605D01*
X482265Y124842D01*
X482888Y124063D01*
X483492Y123269D01*
X484077Y122461D01*
X484641Y121638D01*
X485185Y120802D01*
X485708Y119953D01*
X486210Y119091D01*
X486691Y118218D01*
X487151Y117332D01*
X487588Y116436D01*
X488003Y115529D01*
X488396Y114612D01*
X488767Y113686D01*
X489114Y112751D01*
X489439Y111808D01*
X489740Y110857D01*
X490018Y109899D01*
X490272Y108935D01*
X490503Y107964D01*
X490709Y106988D01*
X490892Y106008D01*
X491050Y105023D01*
X491184Y104035D01*
X491294Y103043D01*
X491380Y102050D01*
X491441Y101054D01*
X491478Y100057D01*
X491490Y99060D01*
X491478Y98063D01*
X491441Y97066D01*
X491380Y96070D01*
X491294Y95077D01*
X491184Y94085D01*
X491050Y93097D01*
X490892Y92112D01*
X490709Y91132D01*
X490503Y90156D01*
X490272Y89185D01*
X490018Y88221D01*
X489740Y87263D01*
X489439Y86312D01*
X489114Y85369D01*
X488767Y84434D01*
X488396Y83508D01*
X488003Y82591D01*
X487588Y81684D01*
X487151Y80788D01*
X486691Y79902D01*
X486210Y79029D01*
X485708Y78167D01*
X485185Y77318D01*
X484641Y76482D01*
X484077Y75659D01*
X483492Y74851D01*
X482888Y74057D01*
X482265Y73278D01*
X481623Y72515D01*
X480962Y71768D01*
X480283Y71037D01*
X479587Y70323D01*
X478873Y69627D01*
X478142Y68948D01*
X477395Y68287D01*
X476632Y67645D01*
X475853Y67022D01*
X475059Y66418D01*
X474251Y65833D01*
X473428Y65269D01*
X472592Y64725D01*
X471743Y64202D01*
X470881Y63700D01*
X470008Y63219D01*
X469122Y62759D01*
X468226Y62322D01*
X467319Y61907D01*
X466402Y61514D01*
X465476Y61143D01*
X464541Y60796D01*
X463598Y60471D01*
X462647Y60170D01*
X461689Y59892D01*
X460725Y59638D01*
X459754Y59407D01*
X458778Y59201D01*
X457798Y59018D01*
X456813Y58860D01*
X455825Y58726D01*
X454833Y58616D01*
X453840Y58530D01*
X452844Y58469D01*
X451847Y58432D01*
X450850Y58420D01*
X449853Y58432D01*
X448856Y58469D01*
X447860Y58530D01*
X446867Y58616D01*
X445875Y58726D01*
X444887Y58860D01*
X443902Y59018D01*
X442922Y59201D01*
X441946Y59407D01*
X440975Y59638D01*
X440011Y59892D01*
X439053Y60170D01*
X438102Y60471D01*
X437159Y60796D01*
X436224Y61143D01*
X435298Y61514D01*
X434381Y61907D01*
X433474Y62322D01*
X432578Y62759D01*
X431692Y63219D01*
X430819Y63700D01*
X429957Y64202D01*
X429108Y64725D01*
X428272Y65269D01*
X427449Y65833D01*
X426641Y66418D01*
X425847Y67022D01*
X425068Y67645D01*
X424305Y68287D01*
X423558Y68948D01*
X422827Y69627D01*
X422113Y70323D01*
X421417Y71037D01*
X420738Y71768D01*
X420077Y72515D01*
X419435Y73278D01*
X418812Y74057D01*
X418208Y74851D01*
X417623Y75659D01*
X417059Y76482D01*
X416515Y77318D01*
X415992Y78167D01*
X415490Y79029D01*
X415009Y79902D01*
X414549Y80788D01*
X414112Y81684D01*
X413697Y82591D01*
X413304Y83508D01*
X412933Y84434D01*
X412586Y85369D01*
X412261Y86312D01*
X411960Y87263D01*
X411682Y88221D01*
X411428Y89185D01*
X411197Y90156D01*
X410991Y91132D01*
X410808Y92112D01*
X410650Y93097D01*
X410516Y94085D01*
X410406Y95077D01*
X410320Y96070D01*
X410259Y97066D01*
X410222Y98063D01*
X410210Y99060D01*
D12*
X422275Y135255D02*
X422275Y137795D01*
X422275Y135255D02*
X422273Y135155D01*
X422267Y135056D01*
X422257Y134956D01*
X422244Y134858D01*
X422226Y134759D01*
X422205Y134662D01*
X422180Y134566D01*
X422151Y134470D01*
X422118Y134376D01*
X422082Y134283D01*
X422042Y134192D01*
X421998Y134102D01*
X421951Y134014D01*
X421901Y133928D01*
X421847Y133844D01*
X421790Y133762D01*
X421730Y133683D01*
X421666Y133605D01*
X421600Y133531D01*
X421531Y133459D01*
X421459Y133390D01*
X421385Y133324D01*
X421307Y133260D01*
X421228Y133200D01*
X421146Y133143D01*
X421062Y133089D01*
X420976Y133039D01*
X420888Y132992D01*
X420798Y132948D01*
X420707Y132908D01*
X420614Y132872D01*
X420520Y132839D01*
X420424Y132810D01*
X420328Y132785D01*
X420231Y132764D01*
X420132Y132746D01*
X420034Y132733D01*
X419934Y132723D01*
X419835Y132717D01*
X419735Y132715D01*
X413385Y132715D01*
X413285Y132717D01*
X413186Y132723D01*
X413086Y132733D01*
X412988Y132746D01*
X412889Y132764D01*
X412792Y132785D01*
X412696Y132810D01*
X412600Y132839D01*
X412506Y132872D01*
X412413Y132908D01*
X412322Y132948D01*
X412232Y132992D01*
X412144Y133039D01*
X412058Y133089D01*
X411974Y133143D01*
X411892Y133200D01*
X411813Y133260D01*
X411735Y133324D01*
X411661Y133390D01*
X411589Y133459D01*
X411520Y133531D01*
X411454Y133605D01*
X411390Y133683D01*
X411330Y133762D01*
X411273Y133844D01*
X411219Y133928D01*
X411169Y134014D01*
X411122Y134102D01*
X411078Y134192D01*
X411038Y134283D01*
X411002Y134376D01*
X410969Y134470D01*
X410940Y134566D01*
X410915Y134662D01*
X410894Y134759D01*
X410876Y134858D01*
X410863Y134956D01*
X410853Y135056D01*
X410847Y135155D01*
X410845Y135255D01*
X410845Y137795D01*
X413385Y142277D02*
X410845Y145452D01*
X422275Y145452D01*
X422275Y142277D02*
X422275Y148627D01*
D11*
X49530Y342900D02*
X49528Y343000D01*
X49522Y343099D01*
X49512Y343199D01*
X49499Y343297D01*
X49481Y343396D01*
X49460Y343493D01*
X49435Y343589D01*
X49406Y343685D01*
X49373Y343779D01*
X49337Y343872D01*
X49297Y343963D01*
X49253Y344053D01*
X49206Y344141D01*
X49156Y344227D01*
X49102Y344311D01*
X49045Y344393D01*
X48985Y344472D01*
X48921Y344550D01*
X48855Y344624D01*
X48786Y344696D01*
X48714Y344765D01*
X48640Y344831D01*
X48562Y344895D01*
X48483Y344955D01*
X48401Y345012D01*
X48317Y345066D01*
X48231Y345116D01*
X48143Y345163D01*
X48053Y345207D01*
X47962Y345247D01*
X47869Y345283D01*
X47775Y345316D01*
X47679Y345345D01*
X47583Y345370D01*
X47486Y345391D01*
X47387Y345409D01*
X47289Y345422D01*
X47189Y345432D01*
X47090Y345438D01*
X46990Y345440D01*
X21590Y345440D02*
X21490Y345438D01*
X21391Y345432D01*
X21291Y345422D01*
X21193Y345409D01*
X21094Y345391D01*
X20997Y345370D01*
X20901Y345345D01*
X20805Y345316D01*
X20711Y345283D01*
X20618Y345247D01*
X20527Y345207D01*
X20437Y345163D01*
X20349Y345116D01*
X20263Y345066D01*
X20179Y345012D01*
X20097Y344955D01*
X20018Y344895D01*
X19940Y344831D01*
X19866Y344765D01*
X19794Y344696D01*
X19725Y344624D01*
X19659Y344550D01*
X19595Y344472D01*
X19535Y344393D01*
X19478Y344311D01*
X19424Y344227D01*
X19374Y344141D01*
X19327Y344053D01*
X19283Y343963D01*
X19243Y343872D01*
X19207Y343779D01*
X19174Y343685D01*
X19145Y343589D01*
X19120Y343493D01*
X19099Y343396D01*
X19081Y343297D01*
X19068Y343199D01*
X19058Y343099D01*
X19052Y343000D01*
X19050Y342900D01*
X19050Y261620D02*
X19052Y261520D01*
X19058Y261421D01*
X19068Y261321D01*
X19081Y261223D01*
X19099Y261124D01*
X19120Y261027D01*
X19145Y260931D01*
X19174Y260835D01*
X19207Y260741D01*
X19243Y260648D01*
X19283Y260557D01*
X19327Y260467D01*
X19374Y260379D01*
X19424Y260293D01*
X19478Y260209D01*
X19535Y260127D01*
X19595Y260048D01*
X19659Y259970D01*
X19725Y259896D01*
X19794Y259824D01*
X19866Y259755D01*
X19940Y259689D01*
X20018Y259625D01*
X20097Y259565D01*
X20179Y259508D01*
X20263Y259454D01*
X20349Y259404D01*
X20437Y259357D01*
X20527Y259313D01*
X20618Y259273D01*
X20711Y259237D01*
X20805Y259204D01*
X20901Y259175D01*
X20997Y259150D01*
X21094Y259129D01*
X21193Y259111D01*
X21291Y259098D01*
X21391Y259088D01*
X21490Y259082D01*
X21590Y259080D01*
X46990Y259080D02*
X47090Y259082D01*
X47189Y259088D01*
X47289Y259098D01*
X47387Y259111D01*
X47486Y259129D01*
X47583Y259150D01*
X47679Y259175D01*
X47775Y259204D01*
X47869Y259237D01*
X47962Y259273D01*
X48053Y259313D01*
X48143Y259357D01*
X48231Y259404D01*
X48317Y259454D01*
X48401Y259508D01*
X48483Y259565D01*
X48562Y259625D01*
X48640Y259689D01*
X48714Y259755D01*
X48786Y259824D01*
X48855Y259896D01*
X48921Y259970D01*
X48985Y260048D01*
X49045Y260127D01*
X49102Y260209D01*
X49156Y260293D01*
X49206Y260379D01*
X49253Y260467D01*
X49297Y260557D01*
X49337Y260648D01*
X49373Y260741D01*
X49406Y260835D01*
X49435Y260931D01*
X49460Y261027D01*
X49481Y261124D01*
X49499Y261223D01*
X49512Y261321D01*
X49522Y261421D01*
X49528Y261520D01*
X49530Y261620D01*
X46990Y345440D02*
X21590Y345440D01*
X49530Y342900D02*
X49530Y336550D01*
X48260Y335280D01*
X19050Y336550D02*
X19050Y342900D01*
X19050Y336550D02*
X20320Y335280D01*
X48260Y269240D02*
X49530Y267970D01*
X48260Y269240D02*
X48260Y335280D01*
X20320Y269240D02*
X19050Y267970D01*
X20320Y269240D02*
X20320Y335280D01*
X49530Y267970D02*
X49530Y261620D01*
X19050Y261620D02*
X19050Y267970D01*
X21590Y259080D02*
X46990Y259080D01*
D13*
X34290Y254762D03*
X34290Y349758D03*
D12*
X31115Y323298D02*
X42545Y323298D01*
X31115Y323298D02*
X31115Y326473D01*
X31117Y326584D01*
X31123Y326694D01*
X31132Y326805D01*
X31146Y326915D01*
X31163Y327024D01*
X31184Y327133D01*
X31209Y327241D01*
X31238Y327348D01*
X31270Y327454D01*
X31306Y327559D01*
X31346Y327662D01*
X31389Y327764D01*
X31436Y327865D01*
X31487Y327964D01*
X31540Y328061D01*
X31597Y328155D01*
X31658Y328248D01*
X31721Y328339D01*
X31788Y328428D01*
X31858Y328514D01*
X31931Y328597D01*
X32006Y328679D01*
X32084Y328757D01*
X32166Y328832D01*
X32249Y328905D01*
X32335Y328975D01*
X32424Y329042D01*
X32515Y329105D01*
X32608Y329166D01*
X32702Y329223D01*
X32799Y329276D01*
X32898Y329327D01*
X32999Y329374D01*
X33101Y329417D01*
X33204Y329457D01*
X33309Y329493D01*
X33415Y329525D01*
X33522Y329554D01*
X33630Y329579D01*
X33739Y329600D01*
X33848Y329617D01*
X33958Y329631D01*
X34069Y329640D01*
X34179Y329646D01*
X34290Y329648D01*
X34401Y329646D01*
X34511Y329640D01*
X34622Y329631D01*
X34732Y329617D01*
X34841Y329600D01*
X34950Y329579D01*
X35058Y329554D01*
X35165Y329525D01*
X35271Y329493D01*
X35376Y329457D01*
X35479Y329417D01*
X35581Y329374D01*
X35682Y329327D01*
X35781Y329276D01*
X35878Y329223D01*
X35972Y329166D01*
X36065Y329105D01*
X36156Y329042D01*
X36245Y328975D01*
X36331Y328905D01*
X36414Y328832D01*
X36496Y328757D01*
X36574Y328679D01*
X36649Y328597D01*
X36722Y328514D01*
X36792Y328428D01*
X36859Y328339D01*
X36922Y328248D01*
X36983Y328155D01*
X37040Y328061D01*
X37093Y327964D01*
X37144Y327865D01*
X37191Y327764D01*
X37234Y327662D01*
X37274Y327559D01*
X37310Y327454D01*
X37342Y327348D01*
X37371Y327241D01*
X37396Y327133D01*
X37417Y327024D01*
X37434Y326915D01*
X37448Y326805D01*
X37457Y326694D01*
X37463Y326584D01*
X37465Y326473D01*
X37465Y323298D01*
X37465Y327108D02*
X42545Y329648D01*
X33655Y334645D02*
X31115Y337820D01*
X42545Y337820D01*
X42545Y334645D02*
X42545Y340995D01*
D11*
X63500Y321310D02*
X165100Y321310D01*
X165100Y262890D02*
X63500Y262890D01*
X165100Y262890D02*
X165100Y321310D01*
X63500Y321310D02*
X63500Y302260D01*
X63500Y281940D02*
X63500Y262890D01*
X63500Y281940D02*
X63747Y281943D01*
X63995Y281952D01*
X64242Y281967D01*
X64488Y281988D01*
X64734Y282015D01*
X64979Y282048D01*
X65224Y282087D01*
X65467Y282132D01*
X65709Y282183D01*
X65950Y282240D01*
X66189Y282302D01*
X66427Y282371D01*
X66663Y282445D01*
X66897Y282525D01*
X67129Y282610D01*
X67359Y282702D01*
X67587Y282798D01*
X67812Y282901D01*
X68035Y283008D01*
X68255Y283122D01*
X68472Y283240D01*
X68687Y283364D01*
X68898Y283493D01*
X69106Y283627D01*
X69311Y283766D01*
X69512Y283910D01*
X69710Y284058D01*
X69904Y284212D01*
X70094Y284370D01*
X70280Y284533D01*
X70462Y284700D01*
X70640Y284872D01*
X70814Y285048D01*
X70984Y285228D01*
X71149Y285413D01*
X71309Y285601D01*
X71465Y285793D01*
X71617Y285989D01*
X71763Y286188D01*
X71905Y286391D01*
X72041Y286598D01*
X72173Y286807D01*
X72299Y287020D01*
X72420Y287236D01*
X72536Y287454D01*
X72646Y287676D01*
X72751Y287900D01*
X72851Y288126D01*
X72945Y288355D01*
X73033Y288586D01*
X73116Y288820D01*
X73193Y289055D01*
X73264Y289292D01*
X73330Y289530D01*
X73389Y289770D01*
X73443Y290012D01*
X73491Y290255D01*
X73533Y290498D01*
X73569Y290743D01*
X73599Y290989D01*
X73623Y291235D01*
X73641Y291482D01*
X73653Y291729D01*
X73659Y291976D01*
X73659Y292224D01*
X73653Y292471D01*
X73641Y292718D01*
X73623Y292965D01*
X73599Y293211D01*
X73569Y293457D01*
X73533Y293702D01*
X73491Y293945D01*
X73443Y294188D01*
X73389Y294430D01*
X73330Y294670D01*
X73264Y294908D01*
X73193Y295145D01*
X73116Y295380D01*
X73033Y295614D01*
X72945Y295845D01*
X72851Y296074D01*
X72751Y296300D01*
X72646Y296524D01*
X72536Y296746D01*
X72420Y296964D01*
X72299Y297180D01*
X72173Y297393D01*
X72041Y297602D01*
X71905Y297809D01*
X71763Y298012D01*
X71617Y298211D01*
X71465Y298407D01*
X71309Y298599D01*
X71149Y298787D01*
X70984Y298972D01*
X70814Y299152D01*
X70640Y299328D01*
X70462Y299500D01*
X70280Y299667D01*
X70094Y299830D01*
X69904Y299988D01*
X69710Y300142D01*
X69512Y300290D01*
X69311Y300434D01*
X69106Y300573D01*
X68898Y300707D01*
X68687Y300836D01*
X68472Y300960D01*
X68255Y301078D01*
X68035Y301192D01*
X67812Y301299D01*
X67587Y301402D01*
X67359Y301498D01*
X67129Y301590D01*
X66897Y301675D01*
X66663Y301755D01*
X66427Y301829D01*
X66189Y301898D01*
X65950Y301960D01*
X65709Y302017D01*
X65467Y302068D01*
X65224Y302113D01*
X64979Y302152D01*
X64734Y302185D01*
X64488Y302212D01*
X64242Y302233D01*
X63995Y302248D01*
X63747Y302257D01*
X63500Y302260D01*
X142134Y299212D02*
X142134Y310388D01*
X140892Y299212D02*
X143376Y299212D01*
X143376Y310388D02*
X140892Y310388D01*
X150616Y299212D02*
X153099Y299212D01*
X150616Y299212D02*
X150518Y299214D01*
X150421Y299220D01*
X150324Y299229D01*
X150227Y299243D01*
X150131Y299260D01*
X150036Y299281D01*
X149942Y299305D01*
X149848Y299334D01*
X149756Y299366D01*
X149665Y299401D01*
X149576Y299440D01*
X149488Y299483D01*
X149402Y299529D01*
X149318Y299578D01*
X149236Y299631D01*
X149156Y299686D01*
X149078Y299745D01*
X149003Y299807D01*
X148930Y299872D01*
X148860Y299940D01*
X148792Y300010D01*
X148727Y300083D01*
X148665Y300158D01*
X148606Y300236D01*
X148551Y300316D01*
X148498Y300398D01*
X148449Y300482D01*
X148403Y300568D01*
X148360Y300656D01*
X148321Y300745D01*
X148286Y300836D01*
X148254Y300928D01*
X148225Y301022D01*
X148201Y301116D01*
X148180Y301211D01*
X148163Y301307D01*
X148149Y301404D01*
X148140Y301501D01*
X148134Y301598D01*
X148132Y301696D01*
X148132Y307904D01*
X148134Y308002D01*
X148140Y308099D01*
X148149Y308196D01*
X148163Y308293D01*
X148180Y308389D01*
X148201Y308484D01*
X148225Y308578D01*
X148254Y308672D01*
X148286Y308764D01*
X148321Y308855D01*
X148360Y308944D01*
X148403Y309032D01*
X148449Y309118D01*
X148498Y309202D01*
X148551Y309284D01*
X148606Y309364D01*
X148665Y309442D01*
X148727Y309517D01*
X148792Y309590D01*
X148860Y309660D01*
X148930Y309728D01*
X149003Y309793D01*
X149078Y309855D01*
X149156Y309914D01*
X149236Y309969D01*
X149318Y310022D01*
X149402Y310071D01*
X149488Y310117D01*
X149576Y310160D01*
X149665Y310199D01*
X149756Y310234D01*
X149848Y310266D01*
X149942Y310295D01*
X150036Y310319D01*
X150131Y310340D01*
X150227Y310357D01*
X150324Y310371D01*
X150421Y310380D01*
X150518Y310386D01*
X150616Y310388D01*
X153099Y310388D01*
X157699Y307904D02*
X160803Y310388D01*
X160803Y299212D01*
X157699Y299212D02*
X163908Y299212D01*
D12*
X161600Y95800D02*
X161600Y65800D01*
X161600Y35800D01*
X161600Y5800D01*
X161600Y95800D02*
X56600Y95800D01*
X56600Y48800D01*
X56600Y5800D01*
X161600Y5800D01*
X69977Y50800D02*
X69987Y51576D01*
X70015Y52352D01*
X70063Y53126D01*
X70129Y53900D01*
X70215Y54671D01*
X70319Y55440D01*
X70443Y56206D01*
X70585Y56969D01*
X70745Y57729D01*
X70925Y58484D01*
X71123Y59234D01*
X71339Y59980D01*
X71573Y60720D01*
X71826Y61453D01*
X72096Y62181D01*
X72384Y62902D01*
X72690Y63615D01*
X73013Y64321D01*
X73354Y65018D01*
X73711Y65707D01*
X74085Y66387D01*
X74476Y67057D01*
X74883Y67718D01*
X75306Y68369D01*
X75746Y69009D01*
X76200Y69638D01*
X76670Y70255D01*
X77155Y70861D01*
X77655Y71455D01*
X78169Y72037D01*
X78697Y72605D01*
X79239Y73161D01*
X79795Y73703D01*
X80363Y74231D01*
X80945Y74745D01*
X81539Y75245D01*
X82145Y75730D01*
X82762Y76200D01*
X83391Y76654D01*
X84031Y77094D01*
X84682Y77517D01*
X85343Y77924D01*
X86013Y78315D01*
X86693Y78689D01*
X87382Y79046D01*
X88079Y79387D01*
X88785Y79710D01*
X89498Y80016D01*
X90219Y80304D01*
X90947Y80574D01*
X91680Y80827D01*
X92420Y81061D01*
X93166Y81277D01*
X93916Y81475D01*
X94671Y81655D01*
X95431Y81815D01*
X96194Y81957D01*
X96960Y82081D01*
X97729Y82185D01*
X98500Y82271D01*
X99274Y82337D01*
X100048Y82385D01*
X100824Y82413D01*
X101600Y82423D01*
X102376Y82413D01*
X103152Y82385D01*
X103926Y82337D01*
X104700Y82271D01*
X105471Y82185D01*
X106240Y82081D01*
X107006Y81957D01*
X107769Y81815D01*
X108529Y81655D01*
X109284Y81475D01*
X110034Y81277D01*
X110780Y81061D01*
X111520Y80827D01*
X112253Y80574D01*
X112981Y80304D01*
X113702Y80016D01*
X114415Y79710D01*
X115121Y79387D01*
X115818Y79046D01*
X116507Y78689D01*
X117187Y78315D01*
X117857Y77924D01*
X118518Y77517D01*
X119169Y77094D01*
X119809Y76654D01*
X120438Y76200D01*
X121055Y75730D01*
X121661Y75245D01*
X122255Y74745D01*
X122837Y74231D01*
X123405Y73703D01*
X123961Y73161D01*
X124503Y72605D01*
X125031Y72037D01*
X125545Y71455D01*
X126045Y70861D01*
X126530Y70255D01*
X127000Y69638D01*
X127454Y69009D01*
X127894Y68369D01*
X128317Y67718D01*
X128724Y67057D01*
X129115Y66387D01*
X129489Y65707D01*
X129846Y65018D01*
X130187Y64321D01*
X130510Y63615D01*
X130816Y62902D01*
X131104Y62181D01*
X131374Y61453D01*
X131627Y60720D01*
X131861Y59980D01*
X132077Y59234D01*
X132275Y58484D01*
X132455Y57729D01*
X132615Y56969D01*
X132757Y56206D01*
X132881Y55440D01*
X132985Y54671D01*
X133071Y53900D01*
X133137Y53126D01*
X133185Y52352D01*
X133213Y51576D01*
X133223Y50800D01*
X133213Y50024D01*
X133185Y49248D01*
X133137Y48474D01*
X133071Y47700D01*
X132985Y46929D01*
X132881Y46160D01*
X132757Y45394D01*
X132615Y44631D01*
X132455Y43871D01*
X132275Y43116D01*
X132077Y42366D01*
X131861Y41620D01*
X131627Y40880D01*
X131374Y40147D01*
X131104Y39419D01*
X130816Y38698D01*
X130510Y37985D01*
X130187Y37279D01*
X129846Y36582D01*
X129489Y35893D01*
X129115Y35213D01*
X128724Y34543D01*
X128317Y33882D01*
X127894Y33231D01*
X127454Y32591D01*
X127000Y31962D01*
X126530Y31345D01*
X126045Y30739D01*
X125545Y30145D01*
X125031Y29563D01*
X124503Y28995D01*
X123961Y28439D01*
X123405Y27897D01*
X122837Y27369D01*
X122255Y26855D01*
X121661Y26355D01*
X121055Y25870D01*
X120438Y25400D01*
X119809Y24946D01*
X119169Y24506D01*
X118518Y24083D01*
X117857Y23676D01*
X117187Y23285D01*
X116507Y22911D01*
X115818Y22554D01*
X115121Y22213D01*
X114415Y21890D01*
X113702Y21584D01*
X112981Y21296D01*
X112253Y21026D01*
X111520Y20773D01*
X110780Y20539D01*
X110034Y20323D01*
X109284Y20125D01*
X108529Y19945D01*
X107769Y19785D01*
X107006Y19643D01*
X106240Y19519D01*
X105471Y19415D01*
X104700Y19329D01*
X103926Y19263D01*
X103152Y19215D01*
X102376Y19187D01*
X101600Y19177D01*
X100824Y19187D01*
X100048Y19215D01*
X99274Y19263D01*
X98500Y19329D01*
X97729Y19415D01*
X96960Y19519D01*
X96194Y19643D01*
X95431Y19785D01*
X94671Y19945D01*
X93916Y20125D01*
X93166Y20323D01*
X92420Y20539D01*
X91680Y20773D01*
X90947Y21026D01*
X90219Y21296D01*
X89498Y21584D01*
X88785Y21890D01*
X88079Y22213D01*
X87382Y22554D01*
X86693Y22911D01*
X86013Y23285D01*
X85343Y23676D01*
X84682Y24083D01*
X84031Y24506D01*
X83391Y24946D01*
X82762Y25400D01*
X82145Y25870D01*
X81539Y26355D01*
X80945Y26855D01*
X80363Y27369D01*
X79795Y27897D01*
X79239Y28439D01*
X78697Y28995D01*
X78169Y29563D01*
X77655Y30145D01*
X77155Y30739D01*
X76670Y31345D01*
X76200Y31962D01*
X75746Y32591D01*
X75306Y33231D01*
X74883Y33882D01*
X74476Y34543D01*
X74085Y35213D01*
X73711Y35893D01*
X73354Y36582D01*
X73013Y37279D01*
X72690Y37985D01*
X72384Y38698D01*
X72096Y39419D01*
X71826Y40147D01*
X71573Y40880D01*
X71339Y41620D01*
X71123Y42366D01*
X70925Y43116D01*
X70745Y43871D01*
X70585Y44631D01*
X70443Y45394D01*
X70319Y46160D01*
X70215Y46929D01*
X70129Y47700D01*
X70063Y48474D01*
X70015Y49248D01*
X69987Y50024D01*
X69977Y50800D01*
X141600Y65800D02*
X161600Y65800D01*
X141600Y65800D02*
X141600Y35800D01*
X161600Y35800D01*
X74693Y50800D02*
X74701Y51460D01*
X74725Y52120D01*
X74766Y52779D01*
X74823Y53437D01*
X74895Y54094D01*
X74984Y54748D01*
X75089Y55400D01*
X75210Y56049D01*
X75347Y56695D01*
X75499Y57338D01*
X75668Y57976D01*
X75852Y58611D01*
X76051Y59240D01*
X76266Y59865D01*
X76496Y60484D01*
X76741Y61097D01*
X77001Y61704D01*
X77276Y62304D01*
X77566Y62898D01*
X77870Y63484D01*
X78189Y64062D01*
X78521Y64633D01*
X78868Y65195D01*
X79228Y65749D01*
X79601Y66293D01*
X79988Y66828D01*
X80388Y67354D01*
X80801Y67870D01*
X81226Y68375D01*
X81663Y68870D01*
X82113Y69353D01*
X82574Y69826D01*
X83047Y70287D01*
X83530Y70737D01*
X84025Y71174D01*
X84530Y71599D01*
X85046Y72012D01*
X85572Y72412D01*
X86107Y72799D01*
X86651Y73172D01*
X87205Y73532D01*
X87767Y73879D01*
X88338Y74211D01*
X88916Y74530D01*
X89502Y74834D01*
X90096Y75124D01*
X90696Y75399D01*
X91303Y75659D01*
X91916Y75904D01*
X92535Y76134D01*
X93160Y76349D01*
X93789Y76548D01*
X94424Y76732D01*
X95062Y76901D01*
X95705Y77053D01*
X96351Y77190D01*
X97000Y77311D01*
X97652Y77416D01*
X98306Y77505D01*
X98963Y77577D01*
X99621Y77634D01*
X100280Y77675D01*
X100940Y77699D01*
X101600Y77707D01*
X102260Y77699D01*
X102920Y77675D01*
X103579Y77634D01*
X104237Y77577D01*
X104894Y77505D01*
X105548Y77416D01*
X106200Y77311D01*
X106849Y77190D01*
X107495Y77053D01*
X108138Y76901D01*
X108776Y76732D01*
X109411Y76548D01*
X110040Y76349D01*
X110665Y76134D01*
X111284Y75904D01*
X111897Y75659D01*
X112504Y75399D01*
X113104Y75124D01*
X113698Y74834D01*
X114284Y74530D01*
X114862Y74211D01*
X115433Y73879D01*
X115995Y73532D01*
X116549Y73172D01*
X117093Y72799D01*
X117628Y72412D01*
X118154Y72012D01*
X118670Y71599D01*
X119175Y71174D01*
X119670Y70737D01*
X120153Y70287D01*
X120626Y69826D01*
X121087Y69353D01*
X121537Y68870D01*
X121974Y68375D01*
X122399Y67870D01*
X122812Y67354D01*
X123212Y66828D01*
X123599Y66293D01*
X123972Y65749D01*
X124332Y65195D01*
X124679Y64633D01*
X125011Y64062D01*
X125330Y63484D01*
X125634Y62898D01*
X125924Y62304D01*
X126199Y61704D01*
X126459Y61097D01*
X126704Y60484D01*
X126934Y59865D01*
X127149Y59240D01*
X127348Y58611D01*
X127532Y57976D01*
X127701Y57338D01*
X127853Y56695D01*
X127990Y56049D01*
X128111Y55400D01*
X128216Y54748D01*
X128305Y54094D01*
X128377Y53437D01*
X128434Y52779D01*
X128475Y52120D01*
X128499Y51460D01*
X128507Y50800D01*
X128499Y50140D01*
X128475Y49480D01*
X128434Y48821D01*
X128377Y48163D01*
X128305Y47506D01*
X128216Y46852D01*
X128111Y46200D01*
X127990Y45551D01*
X127853Y44905D01*
X127701Y44262D01*
X127532Y43624D01*
X127348Y42989D01*
X127149Y42360D01*
X126934Y41735D01*
X126704Y41116D01*
X126459Y40503D01*
X126199Y39896D01*
X125924Y39296D01*
X125634Y38702D01*
X125330Y38116D01*
X125011Y37538D01*
X124679Y36967D01*
X124332Y36405D01*
X123972Y35851D01*
X123599Y35307D01*
X123212Y34772D01*
X122812Y34246D01*
X122399Y33730D01*
X121974Y33225D01*
X121537Y32730D01*
X121087Y32247D01*
X120626Y31774D01*
X120153Y31313D01*
X119670Y30863D01*
X119175Y30426D01*
X118670Y30001D01*
X118154Y29588D01*
X117628Y29188D01*
X117093Y28801D01*
X116549Y28428D01*
X115995Y28068D01*
X115433Y27721D01*
X114862Y27389D01*
X114284Y27070D01*
X113698Y26766D01*
X113104Y26476D01*
X112504Y26201D01*
X111897Y25941D01*
X111284Y25696D01*
X110665Y25466D01*
X110040Y25251D01*
X109411Y25052D01*
X108776Y24868D01*
X108138Y24699D01*
X107495Y24547D01*
X106849Y24410D01*
X106200Y24289D01*
X105548Y24184D01*
X104894Y24095D01*
X104237Y24023D01*
X103579Y23966D01*
X102920Y23925D01*
X102260Y23901D01*
X101600Y23893D01*
X100940Y23901D01*
X100280Y23925D01*
X99621Y23966D01*
X98963Y24023D01*
X98306Y24095D01*
X97652Y24184D01*
X97000Y24289D01*
X96351Y24410D01*
X95705Y24547D01*
X95062Y24699D01*
X94424Y24868D01*
X93789Y25052D01*
X93160Y25251D01*
X92535Y25466D01*
X91916Y25696D01*
X91303Y25941D01*
X90696Y26201D01*
X90096Y26476D01*
X89502Y26766D01*
X88916Y27070D01*
X88338Y27389D01*
X87767Y27721D01*
X87205Y28068D01*
X86651Y28428D01*
X86107Y28801D01*
X85572Y29188D01*
X85046Y29588D01*
X84530Y30001D01*
X84025Y30426D01*
X83530Y30863D01*
X83047Y31313D01*
X82574Y31774D01*
X82113Y32247D01*
X81663Y32730D01*
X81226Y33225D01*
X80801Y33730D01*
X80388Y34246D01*
X79988Y34772D01*
X79601Y35307D01*
X79228Y35851D01*
X78868Y36405D01*
X78521Y36967D01*
X78189Y37538D01*
X77870Y38116D01*
X77566Y38702D01*
X77276Y39296D01*
X77001Y39896D01*
X76741Y40503D01*
X76496Y41116D01*
X76266Y41735D01*
X76051Y42360D01*
X75852Y42989D01*
X75668Y43624D01*
X75499Y44262D01*
X75347Y44905D01*
X75210Y45551D01*
X75089Y46200D01*
X74984Y46852D01*
X74895Y47506D01*
X74823Y48163D01*
X74766Y48821D01*
X74725Y49480D01*
X74701Y50140D01*
X74693Y50800D01*
X55600Y52800D02*
X34600Y52800D01*
X34600Y48800D01*
X56600Y48800D01*
D14*
X19304Y31044D02*
X19304Y25852D01*
X19304Y31044D02*
X19306Y31157D01*
X19312Y31270D01*
X19322Y31383D01*
X19336Y31496D01*
X19353Y31608D01*
X19375Y31719D01*
X19400Y31829D01*
X19430Y31939D01*
X19463Y32047D01*
X19500Y32154D01*
X19540Y32260D01*
X19585Y32364D01*
X19633Y32467D01*
X19684Y32568D01*
X19739Y32667D01*
X19797Y32764D01*
X19859Y32859D01*
X19924Y32952D01*
X19992Y33042D01*
X20063Y33130D01*
X20138Y33216D01*
X20215Y33299D01*
X20295Y33379D01*
X20378Y33456D01*
X20464Y33531D01*
X20552Y33602D01*
X20642Y33670D01*
X20735Y33735D01*
X20830Y33797D01*
X20927Y33855D01*
X21026Y33910D01*
X21127Y33961D01*
X21230Y34009D01*
X21334Y34054D01*
X21440Y34094D01*
X21547Y34131D01*
X21655Y34164D01*
X21765Y34194D01*
X21875Y34219D01*
X21986Y34241D01*
X22098Y34258D01*
X22211Y34272D01*
X22324Y34282D01*
X22437Y34288D01*
X22550Y34290D01*
X22663Y34288D01*
X22776Y34282D01*
X22889Y34272D01*
X23002Y34258D01*
X23114Y34241D01*
X23225Y34219D01*
X23335Y34194D01*
X23445Y34164D01*
X23553Y34131D01*
X23660Y34094D01*
X23766Y34054D01*
X23870Y34009D01*
X23973Y33961D01*
X24074Y33910D01*
X24173Y33855D01*
X24270Y33797D01*
X24365Y33735D01*
X24458Y33670D01*
X24548Y33602D01*
X24636Y33531D01*
X24722Y33456D01*
X24805Y33379D01*
X24885Y33299D01*
X24962Y33216D01*
X25037Y33130D01*
X25108Y33042D01*
X25176Y32952D01*
X25241Y32859D01*
X25303Y32764D01*
X25361Y32667D01*
X25416Y32568D01*
X25467Y32467D01*
X25515Y32364D01*
X25560Y32260D01*
X25600Y32154D01*
X25637Y32047D01*
X25670Y31939D01*
X25700Y31829D01*
X25725Y31719D01*
X25747Y31608D01*
X25764Y31496D01*
X25778Y31383D01*
X25788Y31270D01*
X25794Y31157D01*
X25796Y31044D01*
X25795Y31044D02*
X25795Y25852D01*
X25796Y25852D02*
X25794Y25739D01*
X25788Y25626D01*
X25778Y25513D01*
X25764Y25400D01*
X25747Y25288D01*
X25725Y25177D01*
X25700Y25067D01*
X25670Y24957D01*
X25637Y24849D01*
X25600Y24742D01*
X25560Y24636D01*
X25515Y24532D01*
X25467Y24429D01*
X25416Y24328D01*
X25361Y24229D01*
X25303Y24132D01*
X25241Y24037D01*
X25176Y23944D01*
X25108Y23854D01*
X25037Y23766D01*
X24962Y23680D01*
X24885Y23597D01*
X24805Y23517D01*
X24722Y23440D01*
X24636Y23365D01*
X24548Y23294D01*
X24458Y23226D01*
X24365Y23161D01*
X24270Y23099D01*
X24173Y23041D01*
X24074Y22986D01*
X23973Y22935D01*
X23870Y22887D01*
X23766Y22842D01*
X23660Y22802D01*
X23553Y22765D01*
X23445Y22732D01*
X23335Y22702D01*
X23225Y22677D01*
X23114Y22655D01*
X23002Y22638D01*
X22889Y22624D01*
X22776Y22614D01*
X22663Y22608D01*
X22550Y22606D01*
X22437Y22608D01*
X22324Y22614D01*
X22211Y22624D01*
X22098Y22638D01*
X21986Y22655D01*
X21875Y22677D01*
X21765Y22702D01*
X21655Y22732D01*
X21547Y22765D01*
X21440Y22802D01*
X21334Y22842D01*
X21230Y22887D01*
X21127Y22935D01*
X21026Y22986D01*
X20927Y23041D01*
X20830Y23099D01*
X20735Y23161D01*
X20642Y23226D01*
X20552Y23294D01*
X20464Y23365D01*
X20378Y23440D01*
X20295Y23517D01*
X20215Y23597D01*
X20138Y23680D01*
X20063Y23766D01*
X19992Y23854D01*
X19924Y23944D01*
X19859Y24037D01*
X19797Y24132D01*
X19739Y24229D01*
X19684Y24328D01*
X19633Y24429D01*
X19585Y24532D01*
X19540Y24636D01*
X19500Y24742D01*
X19463Y24849D01*
X19430Y24957D01*
X19400Y25067D01*
X19375Y25177D01*
X19353Y25288D01*
X19336Y25400D01*
X19322Y25513D01*
X19312Y25626D01*
X19306Y25739D01*
X19304Y25852D01*
X31115Y25852D02*
X31115Y34290D01*
X31115Y25852D02*
X31117Y25739D01*
X31123Y25626D01*
X31133Y25513D01*
X31147Y25400D01*
X31164Y25288D01*
X31186Y25177D01*
X31211Y25067D01*
X31241Y24957D01*
X31274Y24849D01*
X31311Y24742D01*
X31351Y24636D01*
X31396Y24532D01*
X31444Y24429D01*
X31495Y24328D01*
X31550Y24229D01*
X31608Y24132D01*
X31670Y24037D01*
X31735Y23944D01*
X31803Y23854D01*
X31874Y23766D01*
X31949Y23680D01*
X32026Y23597D01*
X32106Y23517D01*
X32189Y23440D01*
X32275Y23365D01*
X32363Y23294D01*
X32453Y23226D01*
X32546Y23161D01*
X32641Y23099D01*
X32738Y23041D01*
X32837Y22986D01*
X32938Y22935D01*
X33041Y22887D01*
X33145Y22842D01*
X33251Y22802D01*
X33358Y22765D01*
X33466Y22732D01*
X33576Y22702D01*
X33686Y22677D01*
X33797Y22655D01*
X33909Y22638D01*
X34022Y22624D01*
X34135Y22614D01*
X34248Y22608D01*
X34361Y22606D01*
X34474Y22608D01*
X34587Y22614D01*
X34700Y22624D01*
X34813Y22638D01*
X34925Y22655D01*
X35036Y22677D01*
X35146Y22702D01*
X35256Y22732D01*
X35364Y22765D01*
X35471Y22802D01*
X35577Y22842D01*
X35681Y22887D01*
X35784Y22935D01*
X35885Y22986D01*
X35984Y23041D01*
X36081Y23099D01*
X36176Y23161D01*
X36269Y23226D01*
X36359Y23294D01*
X36447Y23365D01*
X36533Y23440D01*
X36616Y23517D01*
X36696Y23597D01*
X36773Y23680D01*
X36848Y23766D01*
X36919Y23854D01*
X36987Y23944D01*
X37052Y24037D01*
X37114Y24132D01*
X37172Y24229D01*
X37227Y24328D01*
X37278Y24429D01*
X37326Y24532D01*
X37371Y24636D01*
X37411Y24742D01*
X37448Y24849D01*
X37481Y24957D01*
X37511Y25067D01*
X37536Y25177D01*
X37558Y25288D01*
X37575Y25400D01*
X37589Y25513D01*
X37599Y25626D01*
X37605Y25739D01*
X37607Y25852D01*
X37606Y25852D02*
X37606Y34290D01*
X45409Y34290D02*
X45409Y22606D01*
X42164Y34290D02*
X48655Y34290D01*
D10*
X200300Y9500D02*
X282300Y9500D01*
X282300Y122500D02*
X200300Y122500D01*
X282300Y15000D02*
X287800Y15000D01*
X282300Y15000D02*
X282300Y9500D01*
X282300Y117000D02*
X282300Y122500D01*
X282300Y117000D02*
X287800Y117000D01*
X200300Y117000D02*
X194800Y117000D01*
X200300Y117000D02*
X200300Y122500D01*
X200300Y15000D02*
X200300Y9500D01*
X200300Y15000D02*
X194800Y15000D01*
X287800Y15000D02*
X287800Y37000D01*
X287800Y85000D02*
X287800Y117000D01*
X194800Y37000D02*
X194800Y15000D01*
X194800Y85000D02*
X194800Y117000D01*
D15*
X227330Y63500D02*
X227334Y63843D01*
X227347Y64185D01*
X227368Y64528D01*
X227397Y64869D01*
X227435Y65210D01*
X227481Y65550D01*
X227536Y65888D01*
X227598Y66225D01*
X227669Y66561D01*
X227749Y66894D01*
X227836Y67226D01*
X227932Y67555D01*
X228035Y67882D01*
X228147Y68206D01*
X228266Y68528D01*
X228393Y68846D01*
X228528Y69161D01*
X228671Y69473D01*
X228822Y69781D01*
X228980Y70085D01*
X229145Y70386D01*
X229318Y70682D01*
X229497Y70974D01*
X229684Y71261D01*
X229878Y71544D01*
X230079Y71822D01*
X230287Y72095D01*
X230501Y72362D01*
X230722Y72625D01*
X230949Y72882D01*
X231182Y73133D01*
X231422Y73378D01*
X231667Y73618D01*
X231918Y73851D01*
X232175Y74078D01*
X232438Y74299D01*
X232705Y74513D01*
X232978Y74721D01*
X233256Y74922D01*
X233539Y75116D01*
X233826Y75303D01*
X234118Y75482D01*
X234414Y75655D01*
X234715Y75820D01*
X235019Y75978D01*
X235327Y76129D01*
X235639Y76272D01*
X235954Y76407D01*
X236272Y76534D01*
X236594Y76653D01*
X236918Y76765D01*
X237245Y76868D01*
X237574Y76964D01*
X237906Y77051D01*
X238239Y77131D01*
X238575Y77202D01*
X238912Y77264D01*
X239250Y77319D01*
X239590Y77365D01*
X239931Y77403D01*
X240272Y77432D01*
X240615Y77453D01*
X240957Y77466D01*
X241300Y77470D01*
X241643Y77466D01*
X241985Y77453D01*
X242328Y77432D01*
X242669Y77403D01*
X243010Y77365D01*
X243350Y77319D01*
X243688Y77264D01*
X244025Y77202D01*
X244361Y77131D01*
X244694Y77051D01*
X245026Y76964D01*
X245355Y76868D01*
X245682Y76765D01*
X246006Y76653D01*
X246328Y76534D01*
X246646Y76407D01*
X246961Y76272D01*
X247273Y76129D01*
X247581Y75978D01*
X247885Y75820D01*
X248186Y75655D01*
X248482Y75482D01*
X248774Y75303D01*
X249061Y75116D01*
X249344Y74922D01*
X249622Y74721D01*
X249895Y74513D01*
X250162Y74299D01*
X250425Y74078D01*
X250682Y73851D01*
X250933Y73618D01*
X251178Y73378D01*
X251418Y73133D01*
X251651Y72882D01*
X251878Y72625D01*
X252099Y72362D01*
X252313Y72095D01*
X252521Y71822D01*
X252722Y71544D01*
X252916Y71261D01*
X253103Y70974D01*
X253282Y70682D01*
X253455Y70386D01*
X253620Y70085D01*
X253778Y69781D01*
X253929Y69473D01*
X254072Y69161D01*
X254207Y68846D01*
X254334Y68528D01*
X254453Y68206D01*
X254565Y67882D01*
X254668Y67555D01*
X254764Y67226D01*
X254851Y66894D01*
X254931Y66561D01*
X255002Y66225D01*
X255064Y65888D01*
X255119Y65550D01*
X255165Y65210D01*
X255203Y64869D01*
X255232Y64528D01*
X255253Y64185D01*
X255266Y63843D01*
X255270Y63500D01*
X255266Y63157D01*
X255253Y62815D01*
X255232Y62472D01*
X255203Y62131D01*
X255165Y61790D01*
X255119Y61450D01*
X255064Y61112D01*
X255002Y60775D01*
X254931Y60439D01*
X254851Y60106D01*
X254764Y59774D01*
X254668Y59445D01*
X254565Y59118D01*
X254453Y58794D01*
X254334Y58472D01*
X254207Y58154D01*
X254072Y57839D01*
X253929Y57527D01*
X253778Y57219D01*
X253620Y56915D01*
X253455Y56614D01*
X253282Y56318D01*
X253103Y56026D01*
X252916Y55739D01*
X252722Y55456D01*
X252521Y55178D01*
X252313Y54905D01*
X252099Y54638D01*
X251878Y54375D01*
X251651Y54118D01*
X251418Y53867D01*
X251178Y53622D01*
X250933Y53382D01*
X250682Y53149D01*
X250425Y52922D01*
X250162Y52701D01*
X249895Y52487D01*
X249622Y52279D01*
X249344Y52078D01*
X249061Y51884D01*
X248774Y51697D01*
X248482Y51518D01*
X248186Y51345D01*
X247885Y51180D01*
X247581Y51022D01*
X247273Y50871D01*
X246961Y50728D01*
X246646Y50593D01*
X246328Y50466D01*
X246006Y50347D01*
X245682Y50235D01*
X245355Y50132D01*
X245026Y50036D01*
X244694Y49949D01*
X244361Y49869D01*
X244025Y49798D01*
X243688Y49736D01*
X243350Y49681D01*
X243010Y49635D01*
X242669Y49597D01*
X242328Y49568D01*
X241985Y49547D01*
X241643Y49534D01*
X241300Y49530D01*
X240957Y49534D01*
X240615Y49547D01*
X240272Y49568D01*
X239931Y49597D01*
X239590Y49635D01*
X239250Y49681D01*
X238912Y49736D01*
X238575Y49798D01*
X238239Y49869D01*
X237906Y49949D01*
X237574Y50036D01*
X237245Y50132D01*
X236918Y50235D01*
X236594Y50347D01*
X236272Y50466D01*
X235954Y50593D01*
X235639Y50728D01*
X235327Y50871D01*
X235019Y51022D01*
X234715Y51180D01*
X234414Y51345D01*
X234118Y51518D01*
X233826Y51697D01*
X233539Y51884D01*
X233256Y52078D01*
X232978Y52279D01*
X232705Y52487D01*
X232438Y52701D01*
X232175Y52922D01*
X231918Y53149D01*
X231667Y53382D01*
X231422Y53622D01*
X231182Y53867D01*
X230949Y54118D01*
X230722Y54375D01*
X230501Y54638D01*
X230287Y54905D01*
X230079Y55178D01*
X229878Y55456D01*
X229684Y55739D01*
X229497Y56026D01*
X229318Y56318D01*
X229145Y56614D01*
X228980Y56915D01*
X228822Y57219D01*
X228671Y57527D01*
X228528Y57839D01*
X228393Y58154D01*
X228266Y58472D01*
X228147Y58794D01*
X228035Y59118D01*
X227932Y59445D01*
X227836Y59774D01*
X227749Y60106D01*
X227669Y60439D01*
X227598Y60775D01*
X227536Y61112D01*
X227481Y61450D01*
X227435Y61790D01*
X227397Y62131D01*
X227368Y62472D01*
X227347Y62815D01*
X227334Y63157D01*
X227330Y63500D01*
X231140Y63500D02*
X231143Y63749D01*
X231152Y63999D01*
X231168Y64247D01*
X231189Y64496D01*
X231216Y64744D01*
X231250Y64991D01*
X231290Y65237D01*
X231335Y65482D01*
X231387Y65726D01*
X231444Y65969D01*
X231508Y66210D01*
X231577Y66449D01*
X231653Y66687D01*
X231734Y66923D01*
X231821Y67157D01*
X231913Y67388D01*
X232012Y67617D01*
X232115Y67844D01*
X232225Y68068D01*
X232340Y68289D01*
X232460Y68508D01*
X232585Y68723D01*
X232716Y68936D01*
X232852Y69145D01*
X232993Y69350D01*
X233139Y69552D01*
X233290Y69751D01*
X233446Y69945D01*
X233607Y70136D01*
X233772Y70323D01*
X233942Y70506D01*
X234116Y70684D01*
X234294Y70858D01*
X234477Y71028D01*
X234664Y71193D01*
X234855Y71354D01*
X235049Y71510D01*
X235248Y71661D01*
X235450Y71807D01*
X235655Y71948D01*
X235864Y72084D01*
X236077Y72215D01*
X236292Y72340D01*
X236511Y72460D01*
X236732Y72575D01*
X236956Y72685D01*
X237183Y72788D01*
X237412Y72887D01*
X237643Y72979D01*
X237877Y73066D01*
X238113Y73147D01*
X238351Y73223D01*
X238590Y73292D01*
X238831Y73356D01*
X239074Y73413D01*
X239318Y73465D01*
X239563Y73510D01*
X239809Y73550D01*
X240056Y73584D01*
X240304Y73611D01*
X240553Y73632D01*
X240801Y73648D01*
X241051Y73657D01*
X241300Y73660D01*
X241549Y73657D01*
X241799Y73648D01*
X242047Y73632D01*
X242296Y73611D01*
X242544Y73584D01*
X242791Y73550D01*
X243037Y73510D01*
X243282Y73465D01*
X243526Y73413D01*
X243769Y73356D01*
X244010Y73292D01*
X244249Y73223D01*
X244487Y73147D01*
X244723Y73066D01*
X244957Y72979D01*
X245188Y72887D01*
X245417Y72788D01*
X245644Y72685D01*
X245868Y72575D01*
X246089Y72460D01*
X246308Y72340D01*
X246523Y72215D01*
X246736Y72084D01*
X246945Y71948D01*
X247150Y71807D01*
X247352Y71661D01*
X247551Y71510D01*
X247745Y71354D01*
X247936Y71193D01*
X248123Y71028D01*
X248306Y70858D01*
X248484Y70684D01*
X248658Y70506D01*
X248828Y70323D01*
X248993Y70136D01*
X249154Y69945D01*
X249310Y69751D01*
X249461Y69552D01*
X249607Y69350D01*
X249748Y69145D01*
X249884Y68936D01*
X250015Y68723D01*
X250140Y68508D01*
X250260Y68289D01*
X250375Y68068D01*
X250485Y67844D01*
X250588Y67617D01*
X250687Y67388D01*
X250779Y67157D01*
X250866Y66923D01*
X250947Y66687D01*
X251023Y66449D01*
X251092Y66210D01*
X251156Y65969D01*
X251213Y65726D01*
X251265Y65482D01*
X251310Y65237D01*
X251350Y64991D01*
X251384Y64744D01*
X251411Y64496D01*
X251432Y64247D01*
X251448Y63999D01*
X251457Y63749D01*
X251460Y63500D01*
X251457Y63251D01*
X251448Y63001D01*
X251432Y62753D01*
X251411Y62504D01*
X251384Y62256D01*
X251350Y62009D01*
X251310Y61763D01*
X251265Y61518D01*
X251213Y61274D01*
X251156Y61031D01*
X251092Y60790D01*
X251023Y60551D01*
X250947Y60313D01*
X250866Y60077D01*
X250779Y59843D01*
X250687Y59612D01*
X250588Y59383D01*
X250485Y59156D01*
X250375Y58932D01*
X250260Y58711D01*
X250140Y58492D01*
X250015Y58277D01*
X249884Y58064D01*
X249748Y57855D01*
X249607Y57650D01*
X249461Y57448D01*
X249310Y57249D01*
X249154Y57055D01*
X248993Y56864D01*
X248828Y56677D01*
X248658Y56494D01*
X248484Y56316D01*
X248306Y56142D01*
X248123Y55972D01*
X247936Y55807D01*
X247745Y55646D01*
X247551Y55490D01*
X247352Y55339D01*
X247150Y55193D01*
X246945Y55052D01*
X246736Y54916D01*
X246523Y54785D01*
X246308Y54660D01*
X246089Y54540D01*
X245868Y54425D01*
X245644Y54315D01*
X245417Y54212D01*
X245188Y54113D01*
X244957Y54021D01*
X244723Y53934D01*
X244487Y53853D01*
X244249Y53777D01*
X244010Y53708D01*
X243769Y53644D01*
X243526Y53587D01*
X243282Y53535D01*
X243037Y53490D01*
X242791Y53450D01*
X242544Y53416D01*
X242296Y53389D01*
X242047Y53368D01*
X241799Y53352D01*
X241549Y53343D01*
X241300Y53340D01*
X241051Y53343D01*
X240801Y53352D01*
X240553Y53368D01*
X240304Y53389D01*
X240056Y53416D01*
X239809Y53450D01*
X239563Y53490D01*
X239318Y53535D01*
X239074Y53587D01*
X238831Y53644D01*
X238590Y53708D01*
X238351Y53777D01*
X238113Y53853D01*
X237877Y53934D01*
X237643Y54021D01*
X237412Y54113D01*
X237183Y54212D01*
X236956Y54315D01*
X236732Y54425D01*
X236511Y54540D01*
X236292Y54660D01*
X236077Y54785D01*
X235864Y54916D01*
X235655Y55052D01*
X235450Y55193D01*
X235248Y55339D01*
X235049Y55490D01*
X234855Y55646D01*
X234664Y55807D01*
X234477Y55972D01*
X234294Y56142D01*
X234116Y56316D01*
X233942Y56494D01*
X233772Y56677D01*
X233607Y56864D01*
X233446Y57055D01*
X233290Y57249D01*
X233139Y57448D01*
X232993Y57650D01*
X232852Y57855D01*
X232716Y58064D01*
X232585Y58277D01*
X232460Y58492D01*
X232340Y58711D01*
X232225Y58932D01*
X232115Y59156D01*
X232012Y59383D01*
X231913Y59612D01*
X231821Y59843D01*
X231734Y60077D01*
X231653Y60313D01*
X231577Y60551D01*
X231508Y60790D01*
X231444Y61031D01*
X231387Y61274D01*
X231335Y61518D01*
X231290Y61763D01*
X231250Y62009D01*
X231216Y62256D01*
X231189Y62504D01*
X231168Y62753D01*
X231152Y63001D01*
X231143Y63251D01*
X231140Y63500D01*
D16*
X204004Y34332D02*
X204002Y34241D01*
X203996Y34150D01*
X203987Y34060D01*
X203974Y33970D01*
X203957Y33880D01*
X203937Y33792D01*
X203912Y33704D01*
X203885Y33617D01*
X203853Y33532D01*
X203819Y33448D01*
X203780Y33365D01*
X203739Y33284D01*
X203694Y33205D01*
X203646Y33128D01*
X203594Y33053D01*
X203540Y32980D01*
X203483Y32909D01*
X203422Y32841D01*
X203359Y32776D01*
X203294Y32713D01*
X203226Y32652D01*
X203155Y32595D01*
X203082Y32541D01*
X203007Y32489D01*
X202930Y32441D01*
X202851Y32396D01*
X202770Y32355D01*
X202687Y32316D01*
X202603Y32282D01*
X202518Y32250D01*
X202431Y32223D01*
X202343Y32198D01*
X202255Y32178D01*
X202165Y32161D01*
X202075Y32148D01*
X201985Y32139D01*
X201894Y32133D01*
X201803Y32131D01*
X201672Y32133D01*
X201541Y32138D01*
X201410Y32148D01*
X201280Y32161D01*
X201150Y32177D01*
X201020Y32197D01*
X200891Y32221D01*
X200763Y32249D01*
X200636Y32280D01*
X200509Y32315D01*
X200384Y32353D01*
X200259Y32395D01*
X200136Y32440D01*
X200015Y32489D01*
X199894Y32541D01*
X199775Y32596D01*
X199658Y32655D01*
X199543Y32717D01*
X199429Y32783D01*
X199317Y32851D01*
X199208Y32923D01*
X199100Y32997D01*
X198994Y33075D01*
X198891Y33156D01*
X198790Y33239D01*
X198691Y33326D01*
X198595Y33415D01*
X198501Y33507D01*
X198776Y39836D02*
X198778Y39927D01*
X198784Y40018D01*
X198793Y40108D01*
X198806Y40198D01*
X198823Y40288D01*
X198843Y40376D01*
X198868Y40464D01*
X198895Y40551D01*
X198927Y40636D01*
X198961Y40720D01*
X199000Y40803D01*
X199041Y40884D01*
X199086Y40963D01*
X199134Y41040D01*
X199186Y41115D01*
X199240Y41188D01*
X199297Y41259D01*
X199358Y41327D01*
X199421Y41392D01*
X199486Y41455D01*
X199555Y41516D01*
X199625Y41573D01*
X199698Y41627D01*
X199773Y41679D01*
X199850Y41727D01*
X199929Y41772D01*
X200010Y41813D01*
X200093Y41852D01*
X200177Y41886D01*
X200262Y41918D01*
X200349Y41946D01*
X200437Y41970D01*
X200525Y41990D01*
X200615Y42007D01*
X200705Y42020D01*
X200795Y42029D01*
X200886Y42035D01*
X200977Y42037D01*
X201104Y42035D01*
X201230Y42029D01*
X201356Y42020D01*
X201482Y42006D01*
X201607Y41989D01*
X201732Y41967D01*
X201856Y41942D01*
X201979Y41914D01*
X202101Y41881D01*
X202222Y41845D01*
X202342Y41805D01*
X202461Y41761D01*
X202578Y41714D01*
X202694Y41663D01*
X202808Y41609D01*
X202921Y41551D01*
X203031Y41489D01*
X203140Y41425D01*
X203247Y41357D01*
X203351Y41286D01*
X203454Y41211D01*
X199877Y37910D02*
X199798Y37958D01*
X199721Y38010D01*
X199646Y38066D01*
X199574Y38124D01*
X199504Y38185D01*
X199437Y38249D01*
X199372Y38316D01*
X199311Y38385D01*
X199252Y38457D01*
X199196Y38531D01*
X199143Y38608D01*
X199094Y38687D01*
X199048Y38767D01*
X199005Y38850D01*
X198966Y38934D01*
X198930Y39020D01*
X198898Y39107D01*
X198870Y39195D01*
X198845Y39285D01*
X198824Y39375D01*
X198807Y39466D01*
X198793Y39558D01*
X198784Y39650D01*
X198778Y39743D01*
X198776Y39836D01*
X202904Y36258D02*
X202983Y36210D01*
X203060Y36158D01*
X203135Y36102D01*
X203207Y36044D01*
X203277Y35983D01*
X203344Y35919D01*
X203409Y35852D01*
X203470Y35783D01*
X203529Y35711D01*
X203585Y35637D01*
X203638Y35560D01*
X203687Y35481D01*
X203733Y35401D01*
X203776Y35318D01*
X203815Y35234D01*
X203851Y35148D01*
X203883Y35061D01*
X203911Y34973D01*
X203936Y34883D01*
X203957Y34793D01*
X203974Y34702D01*
X203988Y34610D01*
X203997Y34518D01*
X204003Y34425D01*
X204005Y34332D01*
X202904Y36259D02*
X199877Y37910D01*
X209894Y42037D02*
X209894Y32131D01*
X212645Y42037D02*
X207142Y42037D01*
X218855Y42037D02*
X215553Y32131D01*
X222157Y32131D02*
X218855Y42037D01*
X221331Y34608D02*
X216378Y34608D01*
X226083Y32131D02*
X226083Y42037D01*
X228835Y42037D01*
X228939Y42035D01*
X229043Y42029D01*
X229147Y42019D01*
X229250Y42006D01*
X229353Y41988D01*
X229455Y41966D01*
X229556Y41941D01*
X229656Y41912D01*
X229754Y41879D01*
X229852Y41842D01*
X229948Y41802D01*
X230042Y41758D01*
X230135Y41711D01*
X230226Y41660D01*
X230315Y41605D01*
X230402Y41548D01*
X230486Y41487D01*
X230568Y41423D01*
X230648Y41355D01*
X230725Y41285D01*
X230799Y41212D01*
X230871Y41137D01*
X230939Y41058D01*
X231005Y40977D01*
X231068Y40894D01*
X231127Y40809D01*
X231183Y40721D01*
X231235Y40631D01*
X231285Y40539D01*
X231330Y40445D01*
X231373Y40350D01*
X231411Y40253D01*
X231446Y40155D01*
X231477Y40056D01*
X231504Y39955D01*
X231528Y39854D01*
X231547Y39751D01*
X231563Y39649D01*
X231575Y39545D01*
X231583Y39441D01*
X231587Y39337D01*
X231587Y39233D01*
X231583Y39129D01*
X231575Y39025D01*
X231563Y38921D01*
X231547Y38819D01*
X231528Y38716D01*
X231504Y38615D01*
X231477Y38514D01*
X231446Y38415D01*
X231411Y38317D01*
X231373Y38220D01*
X231330Y38125D01*
X231285Y38031D01*
X231235Y37939D01*
X231183Y37849D01*
X231127Y37761D01*
X231068Y37676D01*
X231005Y37593D01*
X230939Y37512D01*
X230871Y37433D01*
X230799Y37358D01*
X230725Y37285D01*
X230648Y37215D01*
X230568Y37147D01*
X230486Y37083D01*
X230402Y37022D01*
X230315Y36965D01*
X230226Y36910D01*
X230135Y36859D01*
X230042Y36812D01*
X229948Y36768D01*
X229852Y36728D01*
X229754Y36691D01*
X229656Y36658D01*
X229556Y36629D01*
X229455Y36604D01*
X229353Y36582D01*
X229250Y36564D01*
X229147Y36551D01*
X229043Y36541D01*
X228939Y36535D01*
X228835Y36533D01*
X228835Y36534D02*
X226083Y36534D01*
X229385Y36534D02*
X231586Y32131D01*
X238377Y32131D02*
X235075Y42037D01*
X241679Y42037D02*
X238377Y32131D01*
X245565Y32131D02*
X249967Y32131D01*
X245565Y32131D02*
X245565Y42037D01*
X249967Y42037D01*
X248867Y37634D02*
X245565Y37634D01*
D11*
X315722Y136652D02*
X322072Y143002D01*
X389128Y143002D01*
X395478Y136652D01*
X395732Y15748D02*
X389382Y9398D01*
X321818Y9398D01*
X315468Y15748D01*
X398780Y53340D02*
X398780Y99060D01*
X312420Y99060D02*
X312420Y53340D01*
X395478Y101346D02*
X398780Y99060D01*
X315468Y51308D02*
X312420Y53340D01*
X395732Y51308D02*
X395732Y15748D01*
X395478Y101346D02*
X395478Y136652D01*
X315722Y136652D02*
X315722Y101092D01*
X315468Y51308D02*
X315468Y15748D01*
X395732Y51308D02*
X398780Y53340D01*
X315722Y101092D02*
X312420Y99060D01*
D12*
X411480Y14605D02*
X416560Y14605D01*
X411480Y14605D02*
X411369Y14607D01*
X411259Y14613D01*
X411148Y14622D01*
X411038Y14636D01*
X410929Y14653D01*
X410820Y14674D01*
X410712Y14699D01*
X410605Y14728D01*
X410499Y14760D01*
X410394Y14796D01*
X410291Y14836D01*
X410189Y14879D01*
X410088Y14926D01*
X409989Y14977D01*
X409893Y15030D01*
X409798Y15087D01*
X409705Y15148D01*
X409614Y15211D01*
X409525Y15278D01*
X409439Y15348D01*
X409356Y15421D01*
X409274Y15496D01*
X409196Y15574D01*
X409121Y15656D01*
X409048Y15739D01*
X408978Y15825D01*
X408911Y15914D01*
X408848Y16005D01*
X408787Y16098D01*
X408730Y16192D01*
X408677Y16289D01*
X408626Y16388D01*
X408579Y16489D01*
X408536Y16591D01*
X408496Y16694D01*
X408460Y16799D01*
X408428Y16905D01*
X408399Y17012D01*
X408374Y17120D01*
X408353Y17229D01*
X408336Y17338D01*
X408322Y17448D01*
X408313Y17559D01*
X408307Y17669D01*
X408305Y17780D01*
X408307Y17891D01*
X408313Y18001D01*
X408322Y18112D01*
X408336Y18222D01*
X408353Y18331D01*
X408374Y18440D01*
X408399Y18548D01*
X408428Y18655D01*
X408460Y18761D01*
X408496Y18866D01*
X408536Y18969D01*
X408579Y19071D01*
X408626Y19172D01*
X408677Y19271D01*
X408730Y19367D01*
X408787Y19462D01*
X408848Y19555D01*
X408911Y19646D01*
X408978Y19735D01*
X409048Y19821D01*
X409121Y19904D01*
X409196Y19986D01*
X409274Y20064D01*
X409356Y20139D01*
X409439Y20212D01*
X409525Y20282D01*
X409614Y20349D01*
X409705Y20412D01*
X409798Y20473D01*
X409893Y20530D01*
X409989Y20583D01*
X410088Y20634D01*
X410189Y20681D01*
X410291Y20724D01*
X410394Y20764D01*
X410499Y20800D01*
X410605Y20832D01*
X410712Y20861D01*
X410820Y20886D01*
X410929Y20907D01*
X411038Y20924D01*
X411148Y20938D01*
X411259Y20947D01*
X411369Y20953D01*
X411480Y20955D01*
X416560Y20955D01*
X416671Y20953D01*
X416781Y20947D01*
X416892Y20938D01*
X417002Y20924D01*
X417111Y20907D01*
X417220Y20886D01*
X417328Y20861D01*
X417435Y20832D01*
X417541Y20800D01*
X417646Y20764D01*
X417749Y20724D01*
X417851Y20681D01*
X417952Y20634D01*
X418051Y20583D01*
X418148Y20530D01*
X418242Y20473D01*
X418335Y20412D01*
X418426Y20349D01*
X418515Y20282D01*
X418601Y20212D01*
X418684Y20139D01*
X418766Y20064D01*
X418844Y19986D01*
X418919Y19904D01*
X418992Y19821D01*
X419062Y19735D01*
X419129Y19646D01*
X419192Y19555D01*
X419253Y19462D01*
X419310Y19367D01*
X419363Y19271D01*
X419414Y19172D01*
X419461Y19071D01*
X419504Y18969D01*
X419544Y18866D01*
X419580Y18761D01*
X419612Y18655D01*
X419641Y18548D01*
X419666Y18440D01*
X419687Y18331D01*
X419704Y18222D01*
X419718Y18112D01*
X419727Y18001D01*
X419733Y17891D01*
X419735Y17780D01*
X419733Y17669D01*
X419727Y17559D01*
X419718Y17448D01*
X419704Y17338D01*
X419687Y17229D01*
X419666Y17120D01*
X419641Y17012D01*
X419612Y16905D01*
X419580Y16799D01*
X419544Y16694D01*
X419504Y16591D01*
X419461Y16489D01*
X419414Y16388D01*
X419363Y16289D01*
X419310Y16192D01*
X419253Y16098D01*
X419192Y16005D01*
X419129Y15914D01*
X419062Y15825D01*
X418992Y15739D01*
X418919Y15656D01*
X418844Y15574D01*
X418766Y15496D01*
X418684Y15421D01*
X418601Y15348D01*
X418515Y15278D01*
X418426Y15211D01*
X418335Y15148D01*
X418242Y15087D01*
X418148Y15030D01*
X418051Y14977D01*
X417952Y14926D01*
X417851Y14879D01*
X417749Y14836D01*
X417646Y14796D01*
X417541Y14760D01*
X417435Y14728D01*
X417328Y14699D01*
X417220Y14674D01*
X417111Y14653D01*
X417002Y14636D01*
X416892Y14622D01*
X416781Y14613D01*
X416671Y14607D01*
X416560Y14605D01*
X419735Y26416D02*
X408305Y26416D01*
X419735Y32766D01*
X408305Y32766D01*
X407035Y42799D02*
X421005Y37719D01*
X416560Y47371D02*
X411480Y47371D01*
X411369Y47373D01*
X411259Y47379D01*
X411148Y47388D01*
X411038Y47402D01*
X410929Y47419D01*
X410820Y47440D01*
X410712Y47465D01*
X410605Y47494D01*
X410499Y47526D01*
X410394Y47562D01*
X410291Y47602D01*
X410189Y47645D01*
X410088Y47692D01*
X409989Y47743D01*
X409893Y47796D01*
X409798Y47853D01*
X409705Y47914D01*
X409614Y47977D01*
X409525Y48044D01*
X409439Y48114D01*
X409356Y48187D01*
X409274Y48262D01*
X409196Y48340D01*
X409121Y48422D01*
X409048Y48505D01*
X408978Y48591D01*
X408911Y48680D01*
X408848Y48771D01*
X408787Y48864D01*
X408730Y48958D01*
X408677Y49055D01*
X408626Y49154D01*
X408579Y49255D01*
X408536Y49357D01*
X408496Y49460D01*
X408460Y49565D01*
X408428Y49671D01*
X408399Y49778D01*
X408374Y49886D01*
X408353Y49995D01*
X408336Y50104D01*
X408322Y50214D01*
X408313Y50325D01*
X408307Y50435D01*
X408305Y50546D01*
X408307Y50657D01*
X408313Y50767D01*
X408322Y50878D01*
X408336Y50988D01*
X408353Y51097D01*
X408374Y51206D01*
X408399Y51314D01*
X408428Y51421D01*
X408460Y51527D01*
X408496Y51632D01*
X408536Y51735D01*
X408579Y51837D01*
X408626Y51938D01*
X408677Y52037D01*
X408730Y52133D01*
X408787Y52228D01*
X408848Y52321D01*
X408911Y52412D01*
X408978Y52501D01*
X409048Y52587D01*
X409121Y52670D01*
X409196Y52752D01*
X409274Y52830D01*
X409356Y52905D01*
X409439Y52978D01*
X409525Y53048D01*
X409614Y53115D01*
X409705Y53178D01*
X409798Y53239D01*
X409893Y53296D01*
X409989Y53349D01*
X410088Y53400D01*
X410189Y53447D01*
X410291Y53490D01*
X410394Y53530D01*
X410499Y53566D01*
X410605Y53598D01*
X410712Y53627D01*
X410820Y53652D01*
X410929Y53673D01*
X411038Y53690D01*
X411148Y53704D01*
X411259Y53713D01*
X411369Y53719D01*
X411480Y53721D01*
X416560Y53721D01*
X416671Y53719D01*
X416781Y53713D01*
X416892Y53704D01*
X417002Y53690D01*
X417111Y53673D01*
X417220Y53652D01*
X417328Y53627D01*
X417435Y53598D01*
X417541Y53566D01*
X417646Y53530D01*
X417749Y53490D01*
X417851Y53447D01*
X417952Y53400D01*
X418051Y53349D01*
X418148Y53296D01*
X418242Y53239D01*
X418335Y53178D01*
X418426Y53115D01*
X418515Y53048D01*
X418601Y52978D01*
X418684Y52905D01*
X418766Y52830D01*
X418844Y52752D01*
X418919Y52670D01*
X418992Y52587D01*
X419062Y52501D01*
X419129Y52412D01*
X419192Y52321D01*
X419253Y52228D01*
X419310Y52133D01*
X419363Y52037D01*
X419414Y51938D01*
X419461Y51837D01*
X419504Y51735D01*
X419544Y51632D01*
X419580Y51527D01*
X419612Y51421D01*
X419641Y51314D01*
X419666Y51206D01*
X419687Y51097D01*
X419704Y50988D01*
X419718Y50878D01*
X419727Y50767D01*
X419733Y50657D01*
X419735Y50546D01*
X419733Y50435D01*
X419727Y50325D01*
X419718Y50214D01*
X419704Y50104D01*
X419687Y49995D01*
X419666Y49886D01*
X419641Y49778D01*
X419612Y49671D01*
X419580Y49565D01*
X419544Y49460D01*
X419504Y49357D01*
X419461Y49255D01*
X419414Y49154D01*
X419363Y49055D01*
X419310Y48958D01*
X419253Y48864D01*
X419192Y48771D01*
X419129Y48680D01*
X419062Y48591D01*
X418992Y48505D01*
X418919Y48422D01*
X418844Y48340D01*
X418766Y48262D01*
X418684Y48187D01*
X418601Y48114D01*
X418515Y48044D01*
X418426Y47977D01*
X418335Y47914D01*
X418242Y47853D01*
X418148Y47796D01*
X418051Y47743D01*
X417952Y47692D01*
X417851Y47645D01*
X417749Y47602D01*
X417646Y47562D01*
X417541Y47526D01*
X417435Y47494D01*
X417328Y47465D01*
X417220Y47440D01*
X417111Y47419D01*
X417002Y47402D01*
X416892Y47388D01*
X416781Y47379D01*
X416671Y47373D01*
X416560Y47371D01*
X419735Y59207D02*
X408305Y59207D01*
X408305Y64287D01*
X413385Y64287D02*
X413385Y59207D01*
X408305Y69113D02*
X419735Y69113D01*
X408305Y69113D02*
X408305Y74193D01*
X413385Y74193D02*
X413385Y69113D01*
D11*
X294640Y327660D02*
X294740Y327662D01*
X294839Y327668D01*
X294939Y327678D01*
X295037Y327691D01*
X295136Y327709D01*
X295233Y327730D01*
X295329Y327755D01*
X295425Y327784D01*
X295519Y327817D01*
X295612Y327853D01*
X295703Y327893D01*
X295793Y327937D01*
X295881Y327984D01*
X295967Y328034D01*
X296051Y328088D01*
X296133Y328145D01*
X296212Y328205D01*
X296290Y328269D01*
X296364Y328335D01*
X296436Y328404D01*
X296505Y328476D01*
X296571Y328550D01*
X296635Y328628D01*
X296695Y328707D01*
X296752Y328789D01*
X296806Y328873D01*
X296856Y328959D01*
X296903Y329047D01*
X296947Y329137D01*
X296987Y329228D01*
X297023Y329321D01*
X297056Y329415D01*
X297085Y329511D01*
X297110Y329607D01*
X297131Y329704D01*
X297149Y329803D01*
X297162Y329901D01*
X297172Y330001D01*
X297178Y330100D01*
X297180Y330200D01*
X297180Y355600D02*
X297178Y355700D01*
X297172Y355799D01*
X297162Y355899D01*
X297149Y355997D01*
X297131Y356096D01*
X297110Y356193D01*
X297085Y356289D01*
X297056Y356385D01*
X297023Y356479D01*
X296987Y356572D01*
X296947Y356663D01*
X296903Y356753D01*
X296856Y356841D01*
X296806Y356927D01*
X296752Y357011D01*
X296695Y357093D01*
X296635Y357172D01*
X296571Y357250D01*
X296505Y357324D01*
X296436Y357396D01*
X296364Y357465D01*
X296290Y357531D01*
X296212Y357595D01*
X296133Y357655D01*
X296051Y357712D01*
X295967Y357766D01*
X295881Y357816D01*
X295793Y357863D01*
X295703Y357907D01*
X295612Y357947D01*
X295519Y357983D01*
X295425Y358016D01*
X295329Y358045D01*
X295233Y358070D01*
X295136Y358091D01*
X295037Y358109D01*
X294939Y358122D01*
X294839Y358132D01*
X294740Y358138D01*
X294640Y358140D01*
X213360Y358140D02*
X213260Y358138D01*
X213161Y358132D01*
X213061Y358122D01*
X212963Y358109D01*
X212864Y358091D01*
X212767Y358070D01*
X212671Y358045D01*
X212575Y358016D01*
X212481Y357983D01*
X212388Y357947D01*
X212297Y357907D01*
X212207Y357863D01*
X212119Y357816D01*
X212033Y357766D01*
X211949Y357712D01*
X211867Y357655D01*
X211788Y357595D01*
X211710Y357531D01*
X211636Y357465D01*
X211564Y357396D01*
X211495Y357324D01*
X211429Y357250D01*
X211365Y357172D01*
X211305Y357093D01*
X211248Y357011D01*
X211194Y356927D01*
X211144Y356841D01*
X211097Y356753D01*
X211053Y356663D01*
X211013Y356572D01*
X210977Y356479D01*
X210944Y356385D01*
X210915Y356289D01*
X210890Y356193D01*
X210869Y356096D01*
X210851Y355997D01*
X210838Y355899D01*
X210828Y355799D01*
X210822Y355700D01*
X210820Y355600D01*
X210820Y330200D02*
X210822Y330100D01*
X210828Y330001D01*
X210838Y329901D01*
X210851Y329803D01*
X210869Y329704D01*
X210890Y329607D01*
X210915Y329511D01*
X210944Y329415D01*
X210977Y329321D01*
X211013Y329228D01*
X211053Y329137D01*
X211097Y329047D01*
X211144Y328959D01*
X211194Y328873D01*
X211248Y328789D01*
X211305Y328707D01*
X211365Y328628D01*
X211429Y328550D01*
X211495Y328476D01*
X211564Y328404D01*
X211636Y328335D01*
X211710Y328269D01*
X211788Y328205D01*
X211867Y328145D01*
X211949Y328088D01*
X212033Y328034D01*
X212119Y327984D01*
X212207Y327937D01*
X212297Y327893D01*
X212388Y327853D01*
X212481Y327817D01*
X212575Y327784D01*
X212671Y327755D01*
X212767Y327730D01*
X212864Y327709D01*
X212963Y327691D01*
X213061Y327678D01*
X213161Y327668D01*
X213260Y327662D01*
X213360Y327660D01*
X297180Y330200D02*
X297180Y355600D01*
X294640Y327660D02*
X288290Y327660D01*
X287020Y328930D01*
X288290Y358140D02*
X294640Y358140D01*
X288290Y358140D02*
X287020Y356870D01*
X220980Y328930D02*
X219710Y327660D01*
X220980Y328930D02*
X287020Y328930D01*
X220980Y356870D02*
X219710Y358140D01*
X220980Y356870D02*
X287020Y356870D01*
X219710Y327660D02*
X213360Y327660D01*
X213360Y358140D02*
X219710Y358140D01*
X210820Y355600D02*
X210820Y330200D01*
D17*
X206502Y342900D03*
X301498Y342900D03*
D12*
X220428Y337185D02*
X220428Y348615D01*
X223603Y348615D01*
X223714Y348613D01*
X223824Y348607D01*
X223935Y348598D01*
X224045Y348584D01*
X224154Y348567D01*
X224263Y348546D01*
X224371Y348521D01*
X224478Y348492D01*
X224584Y348460D01*
X224689Y348424D01*
X224792Y348384D01*
X224894Y348341D01*
X224995Y348294D01*
X225094Y348243D01*
X225191Y348190D01*
X225285Y348133D01*
X225378Y348072D01*
X225469Y348009D01*
X225558Y347942D01*
X225644Y347872D01*
X225727Y347799D01*
X225809Y347724D01*
X225887Y347646D01*
X225962Y347564D01*
X226035Y347481D01*
X226105Y347395D01*
X226172Y347306D01*
X226235Y347215D01*
X226296Y347122D01*
X226353Y347027D01*
X226406Y346931D01*
X226457Y346832D01*
X226504Y346731D01*
X226547Y346629D01*
X226587Y346526D01*
X226623Y346421D01*
X226655Y346315D01*
X226684Y346208D01*
X226709Y346100D01*
X226730Y345991D01*
X226747Y345882D01*
X226761Y345772D01*
X226770Y345661D01*
X226776Y345551D01*
X226778Y345440D01*
X226776Y345329D01*
X226770Y345219D01*
X226761Y345108D01*
X226747Y344998D01*
X226730Y344889D01*
X226709Y344780D01*
X226684Y344672D01*
X226655Y344565D01*
X226623Y344459D01*
X226587Y344354D01*
X226547Y344251D01*
X226504Y344149D01*
X226457Y344048D01*
X226406Y343949D01*
X226353Y343852D01*
X226296Y343758D01*
X226235Y343665D01*
X226172Y343574D01*
X226105Y343485D01*
X226035Y343399D01*
X225962Y343316D01*
X225887Y343234D01*
X225809Y343156D01*
X225727Y343081D01*
X225644Y343008D01*
X225558Y342938D01*
X225469Y342871D01*
X225378Y342808D01*
X225285Y342747D01*
X225190Y342690D01*
X225094Y342637D01*
X224995Y342586D01*
X224894Y342539D01*
X224792Y342496D01*
X224689Y342456D01*
X224584Y342420D01*
X224478Y342388D01*
X224371Y342359D01*
X224263Y342334D01*
X224154Y342313D01*
X224045Y342296D01*
X223935Y342282D01*
X223824Y342273D01*
X223714Y342267D01*
X223603Y342265D01*
X220428Y342265D01*
X224238Y342265D02*
X226778Y337185D01*
X238126Y345758D02*
X238124Y345862D01*
X238118Y345967D01*
X238109Y346071D01*
X238096Y346174D01*
X238078Y346277D01*
X238058Y346379D01*
X238033Y346481D01*
X238005Y346581D01*
X237973Y346681D01*
X237937Y346779D01*
X237898Y346876D01*
X237856Y346971D01*
X237810Y347065D01*
X237760Y347157D01*
X237708Y347247D01*
X237652Y347335D01*
X237592Y347421D01*
X237530Y347505D01*
X237465Y347586D01*
X237397Y347665D01*
X237325Y347742D01*
X237252Y347815D01*
X237175Y347887D01*
X237096Y347955D01*
X237015Y348020D01*
X236931Y348082D01*
X236845Y348142D01*
X236757Y348198D01*
X236667Y348250D01*
X236575Y348300D01*
X236481Y348346D01*
X236386Y348388D01*
X236289Y348427D01*
X236191Y348463D01*
X236091Y348495D01*
X235991Y348523D01*
X235889Y348548D01*
X235787Y348568D01*
X235684Y348586D01*
X235581Y348599D01*
X235477Y348608D01*
X235372Y348614D01*
X235268Y348616D01*
X235268Y348615D02*
X235150Y348613D01*
X235031Y348607D01*
X234913Y348598D01*
X234796Y348585D01*
X234679Y348567D01*
X234562Y348547D01*
X234446Y348522D01*
X234331Y348494D01*
X234218Y348461D01*
X234105Y348426D01*
X233993Y348386D01*
X233883Y348344D01*
X233774Y348297D01*
X233666Y348247D01*
X233561Y348194D01*
X233457Y348137D01*
X233355Y348077D01*
X233255Y348014D01*
X233157Y347947D01*
X233061Y347878D01*
X232968Y347805D01*
X232877Y347729D01*
X232788Y347651D01*
X232702Y347569D01*
X232619Y347485D01*
X232538Y347399D01*
X232461Y347309D01*
X232386Y347218D01*
X232314Y347124D01*
X232245Y347027D01*
X232180Y346929D01*
X232117Y346828D01*
X232058Y346725D01*
X232002Y346621D01*
X231950Y346515D01*
X231901Y346407D01*
X231856Y346298D01*
X231814Y346187D01*
X231776Y346075D01*
X237173Y343536D02*
X237249Y343611D01*
X237324Y343690D01*
X237395Y343771D01*
X237464Y343855D01*
X237529Y343941D01*
X237591Y344029D01*
X237651Y344119D01*
X237707Y344211D01*
X237760Y344306D01*
X237809Y344402D01*
X237855Y344500D01*
X237898Y344599D01*
X237937Y344700D01*
X237972Y344802D01*
X238004Y344905D01*
X238032Y345009D01*
X238057Y345114D01*
X238078Y345221D01*
X238095Y345327D01*
X238108Y345434D01*
X238117Y345542D01*
X238123Y345650D01*
X238125Y345758D01*
X237173Y343535D02*
X231775Y337185D01*
X238125Y337185D01*
D11*
X203200Y257810D02*
X304800Y257810D01*
X304800Y199390D02*
X203200Y199390D01*
X304800Y199390D02*
X304800Y257810D01*
X203200Y257810D02*
X203200Y238760D01*
X203200Y218440D02*
X203200Y199390D01*
X203200Y218440D02*
X203447Y218443D01*
X203695Y218452D01*
X203942Y218467D01*
X204188Y218488D01*
X204434Y218515D01*
X204679Y218548D01*
X204924Y218587D01*
X205167Y218632D01*
X205409Y218683D01*
X205650Y218740D01*
X205889Y218802D01*
X206127Y218871D01*
X206363Y218945D01*
X206597Y219025D01*
X206829Y219110D01*
X207059Y219202D01*
X207287Y219298D01*
X207512Y219401D01*
X207735Y219508D01*
X207955Y219622D01*
X208172Y219740D01*
X208387Y219864D01*
X208598Y219993D01*
X208806Y220127D01*
X209011Y220266D01*
X209212Y220410D01*
X209410Y220558D01*
X209604Y220712D01*
X209794Y220870D01*
X209980Y221033D01*
X210162Y221200D01*
X210340Y221372D01*
X210514Y221548D01*
X210684Y221728D01*
X210849Y221913D01*
X211009Y222101D01*
X211165Y222293D01*
X211317Y222489D01*
X211463Y222688D01*
X211605Y222891D01*
X211741Y223098D01*
X211873Y223307D01*
X211999Y223520D01*
X212120Y223736D01*
X212236Y223954D01*
X212346Y224176D01*
X212451Y224400D01*
X212551Y224626D01*
X212645Y224855D01*
X212733Y225086D01*
X212816Y225320D01*
X212893Y225555D01*
X212964Y225792D01*
X213030Y226030D01*
X213089Y226270D01*
X213143Y226512D01*
X213191Y226755D01*
X213233Y226998D01*
X213269Y227243D01*
X213299Y227489D01*
X213323Y227735D01*
X213341Y227982D01*
X213353Y228229D01*
X213359Y228476D01*
X213359Y228724D01*
X213353Y228971D01*
X213341Y229218D01*
X213323Y229465D01*
X213299Y229711D01*
X213269Y229957D01*
X213233Y230202D01*
X213191Y230445D01*
X213143Y230688D01*
X213089Y230930D01*
X213030Y231170D01*
X212964Y231408D01*
X212893Y231645D01*
X212816Y231880D01*
X212733Y232114D01*
X212645Y232345D01*
X212551Y232574D01*
X212451Y232800D01*
X212346Y233024D01*
X212236Y233246D01*
X212120Y233464D01*
X211999Y233680D01*
X211873Y233893D01*
X211741Y234102D01*
X211605Y234309D01*
X211463Y234512D01*
X211317Y234711D01*
X211165Y234907D01*
X211009Y235099D01*
X210849Y235287D01*
X210684Y235472D01*
X210514Y235652D01*
X210340Y235828D01*
X210162Y236000D01*
X209980Y236167D01*
X209794Y236330D01*
X209604Y236488D01*
X209410Y236642D01*
X209212Y236790D01*
X209011Y236934D01*
X208806Y237073D01*
X208598Y237207D01*
X208387Y237336D01*
X208172Y237460D01*
X207955Y237578D01*
X207735Y237692D01*
X207512Y237799D01*
X207287Y237902D01*
X207059Y237998D01*
X206829Y238090D01*
X206597Y238175D01*
X206363Y238255D01*
X206127Y238329D01*
X205889Y238398D01*
X205650Y238460D01*
X205409Y238517D01*
X205167Y238568D01*
X204924Y238613D01*
X204679Y238652D01*
X204434Y238685D01*
X204188Y238712D01*
X203942Y238733D01*
X203695Y238748D01*
X203447Y238757D01*
X203200Y238760D01*
X269134Y235712D02*
X269134Y246888D01*
X267892Y235712D02*
X270376Y235712D01*
X270376Y246888D02*
X267892Y246888D01*
X277616Y235712D02*
X280099Y235712D01*
X277616Y235712D02*
X277518Y235714D01*
X277421Y235720D01*
X277324Y235729D01*
X277227Y235743D01*
X277131Y235760D01*
X277036Y235781D01*
X276942Y235805D01*
X276848Y235834D01*
X276756Y235866D01*
X276665Y235901D01*
X276576Y235940D01*
X276488Y235983D01*
X276402Y236029D01*
X276318Y236078D01*
X276236Y236131D01*
X276156Y236186D01*
X276078Y236245D01*
X276003Y236307D01*
X275930Y236372D01*
X275860Y236440D01*
X275792Y236510D01*
X275727Y236583D01*
X275665Y236658D01*
X275606Y236736D01*
X275551Y236816D01*
X275498Y236898D01*
X275449Y236982D01*
X275403Y237068D01*
X275360Y237156D01*
X275321Y237245D01*
X275286Y237336D01*
X275254Y237428D01*
X275225Y237522D01*
X275201Y237616D01*
X275180Y237711D01*
X275163Y237807D01*
X275149Y237904D01*
X275140Y238001D01*
X275134Y238098D01*
X275132Y238196D01*
X275132Y244404D01*
X275134Y244502D01*
X275140Y244599D01*
X275149Y244696D01*
X275163Y244793D01*
X275180Y244889D01*
X275201Y244984D01*
X275225Y245078D01*
X275254Y245172D01*
X275286Y245264D01*
X275321Y245355D01*
X275360Y245444D01*
X275403Y245532D01*
X275449Y245618D01*
X275498Y245702D01*
X275551Y245784D01*
X275606Y245864D01*
X275665Y245942D01*
X275727Y246017D01*
X275792Y246090D01*
X275860Y246160D01*
X275930Y246228D01*
X276003Y246293D01*
X276078Y246355D01*
X276156Y246414D01*
X276236Y246469D01*
X276318Y246522D01*
X276402Y246571D01*
X276488Y246617D01*
X276576Y246660D01*
X276665Y246699D01*
X276756Y246734D01*
X276848Y246766D01*
X276942Y246795D01*
X277036Y246819D01*
X277131Y246840D01*
X277227Y246857D01*
X277324Y246871D01*
X277421Y246880D01*
X277518Y246886D01*
X277616Y246888D01*
X280099Y246888D01*
X288114Y246888D02*
X288218Y246886D01*
X288323Y246880D01*
X288427Y246870D01*
X288530Y246857D01*
X288633Y246839D01*
X288736Y246818D01*
X288837Y246793D01*
X288938Y246764D01*
X289037Y246731D01*
X289135Y246695D01*
X289231Y246655D01*
X289326Y246611D01*
X289420Y246564D01*
X289511Y246514D01*
X289600Y246460D01*
X289688Y246403D01*
X289773Y246342D01*
X289856Y246278D01*
X289936Y246212D01*
X290014Y246142D01*
X290090Y246070D01*
X290162Y245994D01*
X290232Y245916D01*
X290298Y245836D01*
X290362Y245753D01*
X290423Y245668D01*
X290480Y245580D01*
X290534Y245491D01*
X290584Y245400D01*
X290631Y245306D01*
X290675Y245211D01*
X290715Y245115D01*
X290751Y245017D01*
X290784Y244918D01*
X290813Y244817D01*
X290838Y244716D01*
X290859Y244613D01*
X290877Y244510D01*
X290890Y244407D01*
X290900Y244303D01*
X290906Y244198D01*
X290908Y244094D01*
X288114Y246889D02*
X287995Y246887D01*
X287877Y246881D01*
X287758Y246871D01*
X287640Y246858D01*
X287523Y246840D01*
X287406Y246818D01*
X287290Y246793D01*
X287175Y246764D01*
X287060Y246731D01*
X286947Y246694D01*
X286836Y246654D01*
X286725Y246610D01*
X286617Y246562D01*
X286510Y246511D01*
X286404Y246456D01*
X286301Y246397D01*
X286199Y246336D01*
X286100Y246271D01*
X286002Y246202D01*
X285908Y246131D01*
X285815Y246056D01*
X285725Y245979D01*
X285638Y245898D01*
X285553Y245815D01*
X285471Y245729D01*
X285392Y245640D01*
X285316Y245549D01*
X285243Y245455D01*
X285174Y245359D01*
X285107Y245260D01*
X285044Y245160D01*
X284984Y245057D01*
X284927Y244953D01*
X284875Y244846D01*
X284825Y244738D01*
X284779Y244629D01*
X284737Y244517D01*
X284699Y244405D01*
X289977Y241921D02*
X290052Y241995D01*
X290124Y242072D01*
X290194Y242151D01*
X290261Y242233D01*
X290325Y242317D01*
X290386Y242403D01*
X290444Y242491D01*
X290499Y242582D01*
X290551Y242674D01*
X290599Y242768D01*
X290644Y242863D01*
X290686Y242961D01*
X290724Y243059D01*
X290759Y243159D01*
X290790Y243260D01*
X290817Y243362D01*
X290841Y243465D01*
X290862Y243568D01*
X290878Y243673D01*
X290891Y243778D01*
X290901Y243883D01*
X290906Y243988D01*
X290908Y244094D01*
X289976Y241921D02*
X284699Y235712D01*
X290908Y235712D01*
X210820Y317500D02*
X210822Y317600D01*
X210828Y317699D01*
X210838Y317799D01*
X210851Y317897D01*
X210869Y317996D01*
X210890Y318093D01*
X210915Y318189D01*
X210944Y318285D01*
X210977Y318379D01*
X211013Y318472D01*
X211053Y318563D01*
X211097Y318653D01*
X211144Y318741D01*
X211194Y318827D01*
X211248Y318911D01*
X211305Y318993D01*
X211365Y319072D01*
X211429Y319150D01*
X211495Y319224D01*
X211564Y319296D01*
X211636Y319365D01*
X211710Y319431D01*
X211788Y319495D01*
X211867Y319555D01*
X211949Y319612D01*
X212033Y319666D01*
X212119Y319716D01*
X212207Y319763D01*
X212297Y319807D01*
X212388Y319847D01*
X212481Y319883D01*
X212575Y319916D01*
X212671Y319945D01*
X212767Y319970D01*
X212864Y319991D01*
X212963Y320009D01*
X213061Y320022D01*
X213161Y320032D01*
X213260Y320038D01*
X213360Y320040D01*
X210820Y292100D02*
X210822Y292000D01*
X210828Y291901D01*
X210838Y291801D01*
X210851Y291703D01*
X210869Y291604D01*
X210890Y291507D01*
X210915Y291411D01*
X210944Y291315D01*
X210977Y291221D01*
X211013Y291128D01*
X211053Y291037D01*
X211097Y290947D01*
X211144Y290859D01*
X211194Y290773D01*
X211248Y290689D01*
X211305Y290607D01*
X211365Y290528D01*
X211429Y290450D01*
X211495Y290376D01*
X211564Y290304D01*
X211636Y290235D01*
X211710Y290169D01*
X211788Y290105D01*
X211867Y290045D01*
X211949Y289988D01*
X212033Y289934D01*
X212119Y289884D01*
X212207Y289837D01*
X212297Y289793D01*
X212388Y289753D01*
X212481Y289717D01*
X212575Y289684D01*
X212671Y289655D01*
X212767Y289630D01*
X212864Y289609D01*
X212963Y289591D01*
X213061Y289578D01*
X213161Y289568D01*
X213260Y289562D01*
X213360Y289560D01*
X294640Y289560D02*
X294740Y289562D01*
X294839Y289568D01*
X294939Y289578D01*
X295037Y289591D01*
X295136Y289609D01*
X295233Y289630D01*
X295329Y289655D01*
X295425Y289684D01*
X295519Y289717D01*
X295612Y289753D01*
X295703Y289793D01*
X295793Y289837D01*
X295881Y289884D01*
X295967Y289934D01*
X296051Y289988D01*
X296133Y290045D01*
X296212Y290105D01*
X296290Y290169D01*
X296364Y290235D01*
X296436Y290304D01*
X296505Y290376D01*
X296571Y290450D01*
X296635Y290528D01*
X296695Y290607D01*
X296752Y290689D01*
X296806Y290773D01*
X296856Y290859D01*
X296903Y290947D01*
X296947Y291037D01*
X296987Y291128D01*
X297023Y291221D01*
X297056Y291315D01*
X297085Y291411D01*
X297110Y291507D01*
X297131Y291604D01*
X297149Y291703D01*
X297162Y291801D01*
X297172Y291901D01*
X297178Y292000D01*
X297180Y292100D01*
X297180Y317500D02*
X297178Y317600D01*
X297172Y317699D01*
X297162Y317799D01*
X297149Y317897D01*
X297131Y317996D01*
X297110Y318093D01*
X297085Y318189D01*
X297056Y318285D01*
X297023Y318379D01*
X296987Y318472D01*
X296947Y318563D01*
X296903Y318653D01*
X296856Y318741D01*
X296806Y318827D01*
X296752Y318911D01*
X296695Y318993D01*
X296635Y319072D01*
X296571Y319150D01*
X296505Y319224D01*
X296436Y319296D01*
X296364Y319365D01*
X296290Y319431D01*
X296212Y319495D01*
X296133Y319555D01*
X296051Y319612D01*
X295967Y319666D01*
X295881Y319716D01*
X295793Y319763D01*
X295703Y319807D01*
X295612Y319847D01*
X295519Y319883D01*
X295425Y319916D01*
X295329Y319945D01*
X295233Y319970D01*
X295136Y319991D01*
X295037Y320009D01*
X294939Y320022D01*
X294839Y320032D01*
X294740Y320038D01*
X294640Y320040D01*
X210820Y317500D02*
X210820Y292100D01*
X213360Y320040D02*
X219710Y320040D01*
X220980Y318770D01*
X219710Y289560D02*
X213360Y289560D01*
X219710Y289560D02*
X220980Y290830D01*
X287020Y318770D02*
X288290Y320040D01*
X287020Y318770D02*
X220980Y318770D01*
X287020Y290830D02*
X288290Y289560D01*
X287020Y290830D02*
X220980Y290830D01*
X288290Y320040D02*
X294640Y320040D01*
X294640Y289560D02*
X288290Y289560D01*
X297180Y292100D02*
X297180Y317500D01*
D17*
X301498Y304800D03*
X206502Y304800D03*
D12*
X216535Y299085D02*
X216535Y310515D01*
X219710Y310515D01*
X219821Y310513D01*
X219931Y310507D01*
X220042Y310498D01*
X220152Y310484D01*
X220261Y310467D01*
X220370Y310446D01*
X220478Y310421D01*
X220585Y310392D01*
X220691Y310360D01*
X220796Y310324D01*
X220899Y310284D01*
X221001Y310241D01*
X221102Y310194D01*
X221201Y310143D01*
X221298Y310090D01*
X221392Y310033D01*
X221485Y309972D01*
X221576Y309909D01*
X221665Y309842D01*
X221751Y309772D01*
X221834Y309699D01*
X221916Y309624D01*
X221994Y309546D01*
X222069Y309464D01*
X222142Y309381D01*
X222212Y309295D01*
X222279Y309206D01*
X222342Y309115D01*
X222403Y309022D01*
X222460Y308927D01*
X222513Y308831D01*
X222564Y308732D01*
X222611Y308631D01*
X222654Y308529D01*
X222694Y308426D01*
X222730Y308321D01*
X222762Y308215D01*
X222791Y308108D01*
X222816Y308000D01*
X222837Y307891D01*
X222854Y307782D01*
X222868Y307672D01*
X222877Y307561D01*
X222883Y307451D01*
X222885Y307340D01*
X222883Y307229D01*
X222877Y307119D01*
X222868Y307008D01*
X222854Y306898D01*
X222837Y306789D01*
X222816Y306680D01*
X222791Y306572D01*
X222762Y306465D01*
X222730Y306359D01*
X222694Y306254D01*
X222654Y306151D01*
X222611Y306049D01*
X222564Y305948D01*
X222513Y305849D01*
X222460Y305752D01*
X222403Y305658D01*
X222342Y305565D01*
X222279Y305474D01*
X222212Y305385D01*
X222142Y305299D01*
X222069Y305216D01*
X221994Y305134D01*
X221916Y305056D01*
X221834Y304981D01*
X221751Y304908D01*
X221665Y304838D01*
X221576Y304771D01*
X221485Y304708D01*
X221392Y304647D01*
X221297Y304590D01*
X221201Y304537D01*
X221102Y304486D01*
X221001Y304439D01*
X220899Y304396D01*
X220796Y304356D01*
X220691Y304320D01*
X220585Y304288D01*
X220478Y304259D01*
X220370Y304234D01*
X220261Y304213D01*
X220152Y304196D01*
X220042Y304182D01*
X219931Y304173D01*
X219821Y304167D01*
X219710Y304165D01*
X216535Y304165D01*
X220345Y304165D02*
X222885Y299085D01*
X227882Y299085D02*
X231057Y299085D01*
X231168Y299087D01*
X231278Y299093D01*
X231389Y299102D01*
X231499Y299116D01*
X231608Y299133D01*
X231717Y299154D01*
X231825Y299179D01*
X231932Y299208D01*
X232038Y299240D01*
X232143Y299276D01*
X232246Y299316D01*
X232348Y299359D01*
X232449Y299406D01*
X232548Y299457D01*
X232644Y299510D01*
X232739Y299567D01*
X232832Y299628D01*
X232923Y299691D01*
X233012Y299758D01*
X233098Y299828D01*
X233181Y299901D01*
X233263Y299976D01*
X233341Y300054D01*
X233416Y300136D01*
X233489Y300219D01*
X233559Y300305D01*
X233626Y300394D01*
X233689Y300485D01*
X233750Y300578D01*
X233807Y300672D01*
X233860Y300769D01*
X233911Y300868D01*
X233958Y300969D01*
X234001Y301071D01*
X234041Y301174D01*
X234077Y301279D01*
X234109Y301385D01*
X234138Y301492D01*
X234163Y301600D01*
X234184Y301709D01*
X234201Y301818D01*
X234215Y301928D01*
X234224Y302039D01*
X234230Y302149D01*
X234232Y302260D01*
X234230Y302371D01*
X234224Y302481D01*
X234215Y302592D01*
X234201Y302702D01*
X234184Y302811D01*
X234163Y302920D01*
X234138Y303028D01*
X234109Y303135D01*
X234077Y303241D01*
X234041Y303346D01*
X234001Y303449D01*
X233958Y303551D01*
X233911Y303652D01*
X233860Y303751D01*
X233807Y303847D01*
X233750Y303942D01*
X233689Y304035D01*
X233626Y304126D01*
X233559Y304215D01*
X233489Y304301D01*
X233416Y304384D01*
X233341Y304466D01*
X233263Y304544D01*
X233181Y304619D01*
X233098Y304692D01*
X233012Y304762D01*
X232923Y304829D01*
X232832Y304892D01*
X232739Y304953D01*
X232645Y305010D01*
X232548Y305063D01*
X232449Y305114D01*
X232348Y305161D01*
X232246Y305204D01*
X232143Y305244D01*
X232038Y305280D01*
X231932Y305312D01*
X231825Y305341D01*
X231717Y305366D01*
X231608Y305387D01*
X231499Y305404D01*
X231389Y305418D01*
X231278Y305427D01*
X231168Y305433D01*
X231057Y305435D01*
X231692Y310515D02*
X227882Y310515D01*
X231692Y310515D02*
X231792Y310513D01*
X231891Y310507D01*
X231991Y310497D01*
X232089Y310484D01*
X232188Y310466D01*
X232285Y310445D01*
X232381Y310420D01*
X232477Y310391D01*
X232571Y310358D01*
X232664Y310322D01*
X232755Y310282D01*
X232845Y310238D01*
X232933Y310191D01*
X233019Y310141D01*
X233103Y310087D01*
X233185Y310030D01*
X233264Y309970D01*
X233342Y309906D01*
X233416Y309840D01*
X233488Y309771D01*
X233557Y309699D01*
X233623Y309625D01*
X233687Y309547D01*
X233747Y309468D01*
X233804Y309386D01*
X233858Y309302D01*
X233908Y309216D01*
X233955Y309128D01*
X233999Y309038D01*
X234039Y308947D01*
X234075Y308854D01*
X234108Y308760D01*
X234137Y308664D01*
X234162Y308568D01*
X234183Y308471D01*
X234201Y308372D01*
X234214Y308274D01*
X234224Y308174D01*
X234230Y308075D01*
X234232Y307975D01*
X234230Y307875D01*
X234224Y307776D01*
X234214Y307676D01*
X234201Y307578D01*
X234183Y307479D01*
X234162Y307382D01*
X234137Y307286D01*
X234108Y307190D01*
X234075Y307096D01*
X234039Y307003D01*
X233999Y306912D01*
X233955Y306822D01*
X233908Y306734D01*
X233858Y306648D01*
X233804Y306564D01*
X233747Y306482D01*
X233687Y306403D01*
X233623Y306325D01*
X233557Y306251D01*
X233488Y306179D01*
X233416Y306110D01*
X233342Y306044D01*
X233264Y305980D01*
X233185Y305920D01*
X233103Y305863D01*
X233019Y305809D01*
X232933Y305759D01*
X232845Y305712D01*
X232755Y305668D01*
X232664Y305628D01*
X232571Y305592D01*
X232477Y305559D01*
X232381Y305530D01*
X232285Y305505D01*
X232188Y305484D01*
X232089Y305466D01*
X231991Y305453D01*
X231891Y305443D01*
X231792Y305437D01*
X231692Y305435D01*
X229152Y305435D01*
D11*
X363220Y285750D02*
X363222Y285850D01*
X363228Y285949D01*
X363238Y286049D01*
X363251Y286147D01*
X363269Y286246D01*
X363290Y286343D01*
X363315Y286439D01*
X363344Y286535D01*
X363377Y286629D01*
X363413Y286722D01*
X363453Y286813D01*
X363497Y286903D01*
X363544Y286991D01*
X363594Y287077D01*
X363648Y287161D01*
X363705Y287243D01*
X363765Y287322D01*
X363829Y287400D01*
X363895Y287474D01*
X363964Y287546D01*
X364036Y287615D01*
X364110Y287681D01*
X364188Y287745D01*
X364267Y287805D01*
X364349Y287862D01*
X364433Y287916D01*
X364519Y287966D01*
X364607Y288013D01*
X364697Y288057D01*
X364788Y288097D01*
X364881Y288133D01*
X364975Y288166D01*
X365071Y288195D01*
X365167Y288220D01*
X365264Y288241D01*
X365363Y288259D01*
X365461Y288272D01*
X365561Y288282D01*
X365660Y288288D01*
X365760Y288290D01*
X363220Y260350D02*
X363222Y260250D01*
X363228Y260151D01*
X363238Y260051D01*
X363251Y259953D01*
X363269Y259854D01*
X363290Y259757D01*
X363315Y259661D01*
X363344Y259565D01*
X363377Y259471D01*
X363413Y259378D01*
X363453Y259287D01*
X363497Y259197D01*
X363544Y259109D01*
X363594Y259023D01*
X363648Y258939D01*
X363705Y258857D01*
X363765Y258778D01*
X363829Y258700D01*
X363895Y258626D01*
X363964Y258554D01*
X364036Y258485D01*
X364110Y258419D01*
X364188Y258355D01*
X364267Y258295D01*
X364349Y258238D01*
X364433Y258184D01*
X364519Y258134D01*
X364607Y258087D01*
X364697Y258043D01*
X364788Y258003D01*
X364881Y257967D01*
X364975Y257934D01*
X365071Y257905D01*
X365167Y257880D01*
X365264Y257859D01*
X365363Y257841D01*
X365461Y257828D01*
X365561Y257818D01*
X365660Y257812D01*
X365760Y257810D01*
X447040Y257810D02*
X447140Y257812D01*
X447239Y257818D01*
X447339Y257828D01*
X447437Y257841D01*
X447536Y257859D01*
X447633Y257880D01*
X447729Y257905D01*
X447825Y257934D01*
X447919Y257967D01*
X448012Y258003D01*
X448103Y258043D01*
X448193Y258087D01*
X448281Y258134D01*
X448367Y258184D01*
X448451Y258238D01*
X448533Y258295D01*
X448612Y258355D01*
X448690Y258419D01*
X448764Y258485D01*
X448836Y258554D01*
X448905Y258626D01*
X448971Y258700D01*
X449035Y258778D01*
X449095Y258857D01*
X449152Y258939D01*
X449206Y259023D01*
X449256Y259109D01*
X449303Y259197D01*
X449347Y259287D01*
X449387Y259378D01*
X449423Y259471D01*
X449456Y259565D01*
X449485Y259661D01*
X449510Y259757D01*
X449531Y259854D01*
X449549Y259953D01*
X449562Y260051D01*
X449572Y260151D01*
X449578Y260250D01*
X449580Y260350D01*
X449580Y285750D02*
X449578Y285850D01*
X449572Y285949D01*
X449562Y286049D01*
X449549Y286147D01*
X449531Y286246D01*
X449510Y286343D01*
X449485Y286439D01*
X449456Y286535D01*
X449423Y286629D01*
X449387Y286722D01*
X449347Y286813D01*
X449303Y286903D01*
X449256Y286991D01*
X449206Y287077D01*
X449152Y287161D01*
X449095Y287243D01*
X449035Y287322D01*
X448971Y287400D01*
X448905Y287474D01*
X448836Y287546D01*
X448764Y287615D01*
X448690Y287681D01*
X448612Y287745D01*
X448533Y287805D01*
X448451Y287862D01*
X448367Y287916D01*
X448281Y287966D01*
X448193Y288013D01*
X448103Y288057D01*
X448012Y288097D01*
X447919Y288133D01*
X447825Y288166D01*
X447729Y288195D01*
X447633Y288220D01*
X447536Y288241D01*
X447437Y288259D01*
X447339Y288272D01*
X447239Y288282D01*
X447140Y288288D01*
X447040Y288290D01*
X363220Y285750D02*
X363220Y260350D01*
X365760Y288290D02*
X372110Y288290D01*
X373380Y287020D01*
X372110Y257810D02*
X365760Y257810D01*
X372110Y257810D02*
X373380Y259080D01*
X439420Y287020D02*
X440690Y288290D01*
X439420Y287020D02*
X373380Y287020D01*
X439420Y259080D02*
X440690Y257810D01*
X439420Y259080D02*
X373380Y259080D01*
X440690Y288290D02*
X447040Y288290D01*
X447040Y257810D02*
X440690Y257810D01*
X449580Y260350D02*
X449580Y285750D01*
D17*
X453898Y273050D03*
X358902Y273050D03*
D12*
X368935Y277495D02*
X368935Y266065D01*
X368935Y277495D02*
X372110Y277495D01*
X372221Y277493D01*
X372331Y277487D01*
X372442Y277478D01*
X372552Y277464D01*
X372661Y277447D01*
X372770Y277426D01*
X372878Y277401D01*
X372985Y277372D01*
X373091Y277340D01*
X373196Y277304D01*
X373299Y277264D01*
X373401Y277221D01*
X373502Y277174D01*
X373601Y277123D01*
X373698Y277070D01*
X373792Y277013D01*
X373885Y276952D01*
X373976Y276889D01*
X374065Y276822D01*
X374151Y276752D01*
X374234Y276679D01*
X374316Y276604D01*
X374394Y276526D01*
X374469Y276444D01*
X374542Y276361D01*
X374612Y276275D01*
X374679Y276186D01*
X374742Y276095D01*
X374803Y276002D01*
X374860Y275907D01*
X374913Y275811D01*
X374964Y275712D01*
X375011Y275611D01*
X375054Y275509D01*
X375094Y275406D01*
X375130Y275301D01*
X375162Y275195D01*
X375191Y275088D01*
X375216Y274980D01*
X375237Y274871D01*
X375254Y274762D01*
X375268Y274652D01*
X375277Y274541D01*
X375283Y274431D01*
X375285Y274320D01*
X375283Y274209D01*
X375277Y274099D01*
X375268Y273988D01*
X375254Y273878D01*
X375237Y273769D01*
X375216Y273660D01*
X375191Y273552D01*
X375162Y273445D01*
X375130Y273339D01*
X375094Y273234D01*
X375054Y273131D01*
X375011Y273029D01*
X374964Y272928D01*
X374913Y272829D01*
X374860Y272732D01*
X374803Y272638D01*
X374742Y272545D01*
X374679Y272454D01*
X374612Y272365D01*
X374542Y272279D01*
X374469Y272196D01*
X374394Y272114D01*
X374316Y272036D01*
X374234Y271961D01*
X374151Y271888D01*
X374065Y271818D01*
X373976Y271751D01*
X373885Y271688D01*
X373792Y271627D01*
X373698Y271570D01*
X373601Y271517D01*
X373502Y271466D01*
X373401Y271419D01*
X373299Y271376D01*
X373196Y271336D01*
X373091Y271300D01*
X372985Y271268D01*
X372878Y271239D01*
X372770Y271214D01*
X372661Y271193D01*
X372552Y271176D01*
X372442Y271162D01*
X372331Y271153D01*
X372221Y271147D01*
X372110Y271145D01*
X368935Y271145D01*
X372745Y271145D02*
X375285Y266065D01*
X380282Y268605D02*
X382822Y277495D01*
X380282Y268605D02*
X386632Y268605D01*
X384727Y271145D02*
X384727Y266065D01*
D11*
X431800Y232410D02*
X330200Y232410D01*
X330200Y173990D02*
X431800Y173990D01*
X431800Y232410D01*
X330200Y232410D02*
X330200Y213360D01*
X330200Y193040D02*
X330200Y173990D01*
X330200Y193040D02*
X330447Y193043D01*
X330695Y193052D01*
X330942Y193067D01*
X331188Y193088D01*
X331434Y193115D01*
X331679Y193148D01*
X331924Y193187D01*
X332167Y193232D01*
X332409Y193283D01*
X332650Y193340D01*
X332889Y193402D01*
X333127Y193471D01*
X333363Y193545D01*
X333597Y193625D01*
X333829Y193710D01*
X334059Y193802D01*
X334287Y193898D01*
X334512Y194001D01*
X334735Y194108D01*
X334955Y194222D01*
X335172Y194340D01*
X335387Y194464D01*
X335598Y194593D01*
X335806Y194727D01*
X336011Y194866D01*
X336212Y195010D01*
X336410Y195158D01*
X336604Y195312D01*
X336794Y195470D01*
X336980Y195633D01*
X337162Y195800D01*
X337340Y195972D01*
X337514Y196148D01*
X337684Y196328D01*
X337849Y196513D01*
X338009Y196701D01*
X338165Y196893D01*
X338317Y197089D01*
X338463Y197288D01*
X338605Y197491D01*
X338741Y197698D01*
X338873Y197907D01*
X338999Y198120D01*
X339120Y198336D01*
X339236Y198554D01*
X339346Y198776D01*
X339451Y199000D01*
X339551Y199226D01*
X339645Y199455D01*
X339733Y199686D01*
X339816Y199920D01*
X339893Y200155D01*
X339964Y200392D01*
X340030Y200630D01*
X340089Y200870D01*
X340143Y201112D01*
X340191Y201355D01*
X340233Y201598D01*
X340269Y201843D01*
X340299Y202089D01*
X340323Y202335D01*
X340341Y202582D01*
X340353Y202829D01*
X340359Y203076D01*
X340359Y203324D01*
X340353Y203571D01*
X340341Y203818D01*
X340323Y204065D01*
X340299Y204311D01*
X340269Y204557D01*
X340233Y204802D01*
X340191Y205045D01*
X340143Y205288D01*
X340089Y205530D01*
X340030Y205770D01*
X339964Y206008D01*
X339893Y206245D01*
X339816Y206480D01*
X339733Y206714D01*
X339645Y206945D01*
X339551Y207174D01*
X339451Y207400D01*
X339346Y207624D01*
X339236Y207846D01*
X339120Y208064D01*
X338999Y208280D01*
X338873Y208493D01*
X338741Y208702D01*
X338605Y208909D01*
X338463Y209112D01*
X338317Y209311D01*
X338165Y209507D01*
X338009Y209699D01*
X337849Y209887D01*
X337684Y210072D01*
X337514Y210252D01*
X337340Y210428D01*
X337162Y210600D01*
X336980Y210767D01*
X336794Y210930D01*
X336604Y211088D01*
X336410Y211242D01*
X336212Y211390D01*
X336011Y211534D01*
X335806Y211673D01*
X335598Y211807D01*
X335387Y211936D01*
X335172Y212060D01*
X334955Y212178D01*
X334735Y212292D01*
X334512Y212399D01*
X334287Y212502D01*
X334059Y212598D01*
X333829Y212690D01*
X333597Y212775D01*
X333363Y212855D01*
X333127Y212929D01*
X332889Y212998D01*
X332650Y213060D01*
X332409Y213117D01*
X332167Y213168D01*
X331924Y213213D01*
X331679Y213252D01*
X331434Y213285D01*
X331188Y213312D01*
X330942Y213333D01*
X330695Y213348D01*
X330447Y213357D01*
X330200Y213360D01*
X396134Y210312D02*
X396134Y221488D01*
X394892Y210312D02*
X397376Y210312D01*
X397376Y221488D02*
X394892Y221488D01*
X404616Y210312D02*
X407099Y210312D01*
X404616Y210312D02*
X404518Y210314D01*
X404421Y210320D01*
X404324Y210329D01*
X404227Y210343D01*
X404131Y210360D01*
X404036Y210381D01*
X403942Y210405D01*
X403848Y210434D01*
X403756Y210466D01*
X403665Y210501D01*
X403576Y210540D01*
X403488Y210583D01*
X403402Y210629D01*
X403318Y210678D01*
X403236Y210731D01*
X403156Y210786D01*
X403078Y210845D01*
X403003Y210907D01*
X402930Y210972D01*
X402860Y211040D01*
X402792Y211110D01*
X402727Y211183D01*
X402665Y211258D01*
X402606Y211336D01*
X402551Y211416D01*
X402498Y211498D01*
X402449Y211582D01*
X402403Y211668D01*
X402360Y211756D01*
X402321Y211845D01*
X402286Y211936D01*
X402254Y212028D01*
X402225Y212122D01*
X402201Y212216D01*
X402180Y212311D01*
X402163Y212407D01*
X402149Y212504D01*
X402140Y212601D01*
X402134Y212698D01*
X402132Y212796D01*
X402132Y219004D01*
X402134Y219102D01*
X402140Y219199D01*
X402149Y219296D01*
X402163Y219393D01*
X402180Y219489D01*
X402201Y219584D01*
X402225Y219678D01*
X402254Y219772D01*
X402286Y219864D01*
X402321Y219955D01*
X402360Y220044D01*
X402403Y220132D01*
X402449Y220218D01*
X402498Y220302D01*
X402551Y220384D01*
X402606Y220464D01*
X402665Y220542D01*
X402727Y220617D01*
X402792Y220690D01*
X402860Y220760D01*
X402930Y220828D01*
X403003Y220893D01*
X403078Y220955D01*
X403156Y221014D01*
X403236Y221069D01*
X403318Y221122D01*
X403402Y221171D01*
X403488Y221217D01*
X403576Y221260D01*
X403665Y221299D01*
X403756Y221334D01*
X403848Y221366D01*
X403942Y221395D01*
X404036Y221419D01*
X404131Y221440D01*
X404227Y221457D01*
X404324Y221471D01*
X404421Y221480D01*
X404518Y221486D01*
X404616Y221488D01*
X407099Y221488D01*
X411699Y210312D02*
X414803Y210312D01*
X414914Y210314D01*
X415024Y210320D01*
X415135Y210330D01*
X415245Y210344D01*
X415354Y210361D01*
X415463Y210383D01*
X415571Y210408D01*
X415677Y210438D01*
X415783Y210471D01*
X415888Y210508D01*
X415991Y210548D01*
X416092Y210593D01*
X416192Y210640D01*
X416291Y210692D01*
X416387Y210747D01*
X416481Y210805D01*
X416573Y210866D01*
X416663Y210931D01*
X416751Y210999D01*
X416836Y211070D01*
X416918Y211144D01*
X416998Y211221D01*
X417075Y211301D01*
X417149Y211383D01*
X417220Y211468D01*
X417288Y211556D01*
X417353Y211646D01*
X417414Y211738D01*
X417472Y211832D01*
X417527Y211928D01*
X417579Y212027D01*
X417626Y212127D01*
X417671Y212228D01*
X417711Y212331D01*
X417748Y212436D01*
X417781Y212542D01*
X417811Y212648D01*
X417836Y212756D01*
X417858Y212865D01*
X417875Y212974D01*
X417889Y213084D01*
X417899Y213195D01*
X417905Y213305D01*
X417907Y213416D01*
X417905Y213527D01*
X417899Y213637D01*
X417889Y213748D01*
X417875Y213858D01*
X417858Y213967D01*
X417836Y214076D01*
X417811Y214184D01*
X417781Y214290D01*
X417748Y214396D01*
X417711Y214501D01*
X417671Y214604D01*
X417626Y214705D01*
X417579Y214805D01*
X417527Y214904D01*
X417472Y215000D01*
X417414Y215094D01*
X417353Y215186D01*
X417288Y215276D01*
X417220Y215364D01*
X417149Y215449D01*
X417075Y215531D01*
X416998Y215611D01*
X416918Y215688D01*
X416836Y215762D01*
X416751Y215833D01*
X416663Y215901D01*
X416573Y215966D01*
X416481Y216027D01*
X416387Y216085D01*
X416291Y216140D01*
X416192Y216192D01*
X416092Y216239D01*
X415991Y216284D01*
X415888Y216324D01*
X415783Y216361D01*
X415677Y216394D01*
X415571Y216424D01*
X415463Y216449D01*
X415354Y216471D01*
X415245Y216488D01*
X415135Y216502D01*
X415024Y216512D01*
X414914Y216518D01*
X414803Y216520D01*
X415424Y221488D02*
X411699Y221488D01*
X415424Y221488D02*
X415523Y221486D01*
X415621Y221480D01*
X415720Y221470D01*
X415817Y221457D01*
X415915Y221439D01*
X416011Y221418D01*
X416107Y221392D01*
X416201Y221363D01*
X416294Y221331D01*
X416386Y221294D01*
X416476Y221254D01*
X416565Y221210D01*
X416652Y221163D01*
X416737Y221113D01*
X416819Y221059D01*
X416900Y221002D01*
X416978Y220942D01*
X417054Y220878D01*
X417127Y220812D01*
X417198Y220743D01*
X417266Y220671D01*
X417330Y220596D01*
X417392Y220519D01*
X417451Y220440D01*
X417506Y220358D01*
X417559Y220274D01*
X417607Y220189D01*
X417653Y220101D01*
X417695Y220011D01*
X417733Y219920D01*
X417767Y219828D01*
X417798Y219734D01*
X417825Y219639D01*
X417849Y219543D01*
X417868Y219446D01*
X417884Y219349D01*
X417896Y219251D01*
X417904Y219152D01*
X417908Y219053D01*
X417908Y218955D01*
X417904Y218856D01*
X417896Y218757D01*
X417884Y218659D01*
X417868Y218562D01*
X417849Y218465D01*
X417825Y218369D01*
X417798Y218274D01*
X417767Y218180D01*
X417733Y218088D01*
X417695Y217997D01*
X417653Y217907D01*
X417607Y217819D01*
X417559Y217734D01*
X417506Y217650D01*
X417451Y217568D01*
X417392Y217489D01*
X417330Y217412D01*
X417266Y217337D01*
X417198Y217265D01*
X417127Y217196D01*
X417054Y217130D01*
X416978Y217066D01*
X416900Y217006D01*
X416819Y216949D01*
X416737Y216895D01*
X416652Y216845D01*
X416565Y216798D01*
X416476Y216754D01*
X416386Y216714D01*
X416294Y216677D01*
X416201Y216645D01*
X416107Y216616D01*
X416011Y216590D01*
X415915Y216569D01*
X415817Y216551D01*
X415720Y216538D01*
X415621Y216528D01*
X415523Y216522D01*
X415424Y216520D01*
X415424Y216521D02*
X412940Y216521D01*
X363220Y325120D02*
X363222Y325220D01*
X363228Y325319D01*
X363238Y325419D01*
X363251Y325517D01*
X363269Y325616D01*
X363290Y325713D01*
X363315Y325809D01*
X363344Y325905D01*
X363377Y325999D01*
X363413Y326092D01*
X363453Y326183D01*
X363497Y326273D01*
X363544Y326361D01*
X363594Y326447D01*
X363648Y326531D01*
X363705Y326613D01*
X363765Y326692D01*
X363829Y326770D01*
X363895Y326844D01*
X363964Y326916D01*
X364036Y326985D01*
X364110Y327051D01*
X364188Y327115D01*
X364267Y327175D01*
X364349Y327232D01*
X364433Y327286D01*
X364519Y327336D01*
X364607Y327383D01*
X364697Y327427D01*
X364788Y327467D01*
X364881Y327503D01*
X364975Y327536D01*
X365071Y327565D01*
X365167Y327590D01*
X365264Y327611D01*
X365363Y327629D01*
X365461Y327642D01*
X365561Y327652D01*
X365660Y327658D01*
X365760Y327660D01*
X363220Y299720D02*
X363222Y299620D01*
X363228Y299521D01*
X363238Y299421D01*
X363251Y299323D01*
X363269Y299224D01*
X363290Y299127D01*
X363315Y299031D01*
X363344Y298935D01*
X363377Y298841D01*
X363413Y298748D01*
X363453Y298657D01*
X363497Y298567D01*
X363544Y298479D01*
X363594Y298393D01*
X363648Y298309D01*
X363705Y298227D01*
X363765Y298148D01*
X363829Y298070D01*
X363895Y297996D01*
X363964Y297924D01*
X364036Y297855D01*
X364110Y297789D01*
X364188Y297725D01*
X364267Y297665D01*
X364349Y297608D01*
X364433Y297554D01*
X364519Y297504D01*
X364607Y297457D01*
X364697Y297413D01*
X364788Y297373D01*
X364881Y297337D01*
X364975Y297304D01*
X365071Y297275D01*
X365167Y297250D01*
X365264Y297229D01*
X365363Y297211D01*
X365461Y297198D01*
X365561Y297188D01*
X365660Y297182D01*
X365760Y297180D01*
X447040Y297180D02*
X447140Y297182D01*
X447239Y297188D01*
X447339Y297198D01*
X447437Y297211D01*
X447536Y297229D01*
X447633Y297250D01*
X447729Y297275D01*
X447825Y297304D01*
X447919Y297337D01*
X448012Y297373D01*
X448103Y297413D01*
X448193Y297457D01*
X448281Y297504D01*
X448367Y297554D01*
X448451Y297608D01*
X448533Y297665D01*
X448612Y297725D01*
X448690Y297789D01*
X448764Y297855D01*
X448836Y297924D01*
X448905Y297996D01*
X448971Y298070D01*
X449035Y298148D01*
X449095Y298227D01*
X449152Y298309D01*
X449206Y298393D01*
X449256Y298479D01*
X449303Y298567D01*
X449347Y298657D01*
X449387Y298748D01*
X449423Y298841D01*
X449456Y298935D01*
X449485Y299031D01*
X449510Y299127D01*
X449531Y299224D01*
X449549Y299323D01*
X449562Y299421D01*
X449572Y299521D01*
X449578Y299620D01*
X449580Y299720D01*
X449580Y325120D02*
X449578Y325220D01*
X449572Y325319D01*
X449562Y325419D01*
X449549Y325517D01*
X449531Y325616D01*
X449510Y325713D01*
X449485Y325809D01*
X449456Y325905D01*
X449423Y325999D01*
X449387Y326092D01*
X449347Y326183D01*
X449303Y326273D01*
X449256Y326361D01*
X449206Y326447D01*
X449152Y326531D01*
X449095Y326613D01*
X449035Y326692D01*
X448971Y326770D01*
X448905Y326844D01*
X448836Y326916D01*
X448764Y326985D01*
X448690Y327051D01*
X448612Y327115D01*
X448533Y327175D01*
X448451Y327232D01*
X448367Y327286D01*
X448281Y327336D01*
X448193Y327383D01*
X448103Y327427D01*
X448012Y327467D01*
X447919Y327503D01*
X447825Y327536D01*
X447729Y327565D01*
X447633Y327590D01*
X447536Y327611D01*
X447437Y327629D01*
X447339Y327642D01*
X447239Y327652D01*
X447140Y327658D01*
X447040Y327660D01*
X363220Y325120D02*
X363220Y299720D01*
X365760Y327660D02*
X372110Y327660D01*
X373380Y326390D01*
X372110Y297180D02*
X365760Y297180D01*
X372110Y297180D02*
X373380Y298450D01*
X439420Y326390D02*
X440690Y327660D01*
X439420Y326390D02*
X373380Y326390D01*
X439420Y298450D02*
X440690Y297180D01*
X439420Y298450D02*
X373380Y298450D01*
X440690Y327660D02*
X447040Y327660D01*
X447040Y297180D02*
X440690Y297180D01*
X449580Y299720D02*
X449580Y325120D01*
D17*
X453898Y312420D03*
X358902Y312420D03*
D12*
X368935Y307975D02*
X368935Y319405D01*
X372110Y319405D01*
X372221Y319403D01*
X372331Y319397D01*
X372442Y319388D01*
X372552Y319374D01*
X372661Y319357D01*
X372770Y319336D01*
X372878Y319311D01*
X372985Y319282D01*
X373091Y319250D01*
X373196Y319214D01*
X373299Y319174D01*
X373401Y319131D01*
X373502Y319084D01*
X373601Y319033D01*
X373698Y318980D01*
X373792Y318923D01*
X373885Y318862D01*
X373976Y318799D01*
X374065Y318732D01*
X374151Y318662D01*
X374234Y318589D01*
X374316Y318514D01*
X374394Y318436D01*
X374469Y318354D01*
X374542Y318271D01*
X374612Y318185D01*
X374679Y318096D01*
X374742Y318005D01*
X374803Y317912D01*
X374860Y317817D01*
X374913Y317721D01*
X374964Y317622D01*
X375011Y317521D01*
X375054Y317419D01*
X375094Y317316D01*
X375130Y317211D01*
X375162Y317105D01*
X375191Y316998D01*
X375216Y316890D01*
X375237Y316781D01*
X375254Y316672D01*
X375268Y316562D01*
X375277Y316451D01*
X375283Y316341D01*
X375285Y316230D01*
X375283Y316119D01*
X375277Y316009D01*
X375268Y315898D01*
X375254Y315788D01*
X375237Y315679D01*
X375216Y315570D01*
X375191Y315462D01*
X375162Y315355D01*
X375130Y315249D01*
X375094Y315144D01*
X375054Y315041D01*
X375011Y314939D01*
X374964Y314838D01*
X374913Y314739D01*
X374860Y314642D01*
X374803Y314548D01*
X374742Y314455D01*
X374679Y314364D01*
X374612Y314275D01*
X374542Y314189D01*
X374469Y314106D01*
X374394Y314024D01*
X374316Y313946D01*
X374234Y313871D01*
X374151Y313798D01*
X374065Y313728D01*
X373976Y313661D01*
X373885Y313598D01*
X373792Y313537D01*
X373698Y313480D01*
X373601Y313427D01*
X373502Y313376D01*
X373401Y313329D01*
X373299Y313286D01*
X373196Y313246D01*
X373091Y313210D01*
X372985Y313178D01*
X372878Y313149D01*
X372770Y313124D01*
X372661Y313103D01*
X372552Y313086D01*
X372442Y313072D01*
X372331Y313063D01*
X372221Y313057D01*
X372110Y313055D01*
X368935Y313055D01*
X372745Y313055D02*
X375285Y307975D01*
X380282Y307975D02*
X384092Y307975D01*
X384192Y307977D01*
X384291Y307983D01*
X384391Y307993D01*
X384489Y308006D01*
X384588Y308024D01*
X384685Y308045D01*
X384781Y308070D01*
X384877Y308099D01*
X384971Y308132D01*
X385064Y308168D01*
X385155Y308208D01*
X385245Y308252D01*
X385333Y308299D01*
X385419Y308349D01*
X385503Y308403D01*
X385585Y308460D01*
X385664Y308520D01*
X385742Y308584D01*
X385816Y308650D01*
X385888Y308719D01*
X385957Y308791D01*
X386023Y308865D01*
X386087Y308943D01*
X386147Y309022D01*
X386204Y309104D01*
X386258Y309188D01*
X386308Y309274D01*
X386355Y309362D01*
X386399Y309452D01*
X386439Y309543D01*
X386475Y309636D01*
X386508Y309730D01*
X386537Y309826D01*
X386562Y309922D01*
X386583Y310019D01*
X386601Y310118D01*
X386614Y310216D01*
X386624Y310316D01*
X386630Y310415D01*
X386632Y310515D01*
X386632Y311785D01*
X386630Y311885D01*
X386624Y311984D01*
X386614Y312084D01*
X386601Y312182D01*
X386583Y312281D01*
X386562Y312378D01*
X386537Y312474D01*
X386508Y312570D01*
X386475Y312664D01*
X386439Y312757D01*
X386399Y312848D01*
X386355Y312938D01*
X386308Y313026D01*
X386258Y313112D01*
X386204Y313196D01*
X386147Y313278D01*
X386087Y313357D01*
X386023Y313435D01*
X385957Y313509D01*
X385888Y313581D01*
X385816Y313650D01*
X385742Y313716D01*
X385664Y313780D01*
X385585Y313840D01*
X385503Y313897D01*
X385419Y313951D01*
X385333Y314001D01*
X385245Y314048D01*
X385155Y314092D01*
X385064Y314132D01*
X384971Y314168D01*
X384877Y314201D01*
X384781Y314230D01*
X384685Y314255D01*
X384588Y314276D01*
X384489Y314294D01*
X384391Y314307D01*
X384291Y314317D01*
X384192Y314323D01*
X384092Y314325D01*
X380282Y314325D01*
X380282Y319405D01*
X386632Y319405D01*
D11*
X363220Y360680D02*
X363222Y360780D01*
X363228Y360879D01*
X363238Y360979D01*
X363251Y361077D01*
X363269Y361176D01*
X363290Y361273D01*
X363315Y361369D01*
X363344Y361465D01*
X363377Y361559D01*
X363413Y361652D01*
X363453Y361743D01*
X363497Y361833D01*
X363544Y361921D01*
X363594Y362007D01*
X363648Y362091D01*
X363705Y362173D01*
X363765Y362252D01*
X363829Y362330D01*
X363895Y362404D01*
X363964Y362476D01*
X364036Y362545D01*
X364110Y362611D01*
X364188Y362675D01*
X364267Y362735D01*
X364349Y362792D01*
X364433Y362846D01*
X364519Y362896D01*
X364607Y362943D01*
X364697Y362987D01*
X364788Y363027D01*
X364881Y363063D01*
X364975Y363096D01*
X365071Y363125D01*
X365167Y363150D01*
X365264Y363171D01*
X365363Y363189D01*
X365461Y363202D01*
X365561Y363212D01*
X365660Y363218D01*
X365760Y363220D01*
X363220Y335280D02*
X363222Y335180D01*
X363228Y335081D01*
X363238Y334981D01*
X363251Y334883D01*
X363269Y334784D01*
X363290Y334687D01*
X363315Y334591D01*
X363344Y334495D01*
X363377Y334401D01*
X363413Y334308D01*
X363453Y334217D01*
X363497Y334127D01*
X363544Y334039D01*
X363594Y333953D01*
X363648Y333869D01*
X363705Y333787D01*
X363765Y333708D01*
X363829Y333630D01*
X363895Y333556D01*
X363964Y333484D01*
X364036Y333415D01*
X364110Y333349D01*
X364188Y333285D01*
X364267Y333225D01*
X364349Y333168D01*
X364433Y333114D01*
X364519Y333064D01*
X364607Y333017D01*
X364697Y332973D01*
X364788Y332933D01*
X364881Y332897D01*
X364975Y332864D01*
X365071Y332835D01*
X365167Y332810D01*
X365264Y332789D01*
X365363Y332771D01*
X365461Y332758D01*
X365561Y332748D01*
X365660Y332742D01*
X365760Y332740D01*
X447040Y332740D02*
X447140Y332742D01*
X447239Y332748D01*
X447339Y332758D01*
X447437Y332771D01*
X447536Y332789D01*
X447633Y332810D01*
X447729Y332835D01*
X447825Y332864D01*
X447919Y332897D01*
X448012Y332933D01*
X448103Y332973D01*
X448193Y333017D01*
X448281Y333064D01*
X448367Y333114D01*
X448451Y333168D01*
X448533Y333225D01*
X448612Y333285D01*
X448690Y333349D01*
X448764Y333415D01*
X448836Y333484D01*
X448905Y333556D01*
X448971Y333630D01*
X449035Y333708D01*
X449095Y333787D01*
X449152Y333869D01*
X449206Y333953D01*
X449256Y334039D01*
X449303Y334127D01*
X449347Y334217D01*
X449387Y334308D01*
X449423Y334401D01*
X449456Y334495D01*
X449485Y334591D01*
X449510Y334687D01*
X449531Y334784D01*
X449549Y334883D01*
X449562Y334981D01*
X449572Y335081D01*
X449578Y335180D01*
X449580Y335280D01*
X449580Y360680D02*
X449578Y360780D01*
X449572Y360879D01*
X449562Y360979D01*
X449549Y361077D01*
X449531Y361176D01*
X449510Y361273D01*
X449485Y361369D01*
X449456Y361465D01*
X449423Y361559D01*
X449387Y361652D01*
X449347Y361743D01*
X449303Y361833D01*
X449256Y361921D01*
X449206Y362007D01*
X449152Y362091D01*
X449095Y362173D01*
X449035Y362252D01*
X448971Y362330D01*
X448905Y362404D01*
X448836Y362476D01*
X448764Y362545D01*
X448690Y362611D01*
X448612Y362675D01*
X448533Y362735D01*
X448451Y362792D01*
X448367Y362846D01*
X448281Y362896D01*
X448193Y362943D01*
X448103Y362987D01*
X448012Y363027D01*
X447919Y363063D01*
X447825Y363096D01*
X447729Y363125D01*
X447633Y363150D01*
X447536Y363171D01*
X447437Y363189D01*
X447339Y363202D01*
X447239Y363212D01*
X447140Y363218D01*
X447040Y363220D01*
X363220Y360680D02*
X363220Y335280D01*
X365760Y363220D02*
X372110Y363220D01*
X373380Y361950D01*
X372110Y332740D02*
X365760Y332740D01*
X372110Y332740D02*
X373380Y334010D01*
X439420Y361950D02*
X440690Y363220D01*
X439420Y361950D02*
X373380Y361950D01*
X439420Y334010D02*
X440690Y332740D01*
X439420Y334010D02*
X373380Y334010D01*
X440690Y363220D02*
X447040Y363220D01*
X447040Y332740D02*
X440690Y332740D01*
X449580Y335280D02*
X449580Y360680D01*
D17*
X453898Y347980D03*
X358902Y347980D03*
D12*
X368935Y342265D02*
X368935Y353695D01*
X372110Y353695D01*
X372221Y353693D01*
X372331Y353687D01*
X372442Y353678D01*
X372552Y353664D01*
X372661Y353647D01*
X372770Y353626D01*
X372878Y353601D01*
X372985Y353572D01*
X373091Y353540D01*
X373196Y353504D01*
X373299Y353464D01*
X373401Y353421D01*
X373502Y353374D01*
X373601Y353323D01*
X373698Y353270D01*
X373792Y353213D01*
X373885Y353152D01*
X373976Y353089D01*
X374065Y353022D01*
X374151Y352952D01*
X374234Y352879D01*
X374316Y352804D01*
X374394Y352726D01*
X374469Y352644D01*
X374542Y352561D01*
X374612Y352475D01*
X374679Y352386D01*
X374742Y352295D01*
X374803Y352202D01*
X374860Y352107D01*
X374913Y352011D01*
X374964Y351912D01*
X375011Y351811D01*
X375054Y351709D01*
X375094Y351606D01*
X375130Y351501D01*
X375162Y351395D01*
X375191Y351288D01*
X375216Y351180D01*
X375237Y351071D01*
X375254Y350962D01*
X375268Y350852D01*
X375277Y350741D01*
X375283Y350631D01*
X375285Y350520D01*
X375283Y350409D01*
X375277Y350299D01*
X375268Y350188D01*
X375254Y350078D01*
X375237Y349969D01*
X375216Y349860D01*
X375191Y349752D01*
X375162Y349645D01*
X375130Y349539D01*
X375094Y349434D01*
X375054Y349331D01*
X375011Y349229D01*
X374964Y349128D01*
X374913Y349029D01*
X374860Y348932D01*
X374803Y348838D01*
X374742Y348745D01*
X374679Y348654D01*
X374612Y348565D01*
X374542Y348479D01*
X374469Y348396D01*
X374394Y348314D01*
X374316Y348236D01*
X374234Y348161D01*
X374151Y348088D01*
X374065Y348018D01*
X373976Y347951D01*
X373885Y347888D01*
X373792Y347827D01*
X373698Y347770D01*
X373601Y347717D01*
X373502Y347666D01*
X373401Y347619D01*
X373299Y347576D01*
X373196Y347536D01*
X373091Y347500D01*
X372985Y347468D01*
X372878Y347439D01*
X372770Y347414D01*
X372661Y347393D01*
X372552Y347376D01*
X372442Y347362D01*
X372331Y347353D01*
X372221Y347347D01*
X372110Y347345D01*
X368935Y347345D01*
X372745Y347345D02*
X375285Y342265D01*
X380282Y348615D02*
X384092Y348615D01*
X384192Y348613D01*
X384291Y348607D01*
X384391Y348597D01*
X384489Y348584D01*
X384588Y348566D01*
X384685Y348545D01*
X384781Y348520D01*
X384877Y348491D01*
X384971Y348458D01*
X385064Y348422D01*
X385155Y348382D01*
X385245Y348338D01*
X385333Y348291D01*
X385419Y348241D01*
X385503Y348187D01*
X385585Y348130D01*
X385664Y348070D01*
X385742Y348006D01*
X385816Y347940D01*
X385888Y347871D01*
X385957Y347799D01*
X386023Y347725D01*
X386087Y347647D01*
X386147Y347568D01*
X386204Y347486D01*
X386258Y347402D01*
X386308Y347316D01*
X386355Y347228D01*
X386399Y347138D01*
X386439Y347047D01*
X386475Y346954D01*
X386508Y346860D01*
X386537Y346764D01*
X386562Y346668D01*
X386583Y346571D01*
X386601Y346472D01*
X386614Y346374D01*
X386624Y346274D01*
X386630Y346175D01*
X386632Y346075D01*
X386632Y345440D01*
X386630Y345329D01*
X386624Y345219D01*
X386615Y345108D01*
X386601Y344998D01*
X386584Y344889D01*
X386563Y344780D01*
X386538Y344672D01*
X386509Y344565D01*
X386477Y344459D01*
X386441Y344354D01*
X386401Y344251D01*
X386358Y344149D01*
X386311Y344048D01*
X386260Y343949D01*
X386207Y343852D01*
X386150Y343758D01*
X386089Y343665D01*
X386026Y343574D01*
X385959Y343485D01*
X385889Y343399D01*
X385816Y343316D01*
X385741Y343234D01*
X385663Y343156D01*
X385581Y343081D01*
X385498Y343008D01*
X385412Y342938D01*
X385323Y342871D01*
X385232Y342808D01*
X385139Y342747D01*
X385044Y342690D01*
X384948Y342637D01*
X384849Y342586D01*
X384748Y342539D01*
X384646Y342496D01*
X384543Y342456D01*
X384438Y342420D01*
X384332Y342388D01*
X384225Y342359D01*
X384117Y342334D01*
X384008Y342313D01*
X383899Y342296D01*
X383789Y342282D01*
X383678Y342273D01*
X383568Y342267D01*
X383457Y342265D01*
X383346Y342267D01*
X383236Y342273D01*
X383125Y342282D01*
X383015Y342296D01*
X382906Y342313D01*
X382797Y342334D01*
X382689Y342359D01*
X382582Y342388D01*
X382476Y342420D01*
X382371Y342456D01*
X382268Y342496D01*
X382166Y342539D01*
X382065Y342586D01*
X381966Y342637D01*
X381870Y342690D01*
X381775Y342747D01*
X381682Y342808D01*
X381591Y342871D01*
X381502Y342938D01*
X381416Y343008D01*
X381333Y343081D01*
X381251Y343156D01*
X381173Y343234D01*
X381098Y343316D01*
X381025Y343399D01*
X380955Y343485D01*
X380888Y343574D01*
X380825Y343665D01*
X380764Y343758D01*
X380707Y343853D01*
X380654Y343949D01*
X380603Y344048D01*
X380556Y344149D01*
X380513Y344251D01*
X380473Y344354D01*
X380437Y344459D01*
X380405Y344565D01*
X380376Y344672D01*
X380351Y344780D01*
X380330Y344889D01*
X380313Y344998D01*
X380299Y345108D01*
X380290Y345219D01*
X380284Y345329D01*
X380282Y345440D01*
X380282Y348615D01*
X380284Y348755D01*
X380290Y348895D01*
X380299Y349035D01*
X380313Y349174D01*
X380330Y349313D01*
X380351Y349451D01*
X380376Y349589D01*
X380405Y349726D01*
X380437Y349862D01*
X380474Y349997D01*
X380514Y350131D01*
X380557Y350264D01*
X380605Y350396D01*
X380655Y350527D01*
X380710Y350656D01*
X380768Y350783D01*
X380829Y350909D01*
X380894Y351033D01*
X380963Y351155D01*
X381034Y351275D01*
X381109Y351393D01*
X381187Y351510D01*
X381269Y351624D01*
X381353Y351735D01*
X381441Y351844D01*
X381531Y351951D01*
X381625Y352056D01*
X381721Y352157D01*
X381820Y352256D01*
X381921Y352352D01*
X382026Y352446D01*
X382133Y352536D01*
X382242Y352624D01*
X382353Y352708D01*
X382467Y352790D01*
X382584Y352868D01*
X382702Y352943D01*
X382822Y353014D01*
X382944Y353083D01*
X383068Y353148D01*
X383194Y353209D01*
X383321Y353267D01*
X383450Y353322D01*
X383581Y353372D01*
X383713Y353420D01*
X383846Y353463D01*
X383980Y353503D01*
X384115Y353540D01*
X384251Y353572D01*
X384388Y353601D01*
X384526Y353626D01*
X384664Y353647D01*
X384803Y353664D01*
X384942Y353678D01*
X385082Y353687D01*
X385222Y353693D01*
X385362Y353695D01*
D11*
X673100Y312420D02*
X673102Y312520D01*
X673108Y312619D01*
X673118Y312719D01*
X673131Y312817D01*
X673149Y312916D01*
X673170Y313013D01*
X673195Y313109D01*
X673224Y313205D01*
X673257Y313299D01*
X673293Y313392D01*
X673333Y313483D01*
X673377Y313573D01*
X673424Y313661D01*
X673474Y313747D01*
X673528Y313831D01*
X673585Y313913D01*
X673645Y313992D01*
X673709Y314070D01*
X673775Y314144D01*
X673844Y314216D01*
X673916Y314285D01*
X673990Y314351D01*
X674068Y314415D01*
X674147Y314475D01*
X674229Y314532D01*
X674313Y314586D01*
X674399Y314636D01*
X674487Y314683D01*
X674577Y314727D01*
X674668Y314767D01*
X674761Y314803D01*
X674855Y314836D01*
X674951Y314865D01*
X675047Y314890D01*
X675144Y314911D01*
X675243Y314929D01*
X675341Y314942D01*
X675441Y314952D01*
X675540Y314958D01*
X675640Y314960D01*
X673100Y287020D02*
X673102Y286920D01*
X673108Y286821D01*
X673118Y286721D01*
X673131Y286623D01*
X673149Y286524D01*
X673170Y286427D01*
X673195Y286331D01*
X673224Y286235D01*
X673257Y286141D01*
X673293Y286048D01*
X673333Y285957D01*
X673377Y285867D01*
X673424Y285779D01*
X673474Y285693D01*
X673528Y285609D01*
X673585Y285527D01*
X673645Y285448D01*
X673709Y285370D01*
X673775Y285296D01*
X673844Y285224D01*
X673916Y285155D01*
X673990Y285089D01*
X674068Y285025D01*
X674147Y284965D01*
X674229Y284908D01*
X674313Y284854D01*
X674399Y284804D01*
X674487Y284757D01*
X674577Y284713D01*
X674668Y284673D01*
X674761Y284637D01*
X674855Y284604D01*
X674951Y284575D01*
X675047Y284550D01*
X675144Y284529D01*
X675243Y284511D01*
X675341Y284498D01*
X675441Y284488D01*
X675540Y284482D01*
X675640Y284480D01*
X756920Y284480D02*
X757020Y284482D01*
X757119Y284488D01*
X757219Y284498D01*
X757317Y284511D01*
X757416Y284529D01*
X757513Y284550D01*
X757609Y284575D01*
X757705Y284604D01*
X757799Y284637D01*
X757892Y284673D01*
X757983Y284713D01*
X758073Y284757D01*
X758161Y284804D01*
X758247Y284854D01*
X758331Y284908D01*
X758413Y284965D01*
X758492Y285025D01*
X758570Y285089D01*
X758644Y285155D01*
X758716Y285224D01*
X758785Y285296D01*
X758851Y285370D01*
X758915Y285448D01*
X758975Y285527D01*
X759032Y285609D01*
X759086Y285693D01*
X759136Y285779D01*
X759183Y285867D01*
X759227Y285957D01*
X759267Y286048D01*
X759303Y286141D01*
X759336Y286235D01*
X759365Y286331D01*
X759390Y286427D01*
X759411Y286524D01*
X759429Y286623D01*
X759442Y286721D01*
X759452Y286821D01*
X759458Y286920D01*
X759460Y287020D01*
X759460Y312420D02*
X759458Y312520D01*
X759452Y312619D01*
X759442Y312719D01*
X759429Y312817D01*
X759411Y312916D01*
X759390Y313013D01*
X759365Y313109D01*
X759336Y313205D01*
X759303Y313299D01*
X759267Y313392D01*
X759227Y313483D01*
X759183Y313573D01*
X759136Y313661D01*
X759086Y313747D01*
X759032Y313831D01*
X758975Y313913D01*
X758915Y313992D01*
X758851Y314070D01*
X758785Y314144D01*
X758716Y314216D01*
X758644Y314285D01*
X758570Y314351D01*
X758492Y314415D01*
X758413Y314475D01*
X758331Y314532D01*
X758247Y314586D01*
X758161Y314636D01*
X758073Y314683D01*
X757983Y314727D01*
X757892Y314767D01*
X757799Y314803D01*
X757705Y314836D01*
X757609Y314865D01*
X757513Y314890D01*
X757416Y314911D01*
X757317Y314929D01*
X757219Y314942D01*
X757119Y314952D01*
X757020Y314958D01*
X756920Y314960D01*
X673100Y312420D02*
X673100Y287020D01*
X675640Y314960D02*
X681990Y314960D01*
X683260Y313690D01*
X681990Y284480D02*
X675640Y284480D01*
X681990Y284480D02*
X683260Y285750D01*
X749300Y313690D02*
X750570Y314960D01*
X749300Y313690D02*
X683260Y313690D01*
X749300Y285750D02*
X750570Y284480D01*
X749300Y285750D02*
X683260Y285750D01*
X750570Y314960D02*
X756920Y314960D01*
X756920Y284480D02*
X750570Y284480D01*
X759460Y287020D02*
X759460Y312420D01*
D17*
X763778Y299720D03*
X668782Y299720D03*
D12*
X678815Y296545D02*
X678815Y307975D01*
X681990Y307975D01*
X682101Y307973D01*
X682211Y307967D01*
X682322Y307958D01*
X682432Y307944D01*
X682541Y307927D01*
X682650Y307906D01*
X682758Y307881D01*
X682865Y307852D01*
X682971Y307820D01*
X683076Y307784D01*
X683179Y307744D01*
X683281Y307701D01*
X683382Y307654D01*
X683481Y307603D01*
X683578Y307550D01*
X683672Y307493D01*
X683765Y307432D01*
X683856Y307369D01*
X683945Y307302D01*
X684031Y307232D01*
X684114Y307159D01*
X684196Y307084D01*
X684274Y307006D01*
X684349Y306924D01*
X684422Y306841D01*
X684492Y306755D01*
X684559Y306666D01*
X684622Y306575D01*
X684683Y306482D01*
X684740Y306387D01*
X684793Y306291D01*
X684844Y306192D01*
X684891Y306091D01*
X684934Y305989D01*
X684974Y305886D01*
X685010Y305781D01*
X685042Y305675D01*
X685071Y305568D01*
X685096Y305460D01*
X685117Y305351D01*
X685134Y305242D01*
X685148Y305132D01*
X685157Y305021D01*
X685163Y304911D01*
X685165Y304800D01*
X685163Y304689D01*
X685157Y304579D01*
X685148Y304468D01*
X685134Y304358D01*
X685117Y304249D01*
X685096Y304140D01*
X685071Y304032D01*
X685042Y303925D01*
X685010Y303819D01*
X684974Y303714D01*
X684934Y303611D01*
X684891Y303509D01*
X684844Y303408D01*
X684793Y303309D01*
X684740Y303212D01*
X684683Y303118D01*
X684622Y303025D01*
X684559Y302934D01*
X684492Y302845D01*
X684422Y302759D01*
X684349Y302676D01*
X684274Y302594D01*
X684196Y302516D01*
X684114Y302441D01*
X684031Y302368D01*
X683945Y302298D01*
X683856Y302231D01*
X683765Y302168D01*
X683672Y302107D01*
X683578Y302050D01*
X683481Y301997D01*
X683382Y301946D01*
X683281Y301899D01*
X683179Y301856D01*
X683076Y301816D01*
X682971Y301780D01*
X682865Y301748D01*
X682758Y301719D01*
X682650Y301694D01*
X682541Y301673D01*
X682432Y301656D01*
X682322Y301642D01*
X682211Y301633D01*
X682101Y301627D01*
X681990Y301625D01*
X678815Y301625D01*
X682625Y301625D02*
X685165Y296545D01*
X690162Y306705D02*
X690162Y307975D01*
X696512Y307975D01*
X693337Y296545D01*
D11*
X558800Y232410D02*
X457200Y232410D01*
X457200Y173990D02*
X558800Y173990D01*
X558800Y232410D01*
X457200Y232410D02*
X457200Y213360D01*
X457200Y193040D02*
X457200Y173990D01*
X457200Y193040D02*
X457447Y193043D01*
X457695Y193052D01*
X457942Y193067D01*
X458188Y193088D01*
X458434Y193115D01*
X458679Y193148D01*
X458924Y193187D01*
X459167Y193232D01*
X459409Y193283D01*
X459650Y193340D01*
X459889Y193402D01*
X460127Y193471D01*
X460363Y193545D01*
X460597Y193625D01*
X460829Y193710D01*
X461059Y193802D01*
X461287Y193898D01*
X461512Y194001D01*
X461735Y194108D01*
X461955Y194222D01*
X462172Y194340D01*
X462387Y194464D01*
X462598Y194593D01*
X462806Y194727D01*
X463011Y194866D01*
X463212Y195010D01*
X463410Y195158D01*
X463604Y195312D01*
X463794Y195470D01*
X463980Y195633D01*
X464162Y195800D01*
X464340Y195972D01*
X464514Y196148D01*
X464684Y196328D01*
X464849Y196513D01*
X465009Y196701D01*
X465165Y196893D01*
X465317Y197089D01*
X465463Y197288D01*
X465605Y197491D01*
X465741Y197698D01*
X465873Y197907D01*
X465999Y198120D01*
X466120Y198336D01*
X466236Y198554D01*
X466346Y198776D01*
X466451Y199000D01*
X466551Y199226D01*
X466645Y199455D01*
X466733Y199686D01*
X466816Y199920D01*
X466893Y200155D01*
X466964Y200392D01*
X467030Y200630D01*
X467089Y200870D01*
X467143Y201112D01*
X467191Y201355D01*
X467233Y201598D01*
X467269Y201843D01*
X467299Y202089D01*
X467323Y202335D01*
X467341Y202582D01*
X467353Y202829D01*
X467359Y203076D01*
X467359Y203324D01*
X467353Y203571D01*
X467341Y203818D01*
X467323Y204065D01*
X467299Y204311D01*
X467269Y204557D01*
X467233Y204802D01*
X467191Y205045D01*
X467143Y205288D01*
X467089Y205530D01*
X467030Y205770D01*
X466964Y206008D01*
X466893Y206245D01*
X466816Y206480D01*
X466733Y206714D01*
X466645Y206945D01*
X466551Y207174D01*
X466451Y207400D01*
X466346Y207624D01*
X466236Y207846D01*
X466120Y208064D01*
X465999Y208280D01*
X465873Y208493D01*
X465741Y208702D01*
X465605Y208909D01*
X465463Y209112D01*
X465317Y209311D01*
X465165Y209507D01*
X465009Y209699D01*
X464849Y209887D01*
X464684Y210072D01*
X464514Y210252D01*
X464340Y210428D01*
X464162Y210600D01*
X463980Y210767D01*
X463794Y210930D01*
X463604Y211088D01*
X463410Y211242D01*
X463212Y211390D01*
X463011Y211534D01*
X462806Y211673D01*
X462598Y211807D01*
X462387Y211936D01*
X462172Y212060D01*
X461955Y212178D01*
X461735Y212292D01*
X461512Y212399D01*
X461287Y212502D01*
X461059Y212598D01*
X460829Y212690D01*
X460597Y212775D01*
X460363Y212855D01*
X460127Y212929D01*
X459889Y212998D01*
X459650Y213060D01*
X459409Y213117D01*
X459167Y213168D01*
X458924Y213213D01*
X458679Y213252D01*
X458434Y213285D01*
X458188Y213312D01*
X457942Y213333D01*
X457695Y213348D01*
X457447Y213357D01*
X457200Y213360D01*
X523134Y210312D02*
X523134Y221488D01*
X521892Y210312D02*
X524376Y210312D01*
X524376Y221488D02*
X521892Y221488D01*
X531616Y210312D02*
X534099Y210312D01*
X531616Y210312D02*
X531518Y210314D01*
X531421Y210320D01*
X531324Y210329D01*
X531227Y210343D01*
X531131Y210360D01*
X531036Y210381D01*
X530942Y210405D01*
X530848Y210434D01*
X530756Y210466D01*
X530665Y210501D01*
X530576Y210540D01*
X530488Y210583D01*
X530402Y210629D01*
X530318Y210678D01*
X530236Y210731D01*
X530156Y210786D01*
X530078Y210845D01*
X530003Y210907D01*
X529930Y210972D01*
X529860Y211040D01*
X529792Y211110D01*
X529727Y211183D01*
X529665Y211258D01*
X529606Y211336D01*
X529551Y211416D01*
X529498Y211498D01*
X529449Y211582D01*
X529403Y211668D01*
X529360Y211756D01*
X529321Y211845D01*
X529286Y211936D01*
X529254Y212028D01*
X529225Y212122D01*
X529201Y212216D01*
X529180Y212311D01*
X529163Y212407D01*
X529149Y212504D01*
X529140Y212601D01*
X529134Y212698D01*
X529132Y212796D01*
X529132Y219004D01*
X529134Y219102D01*
X529140Y219199D01*
X529149Y219296D01*
X529163Y219393D01*
X529180Y219489D01*
X529201Y219584D01*
X529225Y219678D01*
X529254Y219772D01*
X529286Y219864D01*
X529321Y219955D01*
X529360Y220044D01*
X529403Y220132D01*
X529449Y220218D01*
X529498Y220302D01*
X529551Y220384D01*
X529606Y220464D01*
X529665Y220542D01*
X529727Y220617D01*
X529792Y220690D01*
X529860Y220760D01*
X529930Y220828D01*
X530003Y220893D01*
X530078Y220955D01*
X530156Y221014D01*
X530236Y221069D01*
X530318Y221122D01*
X530402Y221171D01*
X530488Y221217D01*
X530576Y221260D01*
X530665Y221299D01*
X530756Y221334D01*
X530848Y221366D01*
X530942Y221395D01*
X531036Y221419D01*
X531131Y221440D01*
X531227Y221457D01*
X531324Y221471D01*
X531421Y221480D01*
X531518Y221486D01*
X531616Y221488D01*
X534099Y221488D01*
X541182Y221488D02*
X538699Y212796D01*
X544908Y212796D01*
X543045Y215279D02*
X543045Y210312D01*
X673100Y354330D02*
X673102Y354430D01*
X673108Y354529D01*
X673118Y354629D01*
X673131Y354727D01*
X673149Y354826D01*
X673170Y354923D01*
X673195Y355019D01*
X673224Y355115D01*
X673257Y355209D01*
X673293Y355302D01*
X673333Y355393D01*
X673377Y355483D01*
X673424Y355571D01*
X673474Y355657D01*
X673528Y355741D01*
X673585Y355823D01*
X673645Y355902D01*
X673709Y355980D01*
X673775Y356054D01*
X673844Y356126D01*
X673916Y356195D01*
X673990Y356261D01*
X674068Y356325D01*
X674147Y356385D01*
X674229Y356442D01*
X674313Y356496D01*
X674399Y356546D01*
X674487Y356593D01*
X674577Y356637D01*
X674668Y356677D01*
X674761Y356713D01*
X674855Y356746D01*
X674951Y356775D01*
X675047Y356800D01*
X675144Y356821D01*
X675243Y356839D01*
X675341Y356852D01*
X675441Y356862D01*
X675540Y356868D01*
X675640Y356870D01*
X673100Y328930D02*
X673102Y328830D01*
X673108Y328731D01*
X673118Y328631D01*
X673131Y328533D01*
X673149Y328434D01*
X673170Y328337D01*
X673195Y328241D01*
X673224Y328145D01*
X673257Y328051D01*
X673293Y327958D01*
X673333Y327867D01*
X673377Y327777D01*
X673424Y327689D01*
X673474Y327603D01*
X673528Y327519D01*
X673585Y327437D01*
X673645Y327358D01*
X673709Y327280D01*
X673775Y327206D01*
X673844Y327134D01*
X673916Y327065D01*
X673990Y326999D01*
X674068Y326935D01*
X674147Y326875D01*
X674229Y326818D01*
X674313Y326764D01*
X674399Y326714D01*
X674487Y326667D01*
X674577Y326623D01*
X674668Y326583D01*
X674761Y326547D01*
X674855Y326514D01*
X674951Y326485D01*
X675047Y326460D01*
X675144Y326439D01*
X675243Y326421D01*
X675341Y326408D01*
X675441Y326398D01*
X675540Y326392D01*
X675640Y326390D01*
X756920Y326390D02*
X757020Y326392D01*
X757119Y326398D01*
X757219Y326408D01*
X757317Y326421D01*
X757416Y326439D01*
X757513Y326460D01*
X757609Y326485D01*
X757705Y326514D01*
X757799Y326547D01*
X757892Y326583D01*
X757983Y326623D01*
X758073Y326667D01*
X758161Y326714D01*
X758247Y326764D01*
X758331Y326818D01*
X758413Y326875D01*
X758492Y326935D01*
X758570Y326999D01*
X758644Y327065D01*
X758716Y327134D01*
X758785Y327206D01*
X758851Y327280D01*
X758915Y327358D01*
X758975Y327437D01*
X759032Y327519D01*
X759086Y327603D01*
X759136Y327689D01*
X759183Y327777D01*
X759227Y327867D01*
X759267Y327958D01*
X759303Y328051D01*
X759336Y328145D01*
X759365Y328241D01*
X759390Y328337D01*
X759411Y328434D01*
X759429Y328533D01*
X759442Y328631D01*
X759452Y328731D01*
X759458Y328830D01*
X759460Y328930D01*
X759460Y354330D02*
X759458Y354430D01*
X759452Y354529D01*
X759442Y354629D01*
X759429Y354727D01*
X759411Y354826D01*
X759390Y354923D01*
X759365Y355019D01*
X759336Y355115D01*
X759303Y355209D01*
X759267Y355302D01*
X759227Y355393D01*
X759183Y355483D01*
X759136Y355571D01*
X759086Y355657D01*
X759032Y355741D01*
X758975Y355823D01*
X758915Y355902D01*
X758851Y355980D01*
X758785Y356054D01*
X758716Y356126D01*
X758644Y356195D01*
X758570Y356261D01*
X758492Y356325D01*
X758413Y356385D01*
X758331Y356442D01*
X758247Y356496D01*
X758161Y356546D01*
X758073Y356593D01*
X757983Y356637D01*
X757892Y356677D01*
X757799Y356713D01*
X757705Y356746D01*
X757609Y356775D01*
X757513Y356800D01*
X757416Y356821D01*
X757317Y356839D01*
X757219Y356852D01*
X757119Y356862D01*
X757020Y356868D01*
X756920Y356870D01*
X673100Y354330D02*
X673100Y328930D01*
X675640Y356870D02*
X681990Y356870D01*
X683260Y355600D01*
X681990Y326390D02*
X675640Y326390D01*
X681990Y326390D02*
X683260Y327660D01*
X749300Y355600D02*
X750570Y356870D01*
X749300Y355600D02*
X683260Y355600D01*
X749300Y327660D02*
X750570Y326390D01*
X749300Y327660D02*
X683260Y327660D01*
X750570Y356870D02*
X756920Y356870D01*
X756920Y326390D02*
X750570Y326390D01*
X759460Y328930D02*
X759460Y354330D01*
D17*
X763778Y341630D03*
X668782Y341630D03*
D12*
X680085Y337185D02*
X680085Y348615D01*
X683260Y348615D01*
X683371Y348613D01*
X683481Y348607D01*
X683592Y348598D01*
X683702Y348584D01*
X683811Y348567D01*
X683920Y348546D01*
X684028Y348521D01*
X684135Y348492D01*
X684241Y348460D01*
X684346Y348424D01*
X684449Y348384D01*
X684551Y348341D01*
X684652Y348294D01*
X684751Y348243D01*
X684848Y348190D01*
X684942Y348133D01*
X685035Y348072D01*
X685126Y348009D01*
X685215Y347942D01*
X685301Y347872D01*
X685384Y347799D01*
X685466Y347724D01*
X685544Y347646D01*
X685619Y347564D01*
X685692Y347481D01*
X685762Y347395D01*
X685829Y347306D01*
X685892Y347215D01*
X685953Y347122D01*
X686010Y347027D01*
X686063Y346931D01*
X686114Y346832D01*
X686161Y346731D01*
X686204Y346629D01*
X686244Y346526D01*
X686280Y346421D01*
X686312Y346315D01*
X686341Y346208D01*
X686366Y346100D01*
X686387Y345991D01*
X686404Y345882D01*
X686418Y345772D01*
X686427Y345661D01*
X686433Y345551D01*
X686435Y345440D01*
X686433Y345329D01*
X686427Y345219D01*
X686418Y345108D01*
X686404Y344998D01*
X686387Y344889D01*
X686366Y344780D01*
X686341Y344672D01*
X686312Y344565D01*
X686280Y344459D01*
X686244Y344354D01*
X686204Y344251D01*
X686161Y344149D01*
X686114Y344048D01*
X686063Y343949D01*
X686010Y343852D01*
X685953Y343758D01*
X685892Y343665D01*
X685829Y343574D01*
X685762Y343485D01*
X685692Y343399D01*
X685619Y343316D01*
X685544Y343234D01*
X685466Y343156D01*
X685384Y343081D01*
X685301Y343008D01*
X685215Y342938D01*
X685126Y342871D01*
X685035Y342808D01*
X684942Y342747D01*
X684848Y342690D01*
X684751Y342637D01*
X684652Y342586D01*
X684551Y342539D01*
X684449Y342496D01*
X684346Y342456D01*
X684241Y342420D01*
X684135Y342388D01*
X684028Y342359D01*
X683920Y342334D01*
X683811Y342313D01*
X683702Y342296D01*
X683592Y342282D01*
X683481Y342273D01*
X683371Y342267D01*
X683260Y342265D01*
X680085Y342265D01*
X683895Y342265D02*
X686435Y337185D01*
X691432Y340360D02*
X691434Y340471D01*
X691440Y340581D01*
X691449Y340692D01*
X691463Y340802D01*
X691480Y340911D01*
X691501Y341020D01*
X691526Y341128D01*
X691555Y341235D01*
X691587Y341341D01*
X691623Y341446D01*
X691663Y341549D01*
X691706Y341651D01*
X691753Y341752D01*
X691804Y341851D01*
X691857Y341948D01*
X691914Y342042D01*
X691975Y342135D01*
X692038Y342226D01*
X692105Y342315D01*
X692175Y342401D01*
X692248Y342484D01*
X692323Y342566D01*
X692401Y342644D01*
X692483Y342719D01*
X692566Y342792D01*
X692652Y342862D01*
X692741Y342929D01*
X692832Y342992D01*
X692925Y343053D01*
X693020Y343110D01*
X693116Y343163D01*
X693215Y343214D01*
X693316Y343261D01*
X693418Y343304D01*
X693521Y343344D01*
X693626Y343380D01*
X693732Y343412D01*
X693839Y343441D01*
X693947Y343466D01*
X694056Y343487D01*
X694165Y343504D01*
X694275Y343518D01*
X694386Y343527D01*
X694496Y343533D01*
X694607Y343535D01*
X694718Y343533D01*
X694828Y343527D01*
X694939Y343518D01*
X695049Y343504D01*
X695158Y343487D01*
X695267Y343466D01*
X695375Y343441D01*
X695482Y343412D01*
X695588Y343380D01*
X695693Y343344D01*
X695796Y343304D01*
X695898Y343261D01*
X695999Y343214D01*
X696098Y343163D01*
X696195Y343110D01*
X696289Y343053D01*
X696382Y342992D01*
X696473Y342929D01*
X696562Y342862D01*
X696648Y342792D01*
X696731Y342719D01*
X696813Y342644D01*
X696891Y342566D01*
X696966Y342484D01*
X697039Y342401D01*
X697109Y342315D01*
X697176Y342226D01*
X697239Y342135D01*
X697300Y342042D01*
X697357Y341948D01*
X697410Y341851D01*
X697461Y341752D01*
X697508Y341651D01*
X697551Y341549D01*
X697591Y341446D01*
X697627Y341341D01*
X697659Y341235D01*
X697688Y341128D01*
X697713Y341020D01*
X697734Y340911D01*
X697751Y340802D01*
X697765Y340692D01*
X697774Y340581D01*
X697780Y340471D01*
X697782Y340360D01*
X697780Y340249D01*
X697774Y340139D01*
X697765Y340028D01*
X697751Y339918D01*
X697734Y339809D01*
X697713Y339700D01*
X697688Y339592D01*
X697659Y339485D01*
X697627Y339379D01*
X697591Y339274D01*
X697551Y339171D01*
X697508Y339069D01*
X697461Y338968D01*
X697410Y338869D01*
X697357Y338772D01*
X697300Y338678D01*
X697239Y338585D01*
X697176Y338494D01*
X697109Y338405D01*
X697039Y338319D01*
X696966Y338236D01*
X696891Y338154D01*
X696813Y338076D01*
X696731Y338001D01*
X696648Y337928D01*
X696562Y337858D01*
X696473Y337791D01*
X696382Y337728D01*
X696289Y337667D01*
X696195Y337610D01*
X696098Y337557D01*
X695999Y337506D01*
X695898Y337459D01*
X695796Y337416D01*
X695693Y337376D01*
X695588Y337340D01*
X695482Y337308D01*
X695375Y337279D01*
X695267Y337254D01*
X695158Y337233D01*
X695049Y337216D01*
X694939Y337202D01*
X694828Y337193D01*
X694718Y337187D01*
X694607Y337185D01*
X694496Y337187D01*
X694386Y337193D01*
X694275Y337202D01*
X694165Y337216D01*
X694056Y337233D01*
X693947Y337254D01*
X693839Y337279D01*
X693732Y337308D01*
X693626Y337340D01*
X693521Y337376D01*
X693418Y337416D01*
X693316Y337459D01*
X693215Y337506D01*
X693116Y337557D01*
X693020Y337610D01*
X692925Y337667D01*
X692832Y337728D01*
X692741Y337791D01*
X692652Y337858D01*
X692566Y337928D01*
X692483Y338001D01*
X692401Y338076D01*
X692323Y338154D01*
X692248Y338236D01*
X692175Y338319D01*
X692105Y338405D01*
X692038Y338494D01*
X691975Y338585D01*
X691914Y338678D01*
X691857Y338773D01*
X691804Y338869D01*
X691753Y338968D01*
X691706Y339069D01*
X691663Y339171D01*
X691623Y339274D01*
X691587Y339379D01*
X691555Y339485D01*
X691526Y339592D01*
X691501Y339700D01*
X691480Y339809D01*
X691463Y339918D01*
X691449Y340028D01*
X691440Y340139D01*
X691434Y340249D01*
X691432Y340360D01*
X692067Y346075D02*
X692069Y346175D01*
X692075Y346274D01*
X692085Y346374D01*
X692098Y346472D01*
X692116Y346571D01*
X692137Y346668D01*
X692162Y346764D01*
X692191Y346860D01*
X692224Y346954D01*
X692260Y347047D01*
X692300Y347138D01*
X692344Y347228D01*
X692391Y347316D01*
X692441Y347402D01*
X692495Y347486D01*
X692552Y347568D01*
X692612Y347647D01*
X692676Y347725D01*
X692742Y347799D01*
X692811Y347871D01*
X692883Y347940D01*
X692957Y348006D01*
X693035Y348070D01*
X693114Y348130D01*
X693196Y348187D01*
X693280Y348241D01*
X693366Y348291D01*
X693454Y348338D01*
X693544Y348382D01*
X693635Y348422D01*
X693728Y348458D01*
X693822Y348491D01*
X693918Y348520D01*
X694014Y348545D01*
X694111Y348566D01*
X694210Y348584D01*
X694308Y348597D01*
X694408Y348607D01*
X694507Y348613D01*
X694607Y348615D01*
X694707Y348613D01*
X694806Y348607D01*
X694906Y348597D01*
X695004Y348584D01*
X695103Y348566D01*
X695200Y348545D01*
X695296Y348520D01*
X695392Y348491D01*
X695486Y348458D01*
X695579Y348422D01*
X695670Y348382D01*
X695760Y348338D01*
X695848Y348291D01*
X695934Y348241D01*
X696018Y348187D01*
X696100Y348130D01*
X696179Y348070D01*
X696257Y348006D01*
X696331Y347940D01*
X696403Y347871D01*
X696472Y347799D01*
X696538Y347725D01*
X696602Y347647D01*
X696662Y347568D01*
X696719Y347486D01*
X696773Y347402D01*
X696823Y347316D01*
X696870Y347228D01*
X696914Y347138D01*
X696954Y347047D01*
X696990Y346954D01*
X697023Y346860D01*
X697052Y346764D01*
X697077Y346668D01*
X697098Y346571D01*
X697116Y346472D01*
X697129Y346374D01*
X697139Y346274D01*
X697145Y346175D01*
X697147Y346075D01*
X697145Y345975D01*
X697139Y345876D01*
X697129Y345776D01*
X697116Y345678D01*
X697098Y345579D01*
X697077Y345482D01*
X697052Y345386D01*
X697023Y345290D01*
X696990Y345196D01*
X696954Y345103D01*
X696914Y345012D01*
X696870Y344922D01*
X696823Y344834D01*
X696773Y344748D01*
X696719Y344664D01*
X696662Y344582D01*
X696602Y344503D01*
X696538Y344425D01*
X696472Y344351D01*
X696403Y344279D01*
X696331Y344210D01*
X696257Y344144D01*
X696179Y344080D01*
X696100Y344020D01*
X696018Y343963D01*
X695934Y343909D01*
X695848Y343859D01*
X695760Y343812D01*
X695670Y343768D01*
X695579Y343728D01*
X695486Y343692D01*
X695392Y343659D01*
X695296Y343630D01*
X695200Y343605D01*
X695103Y343584D01*
X695004Y343566D01*
X694906Y343553D01*
X694806Y343543D01*
X694707Y343537D01*
X694607Y343535D01*
X694507Y343537D01*
X694408Y343543D01*
X694308Y343553D01*
X694210Y343566D01*
X694111Y343584D01*
X694014Y343605D01*
X693918Y343630D01*
X693822Y343659D01*
X693728Y343692D01*
X693635Y343728D01*
X693544Y343768D01*
X693454Y343812D01*
X693366Y343859D01*
X693280Y343909D01*
X693196Y343963D01*
X693114Y344020D01*
X693035Y344080D01*
X692957Y344144D01*
X692883Y344210D01*
X692811Y344279D01*
X692742Y344351D01*
X692676Y344425D01*
X692612Y344503D01*
X692552Y344582D01*
X692495Y344664D01*
X692441Y344748D01*
X692391Y344834D01*
X692344Y344922D01*
X692300Y345012D01*
X692260Y345103D01*
X692224Y345196D01*
X692191Y345290D01*
X692162Y345386D01*
X692137Y345482D01*
X692116Y345579D01*
X692098Y345678D01*
X692085Y345776D01*
X692075Y345876D01*
X692069Y345975D01*
X692067Y346075D01*
D11*
X520700Y312420D02*
X520600Y312418D01*
X520501Y312412D01*
X520401Y312402D01*
X520303Y312389D01*
X520204Y312371D01*
X520107Y312350D01*
X520011Y312325D01*
X519915Y312296D01*
X519821Y312263D01*
X519728Y312227D01*
X519637Y312187D01*
X519547Y312143D01*
X519459Y312096D01*
X519373Y312046D01*
X519289Y311992D01*
X519207Y311935D01*
X519128Y311875D01*
X519050Y311811D01*
X518976Y311745D01*
X518904Y311676D01*
X518835Y311604D01*
X518769Y311530D01*
X518705Y311452D01*
X518645Y311373D01*
X518588Y311291D01*
X518534Y311207D01*
X518484Y311121D01*
X518437Y311033D01*
X518393Y310943D01*
X518353Y310852D01*
X518317Y310759D01*
X518284Y310665D01*
X518255Y310569D01*
X518230Y310473D01*
X518209Y310376D01*
X518191Y310277D01*
X518178Y310179D01*
X518168Y310079D01*
X518162Y309980D01*
X518160Y309880D01*
X518160Y284480D02*
X518162Y284380D01*
X518168Y284281D01*
X518178Y284181D01*
X518191Y284083D01*
X518209Y283984D01*
X518230Y283887D01*
X518255Y283791D01*
X518284Y283695D01*
X518317Y283601D01*
X518353Y283508D01*
X518393Y283417D01*
X518437Y283327D01*
X518484Y283239D01*
X518534Y283153D01*
X518588Y283069D01*
X518645Y282987D01*
X518705Y282908D01*
X518769Y282830D01*
X518835Y282756D01*
X518904Y282684D01*
X518976Y282615D01*
X519050Y282549D01*
X519128Y282485D01*
X519207Y282425D01*
X519289Y282368D01*
X519373Y282314D01*
X519459Y282264D01*
X519547Y282217D01*
X519637Y282173D01*
X519728Y282133D01*
X519821Y282097D01*
X519915Y282064D01*
X520011Y282035D01*
X520107Y282010D01*
X520204Y281989D01*
X520303Y281971D01*
X520401Y281958D01*
X520501Y281948D01*
X520600Y281942D01*
X520700Y281940D01*
X601980Y281940D02*
X602080Y281942D01*
X602179Y281948D01*
X602279Y281958D01*
X602377Y281971D01*
X602476Y281989D01*
X602573Y282010D01*
X602669Y282035D01*
X602765Y282064D01*
X602859Y282097D01*
X602952Y282133D01*
X603043Y282173D01*
X603133Y282217D01*
X603221Y282264D01*
X603307Y282314D01*
X603391Y282368D01*
X603473Y282425D01*
X603552Y282485D01*
X603630Y282549D01*
X603704Y282615D01*
X603776Y282684D01*
X603845Y282756D01*
X603911Y282830D01*
X603975Y282908D01*
X604035Y282987D01*
X604092Y283069D01*
X604146Y283153D01*
X604196Y283239D01*
X604243Y283327D01*
X604287Y283417D01*
X604327Y283508D01*
X604363Y283601D01*
X604396Y283695D01*
X604425Y283791D01*
X604450Y283887D01*
X604471Y283984D01*
X604489Y284083D01*
X604502Y284181D01*
X604512Y284281D01*
X604518Y284380D01*
X604520Y284480D01*
X604520Y309880D02*
X604518Y309980D01*
X604512Y310079D01*
X604502Y310179D01*
X604489Y310277D01*
X604471Y310376D01*
X604450Y310473D01*
X604425Y310569D01*
X604396Y310665D01*
X604363Y310759D01*
X604327Y310852D01*
X604287Y310943D01*
X604243Y311033D01*
X604196Y311121D01*
X604146Y311207D01*
X604092Y311291D01*
X604035Y311373D01*
X603975Y311452D01*
X603911Y311530D01*
X603845Y311604D01*
X603776Y311676D01*
X603704Y311745D01*
X603630Y311811D01*
X603552Y311875D01*
X603473Y311935D01*
X603391Y311992D01*
X603307Y312046D01*
X603221Y312096D01*
X603133Y312143D01*
X603043Y312187D01*
X602952Y312227D01*
X602859Y312263D01*
X602765Y312296D01*
X602669Y312325D01*
X602573Y312350D01*
X602476Y312371D01*
X602377Y312389D01*
X602279Y312402D01*
X602179Y312412D01*
X602080Y312418D01*
X601980Y312420D01*
X518160Y309880D02*
X518160Y284480D01*
X520700Y312420D02*
X527050Y312420D01*
X528320Y311150D01*
X527050Y281940D02*
X520700Y281940D01*
X527050Y281940D02*
X528320Y283210D01*
X594360Y311150D02*
X595630Y312420D01*
X594360Y311150D02*
X528320Y311150D01*
X594360Y283210D02*
X595630Y281940D01*
X594360Y283210D02*
X528320Y283210D01*
X595630Y312420D02*
X601980Y312420D01*
X601980Y281940D02*
X595630Y281940D01*
X604520Y284480D02*
X604520Y309880D01*
D17*
X608838Y297180D03*
X513842Y297180D03*
D12*
X525145Y291465D02*
X525145Y302895D01*
X528320Y302895D01*
X528431Y302893D01*
X528541Y302887D01*
X528652Y302878D01*
X528762Y302864D01*
X528871Y302847D01*
X528980Y302826D01*
X529088Y302801D01*
X529195Y302772D01*
X529301Y302740D01*
X529406Y302704D01*
X529509Y302664D01*
X529611Y302621D01*
X529712Y302574D01*
X529811Y302523D01*
X529908Y302470D01*
X530002Y302413D01*
X530095Y302352D01*
X530186Y302289D01*
X530275Y302222D01*
X530361Y302152D01*
X530444Y302079D01*
X530526Y302004D01*
X530604Y301926D01*
X530679Y301844D01*
X530752Y301761D01*
X530822Y301675D01*
X530889Y301586D01*
X530952Y301495D01*
X531013Y301402D01*
X531070Y301307D01*
X531123Y301211D01*
X531174Y301112D01*
X531221Y301011D01*
X531264Y300909D01*
X531304Y300806D01*
X531340Y300701D01*
X531372Y300595D01*
X531401Y300488D01*
X531426Y300380D01*
X531447Y300271D01*
X531464Y300162D01*
X531478Y300052D01*
X531487Y299941D01*
X531493Y299831D01*
X531495Y299720D01*
X531493Y299609D01*
X531487Y299499D01*
X531478Y299388D01*
X531464Y299278D01*
X531447Y299169D01*
X531426Y299060D01*
X531401Y298952D01*
X531372Y298845D01*
X531340Y298739D01*
X531304Y298634D01*
X531264Y298531D01*
X531221Y298429D01*
X531174Y298328D01*
X531123Y298229D01*
X531070Y298132D01*
X531013Y298038D01*
X530952Y297945D01*
X530889Y297854D01*
X530822Y297765D01*
X530752Y297679D01*
X530679Y297596D01*
X530604Y297514D01*
X530526Y297436D01*
X530444Y297361D01*
X530361Y297288D01*
X530275Y297218D01*
X530186Y297151D01*
X530095Y297088D01*
X530002Y297027D01*
X529908Y296970D01*
X529811Y296917D01*
X529712Y296866D01*
X529611Y296819D01*
X529509Y296776D01*
X529406Y296736D01*
X529301Y296700D01*
X529195Y296668D01*
X529088Y296639D01*
X528980Y296614D01*
X528871Y296593D01*
X528762Y296576D01*
X528652Y296562D01*
X528541Y296553D01*
X528431Y296547D01*
X528320Y296545D01*
X525145Y296545D01*
X528955Y296545D02*
X531495Y291465D01*
X539032Y296545D02*
X542842Y296545D01*
X539032Y296545D02*
X538932Y296547D01*
X538833Y296553D01*
X538733Y296563D01*
X538635Y296576D01*
X538536Y296594D01*
X538439Y296615D01*
X538343Y296640D01*
X538247Y296669D01*
X538153Y296702D01*
X538060Y296738D01*
X537969Y296778D01*
X537879Y296822D01*
X537791Y296869D01*
X537705Y296919D01*
X537621Y296973D01*
X537539Y297030D01*
X537460Y297090D01*
X537382Y297154D01*
X537308Y297220D01*
X537236Y297289D01*
X537167Y297361D01*
X537101Y297435D01*
X537037Y297513D01*
X536977Y297592D01*
X536920Y297674D01*
X536866Y297758D01*
X536816Y297844D01*
X536769Y297932D01*
X536725Y298022D01*
X536685Y298113D01*
X536649Y298206D01*
X536616Y298300D01*
X536587Y298396D01*
X536562Y298492D01*
X536541Y298589D01*
X536523Y298688D01*
X536510Y298786D01*
X536500Y298886D01*
X536494Y298985D01*
X536492Y299085D01*
X536492Y299720D01*
X536494Y299831D01*
X536500Y299941D01*
X536509Y300052D01*
X536523Y300162D01*
X536540Y300271D01*
X536561Y300380D01*
X536586Y300488D01*
X536615Y300595D01*
X536647Y300701D01*
X536683Y300806D01*
X536723Y300909D01*
X536766Y301011D01*
X536813Y301112D01*
X536864Y301211D01*
X536917Y301308D01*
X536974Y301402D01*
X537035Y301495D01*
X537098Y301586D01*
X537165Y301675D01*
X537235Y301761D01*
X537308Y301844D01*
X537383Y301926D01*
X537461Y302004D01*
X537543Y302079D01*
X537626Y302152D01*
X537712Y302222D01*
X537801Y302289D01*
X537892Y302352D01*
X537985Y302413D01*
X538080Y302470D01*
X538176Y302523D01*
X538275Y302574D01*
X538376Y302621D01*
X538478Y302664D01*
X538581Y302704D01*
X538686Y302740D01*
X538792Y302772D01*
X538899Y302801D01*
X539007Y302826D01*
X539116Y302847D01*
X539225Y302864D01*
X539335Y302878D01*
X539446Y302887D01*
X539556Y302893D01*
X539667Y302895D01*
X539778Y302893D01*
X539888Y302887D01*
X539999Y302878D01*
X540109Y302864D01*
X540218Y302847D01*
X540327Y302826D01*
X540435Y302801D01*
X540542Y302772D01*
X540648Y302740D01*
X540753Y302704D01*
X540856Y302664D01*
X540958Y302621D01*
X541059Y302574D01*
X541158Y302523D01*
X541255Y302470D01*
X541349Y302413D01*
X541442Y302352D01*
X541533Y302289D01*
X541622Y302222D01*
X541708Y302152D01*
X541791Y302079D01*
X541873Y302004D01*
X541951Y301926D01*
X542026Y301844D01*
X542099Y301761D01*
X542169Y301675D01*
X542236Y301586D01*
X542299Y301495D01*
X542360Y301402D01*
X542417Y301308D01*
X542470Y301211D01*
X542521Y301112D01*
X542568Y301011D01*
X542611Y300909D01*
X542651Y300806D01*
X542687Y300701D01*
X542719Y300595D01*
X542748Y300488D01*
X542773Y300380D01*
X542794Y300271D01*
X542811Y300162D01*
X542825Y300052D01*
X542834Y299941D01*
X542840Y299831D01*
X542842Y299720D01*
X542842Y296545D01*
X542840Y296405D01*
X542834Y296265D01*
X542825Y296125D01*
X542811Y295986D01*
X542794Y295847D01*
X542773Y295709D01*
X542748Y295571D01*
X542719Y295434D01*
X542687Y295298D01*
X542650Y295163D01*
X542610Y295029D01*
X542567Y294896D01*
X542519Y294764D01*
X542469Y294633D01*
X542414Y294504D01*
X542356Y294377D01*
X542295Y294251D01*
X542230Y294127D01*
X542161Y294005D01*
X542090Y293885D01*
X542015Y293767D01*
X541937Y293650D01*
X541855Y293536D01*
X541771Y293425D01*
X541683Y293316D01*
X541593Y293209D01*
X541499Y293104D01*
X541403Y293003D01*
X541304Y292904D01*
X541203Y292808D01*
X541098Y292714D01*
X540991Y292624D01*
X540882Y292536D01*
X540771Y292452D01*
X540657Y292370D01*
X540540Y292292D01*
X540422Y292217D01*
X540302Y292146D01*
X540180Y292077D01*
X540056Y292012D01*
X539930Y291951D01*
X539803Y291893D01*
X539674Y291838D01*
X539543Y291788D01*
X539411Y291740D01*
X539278Y291697D01*
X539144Y291657D01*
X539009Y291620D01*
X538873Y291588D01*
X538736Y291559D01*
X538598Y291534D01*
X538460Y291513D01*
X538321Y291496D01*
X538182Y291482D01*
X538042Y291473D01*
X537902Y291467D01*
X537762Y291465D01*
D11*
X601980Y325120D02*
X602080Y325122D01*
X602179Y325128D01*
X602279Y325138D01*
X602377Y325151D01*
X602476Y325169D01*
X602573Y325190D01*
X602669Y325215D01*
X602765Y325244D01*
X602859Y325277D01*
X602952Y325313D01*
X603043Y325353D01*
X603133Y325397D01*
X603221Y325444D01*
X603307Y325494D01*
X603391Y325548D01*
X603473Y325605D01*
X603552Y325665D01*
X603630Y325729D01*
X603704Y325795D01*
X603776Y325864D01*
X603845Y325936D01*
X603911Y326010D01*
X603975Y326088D01*
X604035Y326167D01*
X604092Y326249D01*
X604146Y326333D01*
X604196Y326419D01*
X604243Y326507D01*
X604287Y326597D01*
X604327Y326688D01*
X604363Y326781D01*
X604396Y326875D01*
X604425Y326971D01*
X604450Y327067D01*
X604471Y327164D01*
X604489Y327263D01*
X604502Y327361D01*
X604512Y327461D01*
X604518Y327560D01*
X604520Y327660D01*
X604520Y353060D02*
X604518Y353160D01*
X604512Y353259D01*
X604502Y353359D01*
X604489Y353457D01*
X604471Y353556D01*
X604450Y353653D01*
X604425Y353749D01*
X604396Y353845D01*
X604363Y353939D01*
X604327Y354032D01*
X604287Y354123D01*
X604243Y354213D01*
X604196Y354301D01*
X604146Y354387D01*
X604092Y354471D01*
X604035Y354553D01*
X603975Y354632D01*
X603911Y354710D01*
X603845Y354784D01*
X603776Y354856D01*
X603704Y354925D01*
X603630Y354991D01*
X603552Y355055D01*
X603473Y355115D01*
X603391Y355172D01*
X603307Y355226D01*
X603221Y355276D01*
X603133Y355323D01*
X603043Y355367D01*
X602952Y355407D01*
X602859Y355443D01*
X602765Y355476D01*
X602669Y355505D01*
X602573Y355530D01*
X602476Y355551D01*
X602377Y355569D01*
X602279Y355582D01*
X602179Y355592D01*
X602080Y355598D01*
X601980Y355600D01*
X520700Y355600D02*
X520600Y355598D01*
X520501Y355592D01*
X520401Y355582D01*
X520303Y355569D01*
X520204Y355551D01*
X520107Y355530D01*
X520011Y355505D01*
X519915Y355476D01*
X519821Y355443D01*
X519728Y355407D01*
X519637Y355367D01*
X519547Y355323D01*
X519459Y355276D01*
X519373Y355226D01*
X519289Y355172D01*
X519207Y355115D01*
X519128Y355055D01*
X519050Y354991D01*
X518976Y354925D01*
X518904Y354856D01*
X518835Y354784D01*
X518769Y354710D01*
X518705Y354632D01*
X518645Y354553D01*
X518588Y354471D01*
X518534Y354387D01*
X518484Y354301D01*
X518437Y354213D01*
X518393Y354123D01*
X518353Y354032D01*
X518317Y353939D01*
X518284Y353845D01*
X518255Y353749D01*
X518230Y353653D01*
X518209Y353556D01*
X518191Y353457D01*
X518178Y353359D01*
X518168Y353259D01*
X518162Y353160D01*
X518160Y353060D01*
X518160Y327660D02*
X518162Y327560D01*
X518168Y327461D01*
X518178Y327361D01*
X518191Y327263D01*
X518209Y327164D01*
X518230Y327067D01*
X518255Y326971D01*
X518284Y326875D01*
X518317Y326781D01*
X518353Y326688D01*
X518393Y326597D01*
X518437Y326507D01*
X518484Y326419D01*
X518534Y326333D01*
X518588Y326249D01*
X518645Y326167D01*
X518705Y326088D01*
X518769Y326010D01*
X518835Y325936D01*
X518904Y325864D01*
X518976Y325795D01*
X519050Y325729D01*
X519128Y325665D01*
X519207Y325605D01*
X519289Y325548D01*
X519373Y325494D01*
X519459Y325444D01*
X519547Y325397D01*
X519637Y325353D01*
X519728Y325313D01*
X519821Y325277D01*
X519915Y325244D01*
X520011Y325215D01*
X520107Y325190D01*
X520204Y325169D01*
X520303Y325151D01*
X520401Y325138D01*
X520501Y325128D01*
X520600Y325122D01*
X520700Y325120D01*
X604520Y327660D02*
X604520Y353060D01*
X601980Y325120D02*
X595630Y325120D01*
X594360Y326390D01*
X595630Y355600D02*
X601980Y355600D01*
X595630Y355600D02*
X594360Y354330D01*
X528320Y326390D02*
X527050Y325120D01*
X528320Y326390D02*
X594360Y326390D01*
X528320Y354330D02*
X527050Y355600D01*
X528320Y354330D02*
X594360Y354330D01*
X527050Y325120D02*
X520700Y325120D01*
X520700Y355600D02*
X527050Y355600D01*
X518160Y353060D02*
X518160Y327660D01*
D17*
X513842Y340360D03*
X608838Y340360D03*
D12*
X526498Y343535D02*
X526498Y332105D01*
X526498Y343535D02*
X529673Y343535D01*
X529784Y343533D01*
X529894Y343527D01*
X530005Y343518D01*
X530115Y343504D01*
X530224Y343487D01*
X530333Y343466D01*
X530441Y343441D01*
X530548Y343412D01*
X530654Y343380D01*
X530759Y343344D01*
X530862Y343304D01*
X530964Y343261D01*
X531065Y343214D01*
X531164Y343163D01*
X531261Y343110D01*
X531355Y343053D01*
X531448Y342992D01*
X531539Y342929D01*
X531628Y342862D01*
X531714Y342792D01*
X531797Y342719D01*
X531879Y342644D01*
X531957Y342566D01*
X532032Y342484D01*
X532105Y342401D01*
X532175Y342315D01*
X532242Y342226D01*
X532305Y342135D01*
X532366Y342042D01*
X532423Y341947D01*
X532476Y341851D01*
X532527Y341752D01*
X532574Y341651D01*
X532617Y341549D01*
X532657Y341446D01*
X532693Y341341D01*
X532725Y341235D01*
X532754Y341128D01*
X532779Y341020D01*
X532800Y340911D01*
X532817Y340802D01*
X532831Y340692D01*
X532840Y340581D01*
X532846Y340471D01*
X532848Y340360D01*
X532846Y340249D01*
X532840Y340139D01*
X532831Y340028D01*
X532817Y339918D01*
X532800Y339809D01*
X532779Y339700D01*
X532754Y339592D01*
X532725Y339485D01*
X532693Y339379D01*
X532657Y339274D01*
X532617Y339171D01*
X532574Y339069D01*
X532527Y338968D01*
X532476Y338869D01*
X532423Y338772D01*
X532366Y338678D01*
X532305Y338585D01*
X532242Y338494D01*
X532175Y338405D01*
X532105Y338319D01*
X532032Y338236D01*
X531957Y338154D01*
X531879Y338076D01*
X531797Y338001D01*
X531714Y337928D01*
X531628Y337858D01*
X531539Y337791D01*
X531448Y337728D01*
X531355Y337667D01*
X531261Y337610D01*
X531164Y337557D01*
X531065Y337506D01*
X530964Y337459D01*
X530862Y337416D01*
X530759Y337376D01*
X530654Y337340D01*
X530548Y337308D01*
X530441Y337279D01*
X530333Y337254D01*
X530224Y337233D01*
X530115Y337216D01*
X530005Y337202D01*
X529894Y337193D01*
X529784Y337187D01*
X529673Y337185D01*
X526498Y337185D01*
X530308Y337185D02*
X532848Y332105D01*
X537845Y340995D02*
X541020Y343535D01*
X541020Y332105D01*
X537845Y332105D02*
X544195Y332105D01*
X549275Y337820D02*
X549278Y338045D01*
X549286Y338270D01*
X549299Y338494D01*
X549318Y338718D01*
X549342Y338942D01*
X549371Y339165D01*
X549406Y339387D01*
X549446Y339608D01*
X549492Y339828D01*
X549542Y340047D01*
X549598Y340265D01*
X549659Y340482D01*
X549725Y340697D01*
X549796Y340910D01*
X549873Y341121D01*
X549954Y341331D01*
X550040Y341539D01*
X550131Y341744D01*
X550227Y341947D01*
X550227Y341948D02*
X550259Y342036D01*
X550295Y342123D01*
X550334Y342209D01*
X550377Y342293D01*
X550423Y342375D01*
X550472Y342455D01*
X550524Y342533D01*
X550580Y342609D01*
X550638Y342683D01*
X550700Y342754D01*
X550764Y342823D01*
X550831Y342889D01*
X550900Y342952D01*
X550972Y343013D01*
X551046Y343071D01*
X551123Y343125D01*
X551201Y343177D01*
X551282Y343225D01*
X551364Y343270D01*
X551449Y343312D01*
X551535Y343350D01*
X551622Y343385D01*
X551710Y343417D01*
X551800Y343444D01*
X551891Y343469D01*
X551983Y343489D01*
X552075Y343506D01*
X552169Y343519D01*
X552262Y343528D01*
X552356Y343534D01*
X552450Y343536D01*
X552544Y343534D01*
X552638Y343528D01*
X552731Y343519D01*
X552825Y343506D01*
X552917Y343489D01*
X553009Y343469D01*
X553100Y343444D01*
X553190Y343417D01*
X553278Y343385D01*
X553365Y343350D01*
X553451Y343312D01*
X553536Y343270D01*
X553618Y343225D01*
X553699Y343177D01*
X553777Y343125D01*
X553854Y343071D01*
X553928Y343013D01*
X554000Y342952D01*
X554069Y342889D01*
X554136Y342823D01*
X554200Y342754D01*
X554262Y342683D01*
X554320Y342609D01*
X554376Y342533D01*
X554428Y342455D01*
X554477Y342375D01*
X554523Y342293D01*
X554566Y342209D01*
X554605Y342123D01*
X554641Y342036D01*
X554673Y341948D01*
X554673Y341947D02*
X554769Y341744D01*
X554860Y341539D01*
X554946Y341331D01*
X555027Y341121D01*
X555104Y340910D01*
X555175Y340697D01*
X555241Y340482D01*
X555302Y340265D01*
X555358Y340047D01*
X555408Y339828D01*
X555454Y339608D01*
X555494Y339387D01*
X555529Y339165D01*
X555558Y338942D01*
X555582Y338718D01*
X555601Y338494D01*
X555614Y338270D01*
X555622Y338045D01*
X555625Y337820D01*
X549275Y337820D02*
X549278Y337595D01*
X549286Y337370D01*
X549299Y337146D01*
X549318Y336922D01*
X549342Y336698D01*
X549371Y336475D01*
X549406Y336253D01*
X549446Y336032D01*
X549492Y335812D01*
X549542Y335593D01*
X549598Y335375D01*
X549659Y335158D01*
X549725Y334943D01*
X549796Y334730D01*
X549873Y334519D01*
X549954Y334309D01*
X550040Y334101D01*
X550131Y333896D01*
X550227Y333693D01*
X550259Y333605D01*
X550295Y333518D01*
X550334Y333432D01*
X550377Y333348D01*
X550423Y333266D01*
X550472Y333186D01*
X550524Y333108D01*
X550580Y333032D01*
X550638Y332958D01*
X550700Y332887D01*
X550764Y332818D01*
X550831Y332752D01*
X550900Y332689D01*
X550972Y332628D01*
X551046Y332570D01*
X551123Y332516D01*
X551201Y332464D01*
X551282Y332416D01*
X551364Y332371D01*
X551449Y332329D01*
X551535Y332291D01*
X551622Y332256D01*
X551710Y332224D01*
X551800Y332197D01*
X551891Y332172D01*
X551983Y332152D01*
X552075Y332135D01*
X552169Y332122D01*
X552262Y332113D01*
X552356Y332107D01*
X552450Y332105D01*
X554673Y333693D02*
X554769Y333896D01*
X554860Y334101D01*
X554946Y334309D01*
X555027Y334519D01*
X555104Y334730D01*
X555175Y334943D01*
X555241Y335158D01*
X555302Y335375D01*
X555358Y335593D01*
X555408Y335812D01*
X555454Y336032D01*
X555494Y336253D01*
X555529Y336475D01*
X555558Y336698D01*
X555582Y336922D01*
X555601Y337146D01*
X555614Y337370D01*
X555622Y337595D01*
X555625Y337820D01*
X554673Y333693D02*
X554641Y333605D01*
X554605Y333518D01*
X554566Y333432D01*
X554523Y333348D01*
X554477Y333266D01*
X554428Y333186D01*
X554376Y333108D01*
X554320Y333032D01*
X554262Y332958D01*
X554200Y332887D01*
X554136Y332818D01*
X554069Y332752D01*
X554000Y332689D01*
X553928Y332628D01*
X553854Y332570D01*
X553777Y332516D01*
X553699Y332464D01*
X553618Y332416D01*
X553536Y332371D01*
X553451Y332329D01*
X553365Y332291D01*
X553278Y332256D01*
X553190Y332224D01*
X553100Y332197D01*
X553009Y332172D01*
X552917Y332152D01*
X552825Y332135D01*
X552731Y332122D01*
X552638Y332113D01*
X552544Y332107D01*
X552450Y332105D01*
X549910Y334645D02*
X554990Y340995D01*
X50504Y448747D02*
X50504Y452501D01*
X50503Y448747D02*
X50501Y448682D01*
X50495Y448618D01*
X50485Y448554D01*
X50472Y448490D01*
X50454Y448428D01*
X50433Y448367D01*
X50409Y448307D01*
X50380Y448249D01*
X50348Y448192D01*
X50313Y448138D01*
X50275Y448086D01*
X50233Y448036D01*
X50189Y447989D01*
X50142Y447945D01*
X50092Y447903D01*
X50040Y447865D01*
X49986Y447830D01*
X49929Y447798D01*
X49871Y447769D01*
X49811Y447745D01*
X49750Y447724D01*
X49688Y447706D01*
X49624Y447693D01*
X49560Y447683D01*
X49496Y447677D01*
X49431Y447675D01*
X48895Y447675D01*
X53452Y451429D02*
X54792Y452501D01*
X54792Y447675D01*
X53452Y447675D02*
X56133Y447675D01*
X139404Y448747D02*
X139404Y452501D01*
X139403Y448747D02*
X139401Y448682D01*
X139395Y448618D01*
X139385Y448554D01*
X139372Y448490D01*
X139354Y448428D01*
X139333Y448367D01*
X139309Y448307D01*
X139280Y448249D01*
X139248Y448192D01*
X139213Y448138D01*
X139175Y448086D01*
X139133Y448036D01*
X139089Y447989D01*
X139042Y447945D01*
X138992Y447903D01*
X138940Y447865D01*
X138886Y447830D01*
X138829Y447798D01*
X138771Y447769D01*
X138711Y447745D01*
X138650Y447724D01*
X138588Y447706D01*
X138524Y447693D01*
X138460Y447683D01*
X138396Y447677D01*
X138331Y447675D01*
X137795Y447675D01*
X143826Y452501D02*
X143894Y452499D01*
X143961Y452493D01*
X144028Y452484D01*
X144095Y452471D01*
X144160Y452454D01*
X144225Y452433D01*
X144288Y452409D01*
X144350Y452381D01*
X144410Y452350D01*
X144468Y452316D01*
X144524Y452278D01*
X144579Y452238D01*
X144630Y452194D01*
X144679Y452147D01*
X144726Y452098D01*
X144770Y452047D01*
X144810Y451992D01*
X144848Y451936D01*
X144882Y451878D01*
X144913Y451818D01*
X144941Y451756D01*
X144965Y451693D01*
X144986Y451628D01*
X145003Y451563D01*
X145016Y451496D01*
X145025Y451429D01*
X145031Y451362D01*
X145033Y451294D01*
X143826Y452501D02*
X143748Y452499D01*
X143670Y452493D01*
X143593Y452483D01*
X143516Y452470D01*
X143440Y452452D01*
X143365Y452431D01*
X143291Y452406D01*
X143219Y452377D01*
X143148Y452345D01*
X143079Y452309D01*
X143011Y452270D01*
X142946Y452227D01*
X142883Y452181D01*
X142822Y452132D01*
X142764Y452080D01*
X142709Y452025D01*
X142656Y451968D01*
X142607Y451908D01*
X142560Y451845D01*
X142517Y451781D01*
X142477Y451714D01*
X142440Y451645D01*
X142407Y451574D01*
X142377Y451502D01*
X142351Y451429D01*
X144631Y450356D02*
X144680Y450405D01*
X144727Y450457D01*
X144770Y450512D01*
X144811Y450569D01*
X144849Y450628D01*
X144883Y450689D01*
X144914Y450752D01*
X144942Y450816D01*
X144966Y450882D01*
X144986Y450948D01*
X145003Y451016D01*
X145016Y451085D01*
X145025Y451154D01*
X145031Y451224D01*
X145033Y451294D01*
X144631Y450356D02*
X142352Y447675D01*
X145033Y447675D01*
X228304Y448747D02*
X228304Y452501D01*
X228303Y448747D02*
X228301Y448682D01*
X228295Y448618D01*
X228285Y448554D01*
X228272Y448490D01*
X228254Y448428D01*
X228233Y448367D01*
X228209Y448307D01*
X228180Y448249D01*
X228148Y448192D01*
X228113Y448138D01*
X228075Y448086D01*
X228033Y448036D01*
X227989Y447989D01*
X227942Y447945D01*
X227892Y447903D01*
X227840Y447865D01*
X227786Y447830D01*
X227729Y447798D01*
X227671Y447769D01*
X227611Y447745D01*
X227550Y447724D01*
X227488Y447706D01*
X227424Y447693D01*
X227360Y447683D01*
X227296Y447677D01*
X227231Y447675D01*
X226695Y447675D01*
X231252Y447675D02*
X232592Y447675D01*
X232663Y447677D01*
X232735Y447683D01*
X232805Y447692D01*
X232875Y447705D01*
X232945Y447722D01*
X233013Y447743D01*
X233080Y447767D01*
X233146Y447795D01*
X233210Y447826D01*
X233273Y447861D01*
X233333Y447899D01*
X233392Y447940D01*
X233448Y447984D01*
X233502Y448031D01*
X233553Y448080D01*
X233601Y448133D01*
X233647Y448188D01*
X233689Y448245D01*
X233729Y448305D01*
X233765Y448366D01*
X233798Y448430D01*
X233827Y448495D01*
X233853Y448561D01*
X233876Y448629D01*
X233895Y448698D01*
X233910Y448768D01*
X233921Y448838D01*
X233929Y448909D01*
X233933Y448980D01*
X233933Y449052D01*
X233929Y449123D01*
X233921Y449194D01*
X233910Y449264D01*
X233895Y449334D01*
X233876Y449403D01*
X233853Y449471D01*
X233827Y449537D01*
X233798Y449602D01*
X233765Y449666D01*
X233729Y449727D01*
X233689Y449787D01*
X233647Y449844D01*
X233601Y449899D01*
X233553Y449952D01*
X233502Y450001D01*
X233448Y450048D01*
X233392Y450092D01*
X233333Y450133D01*
X233273Y450171D01*
X233210Y450206D01*
X233146Y450237D01*
X233080Y450265D01*
X233013Y450289D01*
X232945Y450310D01*
X232875Y450327D01*
X232805Y450340D01*
X232735Y450349D01*
X232663Y450355D01*
X232592Y450357D01*
X232860Y452501D02*
X231252Y452501D01*
X232860Y452501D02*
X232925Y452499D01*
X232989Y452493D01*
X233053Y452483D01*
X233117Y452470D01*
X233179Y452452D01*
X233240Y452431D01*
X233300Y452407D01*
X233358Y452378D01*
X233415Y452346D01*
X233469Y452311D01*
X233521Y452273D01*
X233571Y452231D01*
X233618Y452187D01*
X233662Y452140D01*
X233704Y452090D01*
X233742Y452038D01*
X233777Y451984D01*
X233809Y451927D01*
X233838Y451869D01*
X233862Y451809D01*
X233883Y451748D01*
X233901Y451686D01*
X233914Y451622D01*
X233924Y451558D01*
X233930Y451494D01*
X233932Y451429D01*
X233930Y451364D01*
X233924Y451300D01*
X233914Y451236D01*
X233901Y451172D01*
X233883Y451110D01*
X233862Y451049D01*
X233838Y450989D01*
X233809Y450931D01*
X233777Y450874D01*
X233742Y450820D01*
X233704Y450768D01*
X233662Y450718D01*
X233618Y450671D01*
X233571Y450627D01*
X233521Y450585D01*
X233469Y450547D01*
X233415Y450512D01*
X233358Y450480D01*
X233300Y450451D01*
X233240Y450427D01*
X233179Y450406D01*
X233117Y450388D01*
X233053Y450375D01*
X232989Y450365D01*
X232925Y450359D01*
X232860Y450357D01*
X232860Y450356D02*
X231788Y450356D01*
X317204Y448747D02*
X317204Y452501D01*
X317203Y448747D02*
X317201Y448682D01*
X317195Y448618D01*
X317185Y448554D01*
X317172Y448490D01*
X317154Y448428D01*
X317133Y448367D01*
X317109Y448307D01*
X317080Y448249D01*
X317048Y448192D01*
X317013Y448138D01*
X316975Y448086D01*
X316933Y448036D01*
X316889Y447989D01*
X316842Y447945D01*
X316792Y447903D01*
X316740Y447865D01*
X316686Y447830D01*
X316629Y447798D01*
X316571Y447769D01*
X316511Y447745D01*
X316450Y447724D01*
X316388Y447706D01*
X316324Y447693D01*
X316260Y447683D01*
X316196Y447677D01*
X316131Y447675D01*
X315595Y447675D01*
X320152Y448747D02*
X321224Y452501D01*
X320152Y448747D02*
X322833Y448747D01*
X322028Y447675D02*
X322028Y449820D01*
X406104Y448747D02*
X406104Y452501D01*
X406103Y448747D02*
X406101Y448682D01*
X406095Y448618D01*
X406085Y448554D01*
X406072Y448490D01*
X406054Y448428D01*
X406033Y448367D01*
X406009Y448307D01*
X405980Y448249D01*
X405948Y448192D01*
X405913Y448138D01*
X405875Y448086D01*
X405833Y448036D01*
X405789Y447989D01*
X405742Y447945D01*
X405692Y447903D01*
X405640Y447865D01*
X405586Y447830D01*
X405529Y447798D01*
X405471Y447769D01*
X405411Y447745D01*
X405350Y447724D01*
X405288Y447706D01*
X405224Y447693D01*
X405160Y447683D01*
X405096Y447677D01*
X405031Y447675D01*
X404495Y447675D01*
X409052Y447675D02*
X410660Y447675D01*
X410725Y447677D01*
X410789Y447683D01*
X410853Y447693D01*
X410917Y447706D01*
X410979Y447724D01*
X411040Y447745D01*
X411100Y447769D01*
X411158Y447798D01*
X411215Y447830D01*
X411269Y447865D01*
X411321Y447903D01*
X411371Y447945D01*
X411418Y447989D01*
X411462Y448036D01*
X411504Y448086D01*
X411542Y448138D01*
X411577Y448192D01*
X411609Y448249D01*
X411638Y448307D01*
X411662Y448367D01*
X411683Y448428D01*
X411701Y448490D01*
X411714Y448554D01*
X411724Y448618D01*
X411730Y448682D01*
X411732Y448747D01*
X411733Y448747D02*
X411733Y449284D01*
X411732Y449284D02*
X411730Y449349D01*
X411724Y449413D01*
X411714Y449477D01*
X411701Y449541D01*
X411683Y449603D01*
X411662Y449664D01*
X411638Y449724D01*
X411609Y449782D01*
X411577Y449839D01*
X411542Y449893D01*
X411504Y449945D01*
X411462Y449995D01*
X411418Y450042D01*
X411371Y450086D01*
X411321Y450128D01*
X411269Y450166D01*
X411215Y450201D01*
X411158Y450233D01*
X411100Y450262D01*
X411040Y450286D01*
X410979Y450307D01*
X410917Y450325D01*
X410853Y450338D01*
X410789Y450348D01*
X410725Y450354D01*
X410660Y450356D01*
X409052Y450356D01*
X409052Y452501D01*
X411733Y452501D01*
X495004Y452501D02*
X495004Y448747D01*
X495003Y448747D02*
X495001Y448682D01*
X494995Y448618D01*
X494985Y448554D01*
X494972Y448490D01*
X494954Y448428D01*
X494933Y448367D01*
X494909Y448307D01*
X494880Y448249D01*
X494848Y448192D01*
X494813Y448138D01*
X494775Y448086D01*
X494733Y448036D01*
X494689Y447989D01*
X494642Y447945D01*
X494592Y447903D01*
X494540Y447865D01*
X494486Y447830D01*
X494429Y447798D01*
X494371Y447769D01*
X494311Y447745D01*
X494250Y447724D01*
X494188Y447706D01*
X494124Y447693D01*
X494060Y447683D01*
X493996Y447677D01*
X493931Y447675D01*
X493395Y447675D01*
X497952Y450356D02*
X499560Y450356D01*
X499625Y450354D01*
X499689Y450348D01*
X499753Y450338D01*
X499817Y450325D01*
X499879Y450307D01*
X499940Y450286D01*
X500000Y450262D01*
X500058Y450233D01*
X500115Y450201D01*
X500169Y450166D01*
X500221Y450128D01*
X500271Y450086D01*
X500318Y450042D01*
X500362Y449995D01*
X500404Y449945D01*
X500442Y449893D01*
X500477Y449839D01*
X500509Y449782D01*
X500538Y449724D01*
X500562Y449664D01*
X500583Y449603D01*
X500601Y449541D01*
X500614Y449477D01*
X500624Y449413D01*
X500630Y449349D01*
X500632Y449284D01*
X500633Y449284D02*
X500633Y449016D01*
X500631Y448945D01*
X500625Y448873D01*
X500616Y448803D01*
X500603Y448733D01*
X500586Y448663D01*
X500565Y448595D01*
X500541Y448528D01*
X500513Y448462D01*
X500482Y448398D01*
X500447Y448335D01*
X500409Y448275D01*
X500368Y448216D01*
X500324Y448160D01*
X500277Y448106D01*
X500228Y448055D01*
X500175Y448007D01*
X500120Y447961D01*
X500063Y447919D01*
X500003Y447879D01*
X499942Y447843D01*
X499878Y447810D01*
X499813Y447781D01*
X499747Y447755D01*
X499679Y447732D01*
X499610Y447713D01*
X499540Y447698D01*
X499470Y447687D01*
X499399Y447679D01*
X499328Y447675D01*
X499256Y447675D01*
X499185Y447679D01*
X499114Y447687D01*
X499044Y447698D01*
X498974Y447713D01*
X498905Y447732D01*
X498837Y447755D01*
X498771Y447781D01*
X498706Y447810D01*
X498642Y447843D01*
X498581Y447879D01*
X498521Y447919D01*
X498464Y447961D01*
X498409Y448007D01*
X498356Y448055D01*
X498307Y448106D01*
X498260Y448160D01*
X498216Y448216D01*
X498175Y448275D01*
X498137Y448335D01*
X498102Y448398D01*
X498071Y448462D01*
X498043Y448528D01*
X498019Y448595D01*
X497998Y448663D01*
X497981Y448733D01*
X497968Y448803D01*
X497959Y448873D01*
X497953Y448945D01*
X497951Y449016D01*
X497952Y449016D02*
X497952Y450356D01*
X497954Y450447D01*
X497960Y450538D01*
X497969Y450628D01*
X497983Y450719D01*
X498000Y450808D01*
X498021Y450896D01*
X498046Y450984D01*
X498075Y451071D01*
X498107Y451156D01*
X498142Y451240D01*
X498182Y451322D01*
X498224Y451402D01*
X498270Y451481D01*
X498320Y451557D01*
X498372Y451631D01*
X498428Y451704D01*
X498487Y451773D01*
X498548Y451840D01*
X498613Y451905D01*
X498680Y451966D01*
X498749Y452025D01*
X498821Y452081D01*
X498896Y452133D01*
X498972Y452183D01*
X499051Y452229D01*
X499131Y452271D01*
X499213Y452311D01*
X499297Y452346D01*
X499382Y452378D01*
X499469Y452407D01*
X499556Y452432D01*
X499645Y452453D01*
X499734Y452470D01*
X499825Y452484D01*
X499915Y452493D01*
X500006Y452499D01*
X500097Y452501D01*
X583904Y452501D02*
X583904Y448747D01*
X583903Y448747D02*
X583901Y448682D01*
X583895Y448618D01*
X583885Y448554D01*
X583872Y448490D01*
X583854Y448428D01*
X583833Y448367D01*
X583809Y448307D01*
X583780Y448249D01*
X583748Y448192D01*
X583713Y448138D01*
X583675Y448086D01*
X583633Y448036D01*
X583589Y447989D01*
X583542Y447945D01*
X583492Y447903D01*
X583440Y447865D01*
X583386Y447830D01*
X583329Y447798D01*
X583271Y447769D01*
X583211Y447745D01*
X583150Y447724D01*
X583088Y447706D01*
X583024Y447693D01*
X582960Y447683D01*
X582896Y447677D01*
X582831Y447675D01*
X582295Y447675D01*
X586852Y451965D02*
X586852Y452501D01*
X589533Y452501D01*
X588192Y447675D01*
X672804Y448747D02*
X672804Y452501D01*
X672803Y448747D02*
X672801Y448682D01*
X672795Y448618D01*
X672785Y448554D01*
X672772Y448490D01*
X672754Y448428D01*
X672733Y448367D01*
X672709Y448307D01*
X672680Y448249D01*
X672648Y448192D01*
X672613Y448138D01*
X672575Y448086D01*
X672533Y448036D01*
X672489Y447989D01*
X672442Y447945D01*
X672392Y447903D01*
X672340Y447865D01*
X672286Y447830D01*
X672229Y447798D01*
X672171Y447769D01*
X672111Y447745D01*
X672050Y447724D01*
X671988Y447706D01*
X671924Y447693D01*
X671860Y447683D01*
X671796Y447677D01*
X671731Y447675D01*
X671195Y447675D01*
X675751Y449016D02*
X675753Y449087D01*
X675759Y449159D01*
X675768Y449229D01*
X675781Y449299D01*
X675798Y449369D01*
X675819Y449437D01*
X675843Y449504D01*
X675871Y449570D01*
X675902Y449634D01*
X675937Y449697D01*
X675975Y449757D01*
X676016Y449816D01*
X676060Y449872D01*
X676107Y449926D01*
X676156Y449977D01*
X676209Y450025D01*
X676264Y450071D01*
X676321Y450113D01*
X676381Y450153D01*
X676442Y450189D01*
X676506Y450222D01*
X676571Y450251D01*
X676637Y450277D01*
X676705Y450300D01*
X676774Y450319D01*
X676844Y450334D01*
X676914Y450345D01*
X676985Y450353D01*
X677056Y450357D01*
X677128Y450357D01*
X677199Y450353D01*
X677270Y450345D01*
X677340Y450334D01*
X677410Y450319D01*
X677479Y450300D01*
X677547Y450277D01*
X677613Y450251D01*
X677678Y450222D01*
X677742Y450189D01*
X677803Y450153D01*
X677863Y450113D01*
X677920Y450071D01*
X677975Y450025D01*
X678028Y449977D01*
X678077Y449926D01*
X678124Y449872D01*
X678168Y449816D01*
X678209Y449757D01*
X678247Y449697D01*
X678282Y449634D01*
X678313Y449570D01*
X678341Y449504D01*
X678365Y449437D01*
X678386Y449369D01*
X678403Y449299D01*
X678416Y449229D01*
X678425Y449159D01*
X678431Y449087D01*
X678433Y449016D01*
X678431Y448945D01*
X678425Y448873D01*
X678416Y448803D01*
X678403Y448733D01*
X678386Y448663D01*
X678365Y448595D01*
X678341Y448528D01*
X678313Y448462D01*
X678282Y448398D01*
X678247Y448335D01*
X678209Y448275D01*
X678168Y448216D01*
X678124Y448160D01*
X678077Y448106D01*
X678028Y448055D01*
X677975Y448007D01*
X677920Y447961D01*
X677863Y447919D01*
X677803Y447879D01*
X677742Y447843D01*
X677678Y447810D01*
X677613Y447781D01*
X677547Y447755D01*
X677479Y447732D01*
X677410Y447713D01*
X677340Y447698D01*
X677270Y447687D01*
X677199Y447679D01*
X677128Y447675D01*
X677056Y447675D01*
X676985Y447679D01*
X676914Y447687D01*
X676844Y447698D01*
X676774Y447713D01*
X676705Y447732D01*
X676637Y447755D01*
X676571Y447781D01*
X676506Y447810D01*
X676442Y447843D01*
X676381Y447879D01*
X676321Y447919D01*
X676264Y447961D01*
X676209Y448007D01*
X676156Y448055D01*
X676107Y448106D01*
X676060Y448160D01*
X676016Y448216D01*
X675975Y448275D01*
X675937Y448335D01*
X675902Y448398D01*
X675871Y448462D01*
X675843Y448528D01*
X675819Y448595D01*
X675798Y448663D01*
X675781Y448733D01*
X675768Y448803D01*
X675759Y448873D01*
X675753Y448945D01*
X675751Y449016D01*
X676020Y451429D02*
X676022Y451494D01*
X676028Y451558D01*
X676038Y451622D01*
X676051Y451686D01*
X676069Y451748D01*
X676090Y451809D01*
X676114Y451869D01*
X676143Y451927D01*
X676175Y451984D01*
X676210Y452038D01*
X676248Y452090D01*
X676290Y452140D01*
X676334Y452187D01*
X676381Y452231D01*
X676431Y452273D01*
X676483Y452311D01*
X676537Y452346D01*
X676594Y452378D01*
X676652Y452407D01*
X676712Y452431D01*
X676773Y452452D01*
X676835Y452470D01*
X676899Y452483D01*
X676963Y452493D01*
X677027Y452499D01*
X677092Y452501D01*
X677157Y452499D01*
X677221Y452493D01*
X677285Y452483D01*
X677349Y452470D01*
X677411Y452452D01*
X677472Y452431D01*
X677532Y452407D01*
X677590Y452378D01*
X677647Y452346D01*
X677701Y452311D01*
X677753Y452273D01*
X677803Y452231D01*
X677850Y452187D01*
X677894Y452140D01*
X677936Y452090D01*
X677974Y452038D01*
X678009Y451984D01*
X678041Y451927D01*
X678070Y451869D01*
X678094Y451809D01*
X678115Y451748D01*
X678133Y451686D01*
X678146Y451622D01*
X678156Y451558D01*
X678162Y451494D01*
X678164Y451429D01*
X678162Y451364D01*
X678156Y451300D01*
X678146Y451236D01*
X678133Y451172D01*
X678115Y451110D01*
X678094Y451049D01*
X678070Y450989D01*
X678041Y450931D01*
X678009Y450874D01*
X677974Y450820D01*
X677936Y450768D01*
X677894Y450718D01*
X677850Y450671D01*
X677803Y450627D01*
X677753Y450585D01*
X677701Y450547D01*
X677647Y450512D01*
X677590Y450480D01*
X677532Y450451D01*
X677472Y450427D01*
X677411Y450406D01*
X677349Y450388D01*
X677285Y450375D01*
X677221Y450365D01*
X677157Y450359D01*
X677092Y450357D01*
X677027Y450359D01*
X676963Y450365D01*
X676899Y450375D01*
X676835Y450388D01*
X676773Y450406D01*
X676712Y450427D01*
X676652Y450451D01*
X676594Y450480D01*
X676537Y450512D01*
X676483Y450547D01*
X676431Y450585D01*
X676381Y450627D01*
X676334Y450671D01*
X676290Y450718D01*
X676248Y450768D01*
X676210Y450820D01*
X676175Y450874D01*
X676143Y450931D01*
X676114Y450989D01*
X676090Y451049D01*
X676069Y451110D01*
X676051Y451172D01*
X676038Y451236D01*
X676028Y451300D01*
X676022Y451364D01*
X676020Y451429D01*
D10*
X142600Y231800D02*
X60600Y231800D01*
X60600Y118800D02*
X142600Y118800D01*
X60600Y226300D02*
X55100Y226300D01*
X60600Y226300D02*
X60600Y231800D01*
X60600Y124300D02*
X60600Y118800D01*
X60600Y124300D02*
X55100Y124300D01*
X142600Y124300D02*
X148100Y124300D01*
X142600Y124300D02*
X142600Y118800D01*
X142600Y226300D02*
X142600Y231800D01*
X142600Y226300D02*
X148100Y226300D01*
X55100Y226300D02*
X55100Y204300D01*
X55100Y156300D02*
X55100Y124300D01*
X148100Y204300D02*
X148100Y226300D01*
X148100Y156300D02*
X148100Y124300D01*
D15*
X87630Y177800D02*
X87634Y178143D01*
X87647Y178485D01*
X87668Y178828D01*
X87697Y179169D01*
X87735Y179510D01*
X87781Y179850D01*
X87836Y180188D01*
X87898Y180525D01*
X87969Y180861D01*
X88049Y181194D01*
X88136Y181526D01*
X88232Y181855D01*
X88335Y182182D01*
X88447Y182506D01*
X88566Y182828D01*
X88693Y183146D01*
X88828Y183461D01*
X88971Y183773D01*
X89122Y184081D01*
X89280Y184385D01*
X89445Y184686D01*
X89618Y184982D01*
X89797Y185274D01*
X89984Y185561D01*
X90178Y185844D01*
X90379Y186122D01*
X90587Y186395D01*
X90801Y186662D01*
X91022Y186925D01*
X91249Y187182D01*
X91482Y187433D01*
X91722Y187678D01*
X91967Y187918D01*
X92218Y188151D01*
X92475Y188378D01*
X92738Y188599D01*
X93005Y188813D01*
X93278Y189021D01*
X93556Y189222D01*
X93839Y189416D01*
X94126Y189603D01*
X94418Y189782D01*
X94714Y189955D01*
X95015Y190120D01*
X95319Y190278D01*
X95627Y190429D01*
X95939Y190572D01*
X96254Y190707D01*
X96572Y190834D01*
X96894Y190953D01*
X97218Y191065D01*
X97545Y191168D01*
X97874Y191264D01*
X98206Y191351D01*
X98539Y191431D01*
X98875Y191502D01*
X99212Y191564D01*
X99550Y191619D01*
X99890Y191665D01*
X100231Y191703D01*
X100572Y191732D01*
X100915Y191753D01*
X101257Y191766D01*
X101600Y191770D01*
X101943Y191766D01*
X102285Y191753D01*
X102628Y191732D01*
X102969Y191703D01*
X103310Y191665D01*
X103650Y191619D01*
X103988Y191564D01*
X104325Y191502D01*
X104661Y191431D01*
X104994Y191351D01*
X105326Y191264D01*
X105655Y191168D01*
X105982Y191065D01*
X106306Y190953D01*
X106628Y190834D01*
X106946Y190707D01*
X107261Y190572D01*
X107573Y190429D01*
X107881Y190278D01*
X108185Y190120D01*
X108486Y189955D01*
X108782Y189782D01*
X109074Y189603D01*
X109361Y189416D01*
X109644Y189222D01*
X109922Y189021D01*
X110195Y188813D01*
X110462Y188599D01*
X110725Y188378D01*
X110982Y188151D01*
X111233Y187918D01*
X111478Y187678D01*
X111718Y187433D01*
X111951Y187182D01*
X112178Y186925D01*
X112399Y186662D01*
X112613Y186395D01*
X112821Y186122D01*
X113022Y185844D01*
X113216Y185561D01*
X113403Y185274D01*
X113582Y184982D01*
X113755Y184686D01*
X113920Y184385D01*
X114078Y184081D01*
X114229Y183773D01*
X114372Y183461D01*
X114507Y183146D01*
X114634Y182828D01*
X114753Y182506D01*
X114865Y182182D01*
X114968Y181855D01*
X115064Y181526D01*
X115151Y181194D01*
X115231Y180861D01*
X115302Y180525D01*
X115364Y180188D01*
X115419Y179850D01*
X115465Y179510D01*
X115503Y179169D01*
X115532Y178828D01*
X115553Y178485D01*
X115566Y178143D01*
X115570Y177800D01*
X115566Y177457D01*
X115553Y177115D01*
X115532Y176772D01*
X115503Y176431D01*
X115465Y176090D01*
X115419Y175750D01*
X115364Y175412D01*
X115302Y175075D01*
X115231Y174739D01*
X115151Y174406D01*
X115064Y174074D01*
X114968Y173745D01*
X114865Y173418D01*
X114753Y173094D01*
X114634Y172772D01*
X114507Y172454D01*
X114372Y172139D01*
X114229Y171827D01*
X114078Y171519D01*
X113920Y171215D01*
X113755Y170914D01*
X113582Y170618D01*
X113403Y170326D01*
X113216Y170039D01*
X113022Y169756D01*
X112821Y169478D01*
X112613Y169205D01*
X112399Y168938D01*
X112178Y168675D01*
X111951Y168418D01*
X111718Y168167D01*
X111478Y167922D01*
X111233Y167682D01*
X110982Y167449D01*
X110725Y167222D01*
X110462Y167001D01*
X110195Y166787D01*
X109922Y166579D01*
X109644Y166378D01*
X109361Y166184D01*
X109074Y165997D01*
X108782Y165818D01*
X108486Y165645D01*
X108185Y165480D01*
X107881Y165322D01*
X107573Y165171D01*
X107261Y165028D01*
X106946Y164893D01*
X106628Y164766D01*
X106306Y164647D01*
X105982Y164535D01*
X105655Y164432D01*
X105326Y164336D01*
X104994Y164249D01*
X104661Y164169D01*
X104325Y164098D01*
X103988Y164036D01*
X103650Y163981D01*
X103310Y163935D01*
X102969Y163897D01*
X102628Y163868D01*
X102285Y163847D01*
X101943Y163834D01*
X101600Y163830D01*
X101257Y163834D01*
X100915Y163847D01*
X100572Y163868D01*
X100231Y163897D01*
X99890Y163935D01*
X99550Y163981D01*
X99212Y164036D01*
X98875Y164098D01*
X98539Y164169D01*
X98206Y164249D01*
X97874Y164336D01*
X97545Y164432D01*
X97218Y164535D01*
X96894Y164647D01*
X96572Y164766D01*
X96254Y164893D01*
X95939Y165028D01*
X95627Y165171D01*
X95319Y165322D01*
X95015Y165480D01*
X94714Y165645D01*
X94418Y165818D01*
X94126Y165997D01*
X93839Y166184D01*
X93556Y166378D01*
X93278Y166579D01*
X93005Y166787D01*
X92738Y167001D01*
X92475Y167222D01*
X92218Y167449D01*
X91967Y167682D01*
X91722Y167922D01*
X91482Y168167D01*
X91249Y168418D01*
X91022Y168675D01*
X90801Y168938D01*
X90587Y169205D01*
X90379Y169478D01*
X90178Y169756D01*
X89984Y170039D01*
X89797Y170326D01*
X89618Y170618D01*
X89445Y170914D01*
X89280Y171215D01*
X89122Y171519D01*
X88971Y171827D01*
X88828Y172139D01*
X88693Y172454D01*
X88566Y172772D01*
X88447Y173094D01*
X88335Y173418D01*
X88232Y173745D01*
X88136Y174074D01*
X88049Y174406D01*
X87969Y174739D01*
X87898Y175075D01*
X87836Y175412D01*
X87781Y175750D01*
X87735Y176090D01*
X87697Y176431D01*
X87668Y176772D01*
X87647Y177115D01*
X87634Y177457D01*
X87630Y177800D01*
X91440Y177800D02*
X91443Y178049D01*
X91452Y178299D01*
X91468Y178547D01*
X91489Y178796D01*
X91516Y179044D01*
X91550Y179291D01*
X91590Y179537D01*
X91635Y179782D01*
X91687Y180026D01*
X91744Y180269D01*
X91808Y180510D01*
X91877Y180749D01*
X91953Y180987D01*
X92034Y181223D01*
X92121Y181457D01*
X92213Y181688D01*
X92312Y181917D01*
X92415Y182144D01*
X92525Y182368D01*
X92640Y182589D01*
X92760Y182808D01*
X92885Y183023D01*
X93016Y183236D01*
X93152Y183445D01*
X93293Y183650D01*
X93439Y183852D01*
X93590Y184051D01*
X93746Y184245D01*
X93907Y184436D01*
X94072Y184623D01*
X94242Y184806D01*
X94416Y184984D01*
X94594Y185158D01*
X94777Y185328D01*
X94964Y185493D01*
X95155Y185654D01*
X95349Y185810D01*
X95548Y185961D01*
X95750Y186107D01*
X95955Y186248D01*
X96164Y186384D01*
X96377Y186515D01*
X96592Y186640D01*
X96811Y186760D01*
X97032Y186875D01*
X97256Y186985D01*
X97483Y187088D01*
X97712Y187187D01*
X97943Y187279D01*
X98177Y187366D01*
X98413Y187447D01*
X98651Y187523D01*
X98890Y187592D01*
X99131Y187656D01*
X99374Y187713D01*
X99618Y187765D01*
X99863Y187810D01*
X100109Y187850D01*
X100356Y187884D01*
X100604Y187911D01*
X100853Y187932D01*
X101101Y187948D01*
X101351Y187957D01*
X101600Y187960D01*
X101849Y187957D01*
X102099Y187948D01*
X102347Y187932D01*
X102596Y187911D01*
X102844Y187884D01*
X103091Y187850D01*
X103337Y187810D01*
X103582Y187765D01*
X103826Y187713D01*
X104069Y187656D01*
X104310Y187592D01*
X104549Y187523D01*
X104787Y187447D01*
X105023Y187366D01*
X105257Y187279D01*
X105488Y187187D01*
X105717Y187088D01*
X105944Y186985D01*
X106168Y186875D01*
X106389Y186760D01*
X106608Y186640D01*
X106823Y186515D01*
X107036Y186384D01*
X107245Y186248D01*
X107450Y186107D01*
X107652Y185961D01*
X107851Y185810D01*
X108045Y185654D01*
X108236Y185493D01*
X108423Y185328D01*
X108606Y185158D01*
X108784Y184984D01*
X108958Y184806D01*
X109128Y184623D01*
X109293Y184436D01*
X109454Y184245D01*
X109610Y184051D01*
X109761Y183852D01*
X109907Y183650D01*
X110048Y183445D01*
X110184Y183236D01*
X110315Y183023D01*
X110440Y182808D01*
X110560Y182589D01*
X110675Y182368D01*
X110785Y182144D01*
X110888Y181917D01*
X110987Y181688D01*
X111079Y181457D01*
X111166Y181223D01*
X111247Y180987D01*
X111323Y180749D01*
X111392Y180510D01*
X111456Y180269D01*
X111513Y180026D01*
X111565Y179782D01*
X111610Y179537D01*
X111650Y179291D01*
X111684Y179044D01*
X111711Y178796D01*
X111732Y178547D01*
X111748Y178299D01*
X111757Y178049D01*
X111760Y177800D01*
X111757Y177551D01*
X111748Y177301D01*
X111732Y177053D01*
X111711Y176804D01*
X111684Y176556D01*
X111650Y176309D01*
X111610Y176063D01*
X111565Y175818D01*
X111513Y175574D01*
X111456Y175331D01*
X111392Y175090D01*
X111323Y174851D01*
X111247Y174613D01*
X111166Y174377D01*
X111079Y174143D01*
X110987Y173912D01*
X110888Y173683D01*
X110785Y173456D01*
X110675Y173232D01*
X110560Y173011D01*
X110440Y172792D01*
X110315Y172577D01*
X110184Y172364D01*
X110048Y172155D01*
X109907Y171950D01*
X109761Y171748D01*
X109610Y171549D01*
X109454Y171355D01*
X109293Y171164D01*
X109128Y170977D01*
X108958Y170794D01*
X108784Y170616D01*
X108606Y170442D01*
X108423Y170272D01*
X108236Y170107D01*
X108045Y169946D01*
X107851Y169790D01*
X107652Y169639D01*
X107450Y169493D01*
X107245Y169352D01*
X107036Y169216D01*
X106823Y169085D01*
X106608Y168960D01*
X106389Y168840D01*
X106168Y168725D01*
X105944Y168615D01*
X105717Y168512D01*
X105488Y168413D01*
X105257Y168321D01*
X105023Y168234D01*
X104787Y168153D01*
X104549Y168077D01*
X104310Y168008D01*
X104069Y167944D01*
X103826Y167887D01*
X103582Y167835D01*
X103337Y167790D01*
X103091Y167750D01*
X102844Y167716D01*
X102596Y167689D01*
X102347Y167668D01*
X102099Y167652D01*
X101849Y167643D01*
X101600Y167640D01*
X101351Y167643D01*
X101101Y167652D01*
X100853Y167668D01*
X100604Y167689D01*
X100356Y167716D01*
X100109Y167750D01*
X99863Y167790D01*
X99618Y167835D01*
X99374Y167887D01*
X99131Y167944D01*
X98890Y168008D01*
X98651Y168077D01*
X98413Y168153D01*
X98177Y168234D01*
X97943Y168321D01*
X97712Y168413D01*
X97483Y168512D01*
X97256Y168615D01*
X97032Y168725D01*
X96811Y168840D01*
X96592Y168960D01*
X96377Y169085D01*
X96164Y169216D01*
X95955Y169352D01*
X95750Y169493D01*
X95548Y169639D01*
X95349Y169790D01*
X95155Y169946D01*
X94964Y170107D01*
X94777Y170272D01*
X94594Y170442D01*
X94416Y170616D01*
X94242Y170794D01*
X94072Y170977D01*
X93907Y171164D01*
X93746Y171355D01*
X93590Y171549D01*
X93439Y171748D01*
X93293Y171950D01*
X93152Y172155D01*
X93016Y172364D01*
X92885Y172577D01*
X92760Y172792D01*
X92640Y173011D01*
X92525Y173232D01*
X92415Y173456D01*
X92312Y173683D01*
X92213Y173912D01*
X92121Y174143D01*
X92034Y174377D01*
X91953Y174613D01*
X91877Y174851D01*
X91808Y175090D01*
X91744Y175331D01*
X91687Y175574D01*
X91635Y175818D01*
X91590Y176063D01*
X91550Y176309D01*
X91516Y176556D01*
X91489Y176804D01*
X91468Y177053D01*
X91452Y177301D01*
X91443Y177551D01*
X91440Y177800D01*
D16*
X67183Y203581D02*
X63881Y213487D01*
X70485Y213487D02*
X67183Y203581D01*
X74033Y206333D02*
X74033Y210735D01*
X74032Y210735D02*
X74034Y210839D01*
X74040Y210943D01*
X74050Y211047D01*
X74063Y211150D01*
X74081Y211253D01*
X74103Y211355D01*
X74128Y211456D01*
X74157Y211556D01*
X74190Y211654D01*
X74227Y211752D01*
X74267Y211848D01*
X74311Y211942D01*
X74358Y212035D01*
X74409Y212126D01*
X74464Y212215D01*
X74521Y212302D01*
X74582Y212386D01*
X74646Y212468D01*
X74714Y212548D01*
X74784Y212625D01*
X74857Y212699D01*
X74932Y212771D01*
X75011Y212839D01*
X75092Y212905D01*
X75175Y212968D01*
X75260Y213027D01*
X75348Y213083D01*
X75438Y213135D01*
X75530Y213185D01*
X75624Y213230D01*
X75719Y213273D01*
X75816Y213311D01*
X75914Y213346D01*
X76013Y213377D01*
X76114Y213404D01*
X76215Y213428D01*
X76318Y213447D01*
X76420Y213463D01*
X76524Y213475D01*
X76628Y213483D01*
X76732Y213487D01*
X76836Y213487D01*
X76940Y213483D01*
X77044Y213475D01*
X77148Y213463D01*
X77250Y213447D01*
X77353Y213428D01*
X77454Y213404D01*
X77555Y213377D01*
X77654Y213346D01*
X77752Y213311D01*
X77849Y213273D01*
X77944Y213230D01*
X78038Y213185D01*
X78130Y213135D01*
X78220Y213083D01*
X78308Y213027D01*
X78393Y212968D01*
X78476Y212905D01*
X78557Y212839D01*
X78636Y212771D01*
X78711Y212699D01*
X78784Y212625D01*
X78854Y212548D01*
X78922Y212468D01*
X78986Y212386D01*
X79047Y212302D01*
X79104Y212215D01*
X79159Y212126D01*
X79210Y212035D01*
X79257Y211942D01*
X79301Y211848D01*
X79341Y211752D01*
X79378Y211654D01*
X79411Y211556D01*
X79440Y211456D01*
X79465Y211355D01*
X79487Y211253D01*
X79505Y211150D01*
X79518Y211047D01*
X79528Y210943D01*
X79534Y210839D01*
X79536Y210735D01*
X79536Y206333D01*
X79534Y206229D01*
X79528Y206125D01*
X79518Y206021D01*
X79505Y205918D01*
X79487Y205815D01*
X79465Y205713D01*
X79440Y205612D01*
X79411Y205512D01*
X79378Y205414D01*
X79341Y205316D01*
X79301Y205220D01*
X79257Y205126D01*
X79210Y205033D01*
X79159Y204942D01*
X79104Y204853D01*
X79047Y204766D01*
X78986Y204682D01*
X78922Y204600D01*
X78854Y204520D01*
X78784Y204443D01*
X78711Y204369D01*
X78636Y204297D01*
X78557Y204229D01*
X78476Y204163D01*
X78393Y204100D01*
X78308Y204041D01*
X78220Y203985D01*
X78130Y203933D01*
X78038Y203883D01*
X77944Y203838D01*
X77849Y203795D01*
X77752Y203757D01*
X77654Y203722D01*
X77555Y203691D01*
X77454Y203664D01*
X77353Y203640D01*
X77250Y203621D01*
X77148Y203605D01*
X77044Y203593D01*
X76940Y203585D01*
X76836Y203581D01*
X76732Y203581D01*
X76628Y203585D01*
X76524Y203593D01*
X76420Y203605D01*
X76318Y203621D01*
X76215Y203640D01*
X76114Y203664D01*
X76013Y203691D01*
X75914Y203722D01*
X75816Y203757D01*
X75719Y203795D01*
X75624Y203838D01*
X75530Y203883D01*
X75438Y203933D01*
X75348Y203985D01*
X75260Y204041D01*
X75175Y204100D01*
X75092Y204163D01*
X75011Y204229D01*
X74932Y204297D01*
X74857Y204369D01*
X74784Y204443D01*
X74714Y204520D01*
X74646Y204600D01*
X74582Y204682D01*
X74521Y204766D01*
X74464Y204853D01*
X74409Y204942D01*
X74358Y205033D01*
X74311Y205126D01*
X74267Y205220D01*
X74227Y205316D01*
X74190Y205414D01*
X74157Y205512D01*
X74128Y205612D01*
X74103Y205713D01*
X74081Y205815D01*
X74063Y205918D01*
X74050Y206021D01*
X74040Y206125D01*
X74034Y206229D01*
X74032Y206333D01*
X83972Y203581D02*
X83972Y213487D01*
X83972Y203581D02*
X88374Y203581D01*
X92275Y206333D02*
X92275Y213487D01*
X92274Y206333D02*
X92276Y206229D01*
X92282Y206125D01*
X92292Y206021D01*
X92305Y205918D01*
X92323Y205815D01*
X92345Y205713D01*
X92370Y205612D01*
X92399Y205512D01*
X92432Y205414D01*
X92469Y205316D01*
X92509Y205220D01*
X92553Y205126D01*
X92600Y205033D01*
X92651Y204942D01*
X92706Y204853D01*
X92763Y204766D01*
X92824Y204682D01*
X92888Y204600D01*
X92956Y204520D01*
X93026Y204443D01*
X93099Y204369D01*
X93174Y204297D01*
X93253Y204229D01*
X93334Y204163D01*
X93417Y204100D01*
X93502Y204041D01*
X93590Y203985D01*
X93680Y203933D01*
X93772Y203883D01*
X93866Y203838D01*
X93961Y203795D01*
X94058Y203757D01*
X94156Y203722D01*
X94255Y203691D01*
X94356Y203664D01*
X94457Y203640D01*
X94560Y203621D01*
X94662Y203605D01*
X94766Y203593D01*
X94870Y203585D01*
X94974Y203581D01*
X95078Y203581D01*
X95182Y203585D01*
X95286Y203593D01*
X95390Y203605D01*
X95492Y203621D01*
X95595Y203640D01*
X95696Y203664D01*
X95797Y203691D01*
X95896Y203722D01*
X95994Y203757D01*
X96091Y203795D01*
X96186Y203838D01*
X96280Y203883D01*
X96372Y203933D01*
X96462Y203985D01*
X96550Y204041D01*
X96635Y204100D01*
X96718Y204163D01*
X96799Y204229D01*
X96878Y204297D01*
X96953Y204369D01*
X97026Y204443D01*
X97096Y204520D01*
X97164Y204600D01*
X97228Y204682D01*
X97289Y204766D01*
X97346Y204853D01*
X97401Y204942D01*
X97452Y205033D01*
X97499Y205126D01*
X97543Y205220D01*
X97583Y205316D01*
X97620Y205414D01*
X97653Y205512D01*
X97682Y205612D01*
X97707Y205713D01*
X97729Y205815D01*
X97747Y205918D01*
X97760Y206021D01*
X97770Y206125D01*
X97776Y206229D01*
X97778Y206333D01*
X97778Y213487D01*
X102606Y213487D02*
X102606Y203581D01*
X105908Y207984D02*
X102606Y213487D01*
X105908Y207984D02*
X109210Y213487D01*
X109210Y203581D01*
X114055Y203581D02*
X118458Y203581D01*
X114055Y203581D02*
X114055Y213487D01*
X118458Y213487D01*
X117357Y209084D02*
X114055Y209084D01*
M02*
