M48
;GenerationSoftware,Autodesk,EAGLE,9.3.1*%
;CreationDate,2020-11-05T16:24:36Z*%
FMAT,2
ICI,OFF
METRIC,TZ,000.000
T6C0.813
T5C1.000
T4C1.100
T3C1.300
T2C1.803
T1C2.100
%
G90
M71
T1
X26090Y6350
X17090Y6350
X38790Y6350
X29790Y6350
T2
X43434Y21082
X43434Y16383
X43434Y11684
T3
X24870Y31750
X44870Y31750
T4
X13890Y5080
X5390Y5080
X2390Y5080
X34290Y13350
X31790Y13350
X24090Y13350
X21590Y13350
X19090Y13350
X36790Y13350
T5
X10160Y12700
X12700Y12700
X12700Y20320
X10160Y20320
X7620Y20320
X5080Y20320
X7620Y12700
X5080Y12700
T6
X15240Y24130
X2540Y24130
X17907Y21971
X21463Y21971
X2540Y27940
X15240Y27940
X2540Y31750
X15240Y31750
M30