M48
;GenerationSoftware,Autodesk,EAGLE,9.3.1*%
;CreationDate,2020-11-05T16:01:12Z*%
FMAT,2
ICI,OFF
METRIC,TZ,000.000
T6C0.813
T5C1.000
T4C1.100
T3C1.300
T2C1.803
T1C2.100
%
G90
M71
T1
X5660Y17780
X14660Y17780
X28630Y6350
X19630Y6350
T2
X35560Y12319
X35560Y7620
X35560Y2921
T3
X66040Y3280
X66040Y23280
T4
X12660Y10780
X10160Y10780
X7660Y10780
X21630Y13350
X24130Y13350
X15160Y5080
X6660Y5080
X3660Y5080
X26630Y13350
T5
X7620Y33020
X10160Y33020
X7620Y25400
X12700Y25400
X15240Y25400
X15240Y33020
X12700Y33020
X46990Y24130
X49530Y24130
X21590Y19050
X24130Y19050
X26670Y19050
X29210Y19050
X29210Y26670
X26670Y26670
X24130Y26670
X21590Y26670
X52070Y24130
X10160Y25400
X54610Y24130
X54610Y16510
X34290Y16510
X36830Y16510
X39370Y16510
X41910Y16510
X41910Y24130
X39370Y24130
X36830Y24130
X34290Y24130
X52070Y16510
X49530Y16510
X46990Y16510
T6
X46990Y34798
X65278Y29972
X77978Y29972
X34290Y34798
X46990Y31242
X34290Y31242
X46990Y27305
X34290Y27305
X19050Y30480
X19050Y34290
X31750Y34290
X65278Y34163
X77978Y34163
X49784Y29718
X62484Y29718
X62484Y34036
X49784Y34036
X45085Y11684
X45085Y8128
X3429Y36576
X3429Y23876
X31750Y30480
M30